%FSLAX44Y44*%
%MOMM*%
G71*
G01*
G75*
G04 Layer_Physical_Order=4*
G04 Layer_Color=16711680*
%ADD10R,0.4000X1.0000*%
%ADD11R,1.0000X0.4000*%
%ADD12R,0.7250X2.3500*%
%ADD13R,3.0000X2.1000*%
%ADD14R,1.6000X0.8000*%
%ADD15C,0.2000*%
%ADD16C,0.2540*%
%ADD17C,0.4000*%
%ADD18C,0.3000*%
%ADD19R,1.1000X0.4000*%
%ADD20R,1.9250X2.3500*%
%ADD21C,4.0000*%
G04:AMPARAMS|DCode=22|XSize=4.7mm|YSize=4mm|CornerRadius=2mm|HoleSize=0mm|Usage=FLASHONLY|Rotation=45.000|XOffset=0mm|YOffset=0mm|HoleType=Round|Shape=RoundedRectangle|*
%AMROUNDEDRECTD22*
21,1,4.7000,0.0000,0,0,45.0*
21,1,0.7000,4.0000,0,0,45.0*
1,1,4.0000,0.2475,0.2475*
1,1,4.0000,-0.2475,-0.2475*
1,1,4.0000,-0.2475,-0.2475*
1,1,4.0000,0.2475,0.2475*
%
%ADD22ROUNDEDRECTD22*%
G04:AMPARAMS|DCode=23|XSize=4.7mm|YSize=4mm|CornerRadius=2mm|HoleSize=0mm|Usage=FLASHONLY|Rotation=-45.000|XOffset=0mm|YOffset=0mm|HoleType=Round|Shape=RoundedRectangle|*
%AMROUNDEDRECTD23*
21,1,4.7000,0.0000,0,0,-45.0*
21,1,0.7000,4.0000,0,0,-45.0*
1,1,4.0000,0.2475,-0.2475*
1,1,4.0000,-0.2475,0.2475*
1,1,4.0000,-0.2475,0.2475*
1,1,4.0000,0.2475,-0.2475*
%
%ADD23ROUNDEDRECTD23*%
%ADD24C,0.5000*%
%ADD25C,0.5000*%
%ADD26C,3.6000*%
%ADD27R,0.5000X0.6000*%
%ADD28R,0.6000X0.5000*%
%ADD29R,1.1000X0.5000*%
%ADD30R,2.1844X2.4130*%
%ADD31R,0.3000X1.1000*%
%ADD32R,1.2700X0.5080*%
%ADD33R,2.4000X1.2500*%
%ADD34R,1.2000X1.2500*%
%ADD35R,0.5000X1.1000*%
%ADD36R,0.8890X1.0160*%
%ADD37C,0.8000*%
%ADD38R,0.8128X0.8128*%
%ADD39R,1.2000X1.4000*%
%ADD40R,1.2000X1.6000*%
%ADD41R,1.2954X1.6002*%
%ADD42R,1.3970X1.3970*%
%ADD43R,0.8128X0.8128*%
%ADD44O,0.3000X1.5000*%
%ADD45R,2.1800X1.7200*%
%ADD46C,4.4000*%
G36*
X67003Y-87002D02*
X72503Y-92502D01*
Y-97873D01*
X63710D01*
Y-109938D01*
Y-122003D01*
X72503D01*
Y-137002D01*
X-152497D01*
Y-127002D01*
Y-122003D01*
X-143710D01*
Y-109938D01*
X-142440D01*
Y-108668D01*
X-131518D01*
Y-97873D01*
X-142213D01*
X-142699Y-96699D01*
X-127170Y-81171D01*
X-125997Y-81657D01*
Y-91002D01*
X-120556D01*
Y-96781D01*
X-120794Y-97137D01*
X-121066Y-98503D01*
X-120794Y-99868D01*
X-120021Y-101026D01*
X-118863Y-101800D01*
X-117497Y-102071D01*
X-116131Y-101800D01*
X-114974Y-101026D01*
X-114200Y-99868D01*
X-113929Y-98503D01*
X-114200Y-97137D01*
X-114438Y-96781D01*
Y-96661D01*
X-113767Y-96110D01*
Y-93497D01*
X-112497D01*
Y-92227D01*
X-110339D01*
X-110409Y-92122D01*
X-109810Y-91002D01*
X-100184D01*
X-99585Y-92122D01*
X-99655Y-92227D01*
X-95339D01*
X-95409Y-92122D01*
X-94810Y-91002D01*
X-85184D01*
X-84585Y-92122D01*
X-84655Y-92227D01*
X-80339D01*
X-80409Y-92122D01*
X-79810Y-91002D01*
X-70184D01*
X-69585Y-92122D01*
X-69655Y-92227D01*
X-65339D01*
X-65409Y-92122D01*
X-64810Y-91002D01*
X-55184D01*
X-54585Y-92122D01*
X-54655Y-92227D01*
X-50339D01*
X-50409Y-92122D01*
X-49810Y-91002D01*
X-40184D01*
X-39585Y-92122D01*
X-39655Y-92227D01*
X-35339D01*
X-35409Y-92122D01*
X-34810Y-91002D01*
X-25184D01*
X-24585Y-92122D01*
X-24655Y-92227D01*
X-20339D01*
X-20409Y-92122D01*
X-19810Y-91002D01*
X-10184D01*
X-9585Y-92122D01*
X-9655Y-92227D01*
X-5339D01*
X-5409Y-92122D01*
X-4810Y-91002D01*
X4816D01*
X5415Y-92122D01*
X5345Y-92227D01*
X9661D01*
X9591Y-92122D01*
X10190Y-91002D01*
X19816D01*
X20415Y-92122D01*
X20345Y-92227D01*
X24661D01*
X24591Y-92122D01*
X25190Y-91002D01*
X29169D01*
Y-92293D01*
X28735Y-92942D01*
X28424Y-94503D01*
X28735Y-96063D01*
X29619Y-97387D01*
X34616Y-102384D01*
X35939Y-103268D01*
X37500Y-103578D01*
X39061Y-103268D01*
X40384Y-102384D01*
X45387Y-97381D01*
X46271Y-96058D01*
X46581Y-94497D01*
X46271Y-92936D01*
X45837Y-92287D01*
Y-91002D01*
X46003D01*
Y-78000D01*
X58000D01*
X67003Y-87002D01*
D02*
G37*
%LPC*%
G36*
X-83767Y-94767D02*
X-84655D01*
X-84300Y-95300D01*
X-83767Y-95655D01*
Y-94767D01*
D02*
G37*
G36*
X-95339D02*
X-96227D01*
Y-95655D01*
X-95695Y-95300D01*
X-95339Y-94767D01*
D02*
G37*
G36*
X-65339D02*
X-66227D01*
Y-95655D01*
X-65695Y-95300D01*
X-65339Y-94767D01*
D02*
G37*
G36*
X-68767D02*
X-69655D01*
X-69300Y-95300D01*
X-68767Y-95655D01*
Y-94767D01*
D02*
G37*
G36*
X-80339D02*
X-81227D01*
Y-95655D01*
X-80695Y-95300D01*
X-80339Y-94767D01*
D02*
G37*
G36*
X61170Y-111208D02*
X51518D01*
Y-122003D01*
X61170D01*
Y-111208D01*
D02*
G37*
G36*
X-131518Y-111208D02*
X-141170D01*
Y-122003D01*
X-131518D01*
Y-111208D01*
D02*
G37*
G36*
X61170Y-97873D02*
X51518D01*
Y-108668D01*
X61170D01*
Y-97873D01*
D02*
G37*
G36*
X-98767Y-94767D02*
X-99655D01*
X-99299Y-95300D01*
X-98767Y-95655D01*
Y-94767D01*
D02*
G37*
G36*
X-110339D02*
X-111227D01*
Y-95655D01*
X-110695Y-95300D01*
X-110339Y-94767D01*
D02*
G37*
G36*
X-53767D02*
X-54655D01*
X-54300Y-95300D01*
X-53767Y-95655D01*
Y-94767D01*
D02*
G37*
G36*
X6233D02*
X5345D01*
X5700Y-95300D01*
X6233Y-95655D01*
Y-94767D01*
D02*
G37*
G36*
X-5339D02*
X-6227D01*
Y-95655D01*
X-5695Y-95300D01*
X-5339Y-94767D01*
D02*
G37*
G36*
X9661D02*
X8773D01*
Y-95655D01*
X9305Y-95300D01*
X9661Y-94767D01*
D02*
G37*
G36*
X24661D02*
X23773D01*
Y-95655D01*
X24305Y-95300D01*
X24661Y-94767D01*
D02*
G37*
G36*
X21233D02*
X20345D01*
X20700Y-95300D01*
X21233Y-95655D01*
Y-94767D01*
D02*
G37*
G36*
X-8767D02*
X-9655D01*
X-9299Y-95300D01*
X-8767Y-95655D01*
Y-94767D01*
D02*
G37*
G36*
X-38767D02*
X-39655D01*
X-39300Y-95300D01*
X-38767Y-95655D01*
Y-94767D01*
D02*
G37*
G36*
X-50339D02*
X-51227D01*
Y-95655D01*
X-50695Y-95300D01*
X-50339Y-94767D01*
D02*
G37*
G36*
X-35339D02*
X-36227D01*
Y-95655D01*
X-35695Y-95300D01*
X-35339Y-94767D01*
D02*
G37*
G36*
X-20339D02*
X-21227D01*
Y-95655D01*
X-20695Y-95300D01*
X-20339Y-94767D01*
D02*
G37*
G36*
X-23767D02*
X-24655D01*
X-24299Y-95300D01*
X-23767Y-95655D01*
Y-94767D01*
D02*
G37*
%LPD*%
D15*
X-92497Y-83502D02*
Y-58497D01*
X-87497Y-66497D02*
X-85000Y-64000D01*
X-87497Y-83502D02*
Y-66497D01*
X-77763Y-58497D02*
X-77497Y-58762D01*
Y-83502D02*
Y-58762D01*
X-72497Y-66231D02*
X-70265Y-63999D01*
X-72497Y-83502D02*
Y-66231D01*
X-62497Y-83502D02*
Y-58497D01*
X-57497Y-83502D02*
Y-66497D01*
X-55000Y-64000D01*
X-47497Y-83502D02*
Y-74000D01*
X60500Y-60000D02*
X67000D01*
X60500Y-48000D02*
X67000D01*
X-42497Y-83502D02*
Y-69000D01*
X38343Y-48000D02*
X44000D01*
X12503Y-73840D02*
X38343Y-48000D01*
X44000D02*
X51500D01*
X32000Y-60000D02*
X44000D01*
X51500D01*
X12503Y-83502D02*
Y-73840D01*
X17503Y-83502D02*
Y-74497D01*
X32000Y-60000D01*
X22000Y14000D02*
X26000Y10000D01*
X22000Y14000D02*
Y17500D01*
X-58895Y3500D02*
Y11500D01*
X2619Y105000D02*
Y114000D01*
X25000Y160000D02*
X44000D01*
X8250D02*
X25000D01*
X-51205Y160000D02*
X-22500D01*
X-51000Y139500D02*
Y159795D01*
X-25000Y120500D02*
X-13500D01*
X-7000Y114000D02*
X2619D01*
X-13500Y120500D02*
X-7000Y114000D01*
X-95000Y117000D02*
X-86500D01*
X-117497Y-98503D02*
Y-83502D01*
X-86500Y117000D02*
Y130000D01*
X-135000Y-51500D02*
Y-37500D01*
X-154000Y-59000D02*
X-147000D01*
X-156000Y-57000D02*
X-154000Y-59000D01*
X-156000Y-57000D02*
Y-48000D01*
X-147000Y-59000D02*
X-139500Y-51500D01*
X-135000D01*
X-145000Y-63000D02*
X-142500Y-60500D01*
X-135000D01*
X-156000Y-63000D02*
X-145000D01*
X-161000Y-58000D02*
X-156000Y-63000D01*
X-161000Y-58000D02*
Y-48000D01*
X-112757Y-72000D02*
X-107497Y-77260D01*
X-161000Y-72000D02*
X-112757D01*
X-107497Y-83502D02*
Y-77260D01*
X-171000Y-62000D02*
Y-48000D01*
Y-62000D02*
X-161000Y-72000D01*
X-110000Y-68000D02*
X-102497Y-75503D01*
X-166000Y-61000D02*
Y-48000D01*
X-102497Y-83502D02*
Y-75503D01*
X-159000Y-68000D02*
X-110000D01*
X-166000Y-61000D02*
X-159000Y-68000D01*
X-85000Y-64000D02*
Y-48000D01*
X-70265Y-63999D02*
Y-47999D01*
X-55000Y-64000D02*
Y-48000D01*
X14000Y5500D02*
Y20000D01*
X17500Y23500D01*
X26000Y5500D02*
Y10000D01*
X-40000Y74500D02*
X-27000D01*
Y64000D02*
Y74500D01*
X-28858Y62142D02*
X-27000Y64000D01*
X-28858Y48517D02*
Y62142D01*
X3500Y45000D02*
Y52500D01*
X-11000Y5500D02*
Y17500D01*
X1000Y5500D02*
Y17500D01*
X-23000Y5500D02*
Y17500D01*
X-189914Y-180000D02*
G03*
X-179914Y-190000I10000J0D01*
G01*
X-179914Y190000D02*
G03*
X-189914Y180000I0J-10000D01*
G01*
X179914Y-190000D02*
G03*
X189914Y-180000I0J10000D01*
G01*
X190000Y180000D02*
G03*
X180000Y190000I-10000J0D01*
G01*
X-179914Y189914D02*
X180000Y189914D01*
X-179914Y-189914D02*
X179914Y-189914D01*
X-190000Y-180000D02*
Y180000D01*
X190000Y-180000D02*
Y180000D01*
D16*
X37503Y-99500D02*
Y-83502D01*
X-8230Y-46230D02*
X21701D01*
X-17497Y-55497D02*
X-8230Y-46230D01*
X-17497Y-83502D02*
Y-55497D01*
X-6066Y-51000D02*
X10000D01*
X-12497Y-57431D02*
X-6066Y-51000D01*
X-12497Y-83502D02*
Y-57431D01*
X2503Y-83502D02*
Y-67000D01*
X-2497Y-62000D02*
X2503Y-67000D01*
X-27497Y-49497D02*
X-3500Y-25500D01*
X-32497Y-47751D02*
X-5246Y-20500D01*
X-27497Y-83502D02*
Y-49497D01*
X-32497Y-83502D02*
Y-47751D01*
X-2497Y-83502D02*
Y-69000D01*
X-5246Y-20500D02*
X3500D01*
X128000Y-103000D02*
X130000Y-105000D01*
X113000Y-103000D02*
X128000D01*
X111000Y-105000D02*
X113000Y-103000D01*
X111000Y-115000D02*
Y-105000D01*
X130000Y-115000D02*
Y-105000D01*
X-10500Y38750D02*
Y45000D01*
X42503Y-94497D02*
Y-83502D01*
X32503Y-94503D02*
Y-83502D01*
X-25000Y130000D02*
X-1500D01*
X-161000Y40620D02*
Y64500D01*
X-150750Y74750D01*
X-176000Y40620D02*
Y61750D01*
X-150750Y87000D01*
X139000Y-115000D02*
X145500D01*
X130000D02*
X139000D01*
X93500Y-88000D02*
X111000D01*
X145000Y6000D02*
X149000Y2000D01*
X134000Y6000D02*
X145000D01*
X130000Y2000D02*
X134000Y6000D01*
X130000Y-6500D02*
Y2000D01*
X149000Y-6500D02*
Y2000D01*
X43500Y24500D02*
Y53000D01*
X69000Y94000D02*
X79000D01*
X66500Y91500D02*
X69000Y94000D01*
X66500Y77500D02*
Y91500D01*
Y77500D02*
X69000Y75000D01*
X79000D01*
X34500D02*
X52000D01*
X34500Y94000D02*
X42000D01*
X-77500Y130000D02*
X-51000D01*
X-146000Y17000D02*
Y25380D01*
X-156000Y7000D02*
X-146000Y17000D01*
X-156000Y-2000D02*
Y7000D01*
X-161000Y25380D02*
X-161000Y25380D01*
X-161000Y-2000D02*
Y25380D01*
X-171000Y10000D02*
Y11096D01*
Y-2000D02*
Y10000D01*
X-176000Y15000D02*
Y25380D01*
Y15000D02*
X-171000Y10000D01*
X-151000Y-2000D02*
X-146000D01*
X-166000Y-20000D02*
Y-2000D01*
X12500Y52500D02*
X28380D01*
X12500D02*
Y59500D01*
D17*
X148920Y-25500D02*
Y-17000D01*
X37500Y-99500D02*
X42503Y-94497D01*
X1000Y-10000D02*
Y-3500D01*
X26000D02*
X48500D01*
X14000D02*
X26000D01*
X-65500Y-24500D02*
X-58500D01*
X-44500Y10500D02*
Y21000D01*
X-41500Y24000D01*
Y36000D01*
X-6250Y25500D02*
X-3500D01*
X-10500Y29750D02*
X-6250Y25500D01*
X-74000Y84000D02*
X-67500D01*
X-72795Y149205D02*
Y160000D01*
X32503Y-94503D02*
X37500Y-99500D01*
X76000Y160000D02*
X86000D01*
X-25000Y139500D02*
X-14500D01*
X7500Y130000D02*
X14000D01*
X18621Y114000D02*
X27000D01*
X-61000Y98500D02*
X-51500D01*
X-69000Y117000D02*
X-65500Y120500D01*
X-61000D01*
X-51000D01*
X-61000Y107500D02*
Y120500D01*
X106500Y94000D02*
Y103000D01*
X130000Y-78000D02*
Y-70500D01*
Y-88000D02*
Y-78000D01*
X84500Y-97000D02*
Y-88000D01*
X130000Y-61500D02*
Y-54000D01*
X154500Y-115000D02*
Y-107500D01*
X120500Y-124500D02*
Y-115000D01*
X149000Y-17000D02*
Y-6500D01*
Y31500D02*
Y39000D01*
X130000Y48000D02*
Y55500D01*
X149000Y48000D02*
Y55500D01*
X139500Y-16000D02*
Y-6500D01*
X79000Y84500D02*
X88500D01*
X79000Y94000D02*
X88500D01*
X15500D02*
X25500D01*
X15500Y75000D02*
X23000D01*
X42000Y94000D02*
X52000D01*
X-77500Y117000D02*
X-69000D01*
X-157500Y-28500D02*
X-135000D01*
X-128498D01*
X-10000Y93700D02*
X1700D01*
X-27000Y83500D02*
Y90000D01*
X-65500Y-10500D02*
X-58500D01*
X-158938Y-109938D02*
X-142440D01*
X62440Y-109938D02*
X78938D01*
X-23000Y-3500D02*
X-11000D01*
Y-10000D02*
Y-3500D01*
X-146000Y40620D02*
X-137620D01*
X88500Y94000D02*
X97500D01*
X-49500Y-24500D02*
X-42500D01*
D18*
X27000Y-48002D02*
Y-42000D01*
X-4338Y-56770D02*
X18232D01*
X27000Y-48002D01*
X10500Y-25500D02*
X27000Y-42000D01*
X-7497Y-59929D02*
X-4338Y-56770D01*
X-7497Y-83502D02*
Y-59929D01*
X-2166Y-31000D02*
X5000D01*
X-22497Y-83502D02*
Y-51331D01*
X-2166Y-31000D01*
X-16000Y-23000D02*
X-15000D01*
X-37497Y-44497D02*
X-16000Y-23000D01*
X-37497Y-83502D02*
Y-44497D01*
X5000Y-31000D02*
X10500Y-25500D01*
X-67000Y58000D02*
X-56500D01*
X-58895Y20500D02*
Y38746D01*
X-57500Y83500D02*
X-40000D01*
X149000Y20500D02*
Y31500D01*
X130000Y20500D02*
Y39000D01*
X140420Y-35500D02*
X148920D01*
X-112497Y-93497D02*
Y-83502D01*
X-97497Y-93497D02*
Y-83502D01*
X-82497Y-93497D02*
Y-83502D01*
X-67497Y-93497D02*
Y-83502D01*
X-52497Y-93497D02*
Y-83502D01*
X-37497Y-93497D02*
Y-83502D01*
X-22497Y-93497D02*
Y-83502D01*
X-7497Y-93497D02*
Y-83502D01*
X7503Y-93497D02*
Y-83502D01*
X22503Y-93497D02*
Y-83502D01*
X-58157Y61000D02*
Y82657D01*
X-10500Y45000D02*
Y68300D01*
X-49500Y-10500D02*
X-42888D01*
D22*
X165000Y165000D02*
D03*
X-165000Y-165000D02*
D03*
D23*
X165000D02*
D03*
X-165000Y165000D02*
D03*
D24*
X106500Y103000D02*
D03*
X67000Y-60000D02*
D03*
X-47497Y-74000D02*
D03*
X67000Y-48000D02*
D03*
X-42497Y-69000D02*
D03*
X44000Y-60000D02*
D03*
Y-48000D02*
D03*
X21701Y-46230D02*
D03*
X10000Y-51000D02*
D03*
X1000Y-10000D02*
D03*
X48500Y-3500D02*
D03*
X-23000Y17500D02*
D03*
X-65500Y-24500D02*
D03*
X-58895Y3500D02*
D03*
X-74000Y84000D02*
D03*
X-72795Y149205D02*
D03*
X37500Y-99500D02*
D03*
X42503Y-94497D02*
D03*
X32503Y-94503D02*
D03*
X86000Y160000D02*
D03*
X-14500Y139500D02*
D03*
X14000Y130000D02*
D03*
X27000Y114000D02*
D03*
X2619Y105000D02*
D03*
X-51500Y98500D02*
D03*
X25000Y160000D02*
D03*
X-167750Y128750D02*
D03*
X130000Y-78000D02*
D03*
X149000Y-17000D02*
D03*
X43500Y24500D02*
D03*
X149000Y31500D02*
D03*
X-95000Y117000D02*
D03*
X-117497Y-98503D02*
D03*
X-61000Y120500D02*
D03*
X-150750Y74750D02*
D03*
Y87000D02*
D03*
X-146000Y-2000D02*
D03*
X-128498Y-28500D02*
D03*
X1700Y93700D02*
D03*
X-27000Y90000D02*
D03*
X-22000Y52000D02*
D03*
X-65500Y-10500D02*
D03*
X47069Y17500D02*
D03*
X43500Y10500D02*
D03*
X42000Y94000D02*
D03*
X-158938Y-109938D02*
D03*
X78938Y-109938D02*
D03*
X139500Y-16000D02*
D03*
X88500Y84500D02*
D03*
X120500Y-124500D02*
D03*
X-15000Y-23000D02*
D03*
X-11000Y-10000D02*
D03*
X-112497Y-93497D02*
D03*
X-97497D02*
D03*
X-82497D02*
D03*
X-67497D02*
D03*
X-52497D02*
D03*
X-37497D02*
D03*
X-22497D02*
D03*
X3500Y-20500D02*
D03*
X-3500Y-25500D02*
D03*
X-7497Y-93497D02*
D03*
X-2497Y-69000D02*
D03*
Y-62000D02*
D03*
X7503Y-93497D02*
D03*
X22503D02*
D03*
X22000Y17500D02*
D03*
X17500Y23500D02*
D03*
X-137620Y40620D02*
D03*
X15500Y94000D02*
D03*
Y75000D02*
D03*
X154500Y-107500D02*
D03*
X130000Y55500D02*
D03*
X149000D02*
D03*
X130000Y-54000D02*
D03*
X140420Y-35500D02*
D03*
X84500Y-97000D02*
D03*
X-25500Y-17500D02*
D03*
X-42500Y-24500D02*
D03*
X10500Y-25500D02*
D03*
X43500Y-10500D02*
D03*
X12500Y59500D02*
D03*
X-67000Y58000D02*
D03*
X-44500Y10500D02*
D03*
X-28858Y48517D02*
D03*
X3500Y45000D02*
D03*
X-3500Y25500D02*
D03*
X-10500Y45000D02*
D03*
X1000Y17500D02*
D03*
X-11000D02*
D03*
X-42888Y-10500D02*
D03*
X139000Y-115000D02*
D03*
X88500Y94000D02*
D03*
D27*
X60500Y-60000D02*
D03*
X51500D02*
D03*
Y-48000D02*
D03*
X60500D02*
D03*
X-67500Y84000D02*
D03*
X-58500D02*
D03*
X154500Y-115000D02*
D03*
X145500D02*
D03*
X84500Y-88000D02*
D03*
X93500D02*
D03*
X106500Y94000D02*
D03*
X97500D02*
D03*
X25500Y75000D02*
D03*
X34500D02*
D03*
X25500Y94000D02*
D03*
X34500D02*
D03*
X-77500Y117000D02*
D03*
X-86500D02*
D03*
X-77500Y130000D02*
D03*
X-86500D02*
D03*
X-58500Y-24500D02*
D03*
X-49500D02*
D03*
X-58500Y-10500D02*
D03*
X-49500D02*
D03*
X-1500Y130000D02*
D03*
X7500D02*
D03*
X3500Y52500D02*
D03*
X12500D02*
D03*
D28*
X-58895Y11500D02*
D03*
Y20500D02*
D03*
X-10500Y29750D02*
D03*
Y38750D02*
D03*
X130000Y-61500D02*
D03*
Y-70500D02*
D03*
X149000Y48000D02*
D03*
Y39000D02*
D03*
X130000Y48000D02*
D03*
Y39000D02*
D03*
X148920Y-35500D02*
D03*
Y-26500D02*
D03*
X-135000Y-37500D02*
D03*
Y-28500D02*
D03*
Y-60500D02*
D03*
Y-51500D02*
D03*
X26000Y-3500D02*
D03*
Y5500D02*
D03*
X14000D02*
D03*
Y-3500D02*
D03*
X-40000Y74500D02*
D03*
Y83500D02*
D03*
X-11000Y-3500D02*
D03*
Y5500D02*
D03*
X-23000Y-3500D02*
D03*
Y5500D02*
D03*
X-27000Y83500D02*
D03*
Y74500D02*
D03*
X-61000Y107500D02*
D03*
Y98500D02*
D03*
X1000Y-3500D02*
D03*
Y5500D02*
D03*
D29*
X52000Y94000D02*
D03*
Y75000D02*
D03*
X79000D02*
D03*
Y84500D02*
D03*
Y94000D02*
D03*
D30*
X-142440Y-109938D02*
D03*
X62440Y-109938D02*
D03*
D31*
X-122497Y-83502D02*
D03*
X-117497D02*
D03*
X-112497D02*
D03*
X-107497D02*
D03*
X-102497D02*
D03*
X-97497D02*
D03*
X-92497D02*
D03*
X-87497D02*
D03*
X-82497D02*
D03*
X-77497D02*
D03*
X-72497D02*
D03*
X-67497D02*
D03*
X-62497D02*
D03*
X-57497D02*
D03*
X-52497D02*
D03*
X-47497D02*
D03*
X-42497D02*
D03*
X-37497D02*
D03*
X-32497D02*
D03*
X-27497D02*
D03*
X-22497D02*
D03*
X-17497D02*
D03*
X-12497D02*
D03*
X-7497D02*
D03*
X-2497D02*
D03*
X2503D02*
D03*
X7503D02*
D03*
X12503D02*
D03*
X17503D02*
D03*
X22503D02*
D03*
X27503D02*
D03*
X32503D02*
D03*
X37503D02*
D03*
X42503D02*
D03*
D32*
X-25000Y120500D02*
D03*
Y130000D02*
D03*
Y139500D02*
D03*
X-51000D02*
D03*
Y130000D02*
D03*
Y120500D02*
D03*
D33*
X8250Y160000D02*
D03*
D34*
X-22500D02*
D03*
D35*
X130000Y-88000D02*
D03*
X111000D02*
D03*
Y-115000D02*
D03*
X120500D02*
D03*
X130000D02*
D03*
X149000Y20500D02*
D03*
X130000D02*
D03*
Y-6500D02*
D03*
X139500D02*
D03*
X149000D02*
D03*
D36*
X2619Y114000D02*
D03*
X18621D02*
D03*
D37*
X-92497Y-58497D02*
D03*
X-62497D02*
D03*
X-55000Y-46000D02*
D03*
X-85000D02*
D03*
X-77763Y-58497D02*
D03*
X-70265Y-46000D02*
D03*
D38*
X-146000Y40620D02*
D03*
Y25380D02*
D03*
X-176000Y40620D02*
D03*
Y25380D02*
D03*
X-161000Y40620D02*
D03*
Y25380D02*
D03*
D39*
X-41500Y58000D02*
D03*
Y36000D02*
D03*
X-56500D02*
D03*
Y58000D02*
D03*
D40*
X44000Y160000D02*
D03*
X76000D02*
D03*
D41*
X-10000Y93700D02*
D03*
Y68300D02*
D03*
D42*
X-51205Y160000D02*
D03*
X-72795D02*
D03*
D43*
X28380Y53000D02*
D03*
X43620D02*
D03*
D44*
X-171000Y-2000D02*
D03*
X-166000D02*
D03*
X-161000D02*
D03*
X-156000D02*
D03*
X-151000D02*
D03*
Y-48000D02*
D03*
X-156000D02*
D03*
X-161000D02*
D03*
X-166000D02*
D03*
X-171000D02*
D03*
D45*
X-161000Y-25000D02*
D03*
D46*
X-100000Y0D02*
D03*
X100000D02*
D03*
M02*
