%FSLAX44Y44*%
%MOMM*%
G71*
G01*
G75*
G04 Layer_Color=2752767*
%ADD10R,0.4000X1.0000*%
%ADD11R,1.0000X0.4000*%
%ADD12R,0.7250X2.3500*%
%ADD13R,3.0000X2.1000*%
%ADD14R,1.6000X0.8000*%
%ADD15C,0.2000*%
%ADD16C,0.2540*%
%ADD17C,0.4000*%
%ADD18C,0.3000*%
%ADD19R,1.1000X0.4000*%
%ADD20R,1.9250X2.3500*%
%ADD21C,4.0000*%
G04:AMPARAMS|DCode=22|XSize=4.7mm|YSize=4mm|CornerRadius=2mm|HoleSize=0mm|Usage=FLASHONLY|Rotation=45.000|XOffset=0mm|YOffset=0mm|HoleType=Round|Shape=RoundedRectangle|*
%AMROUNDEDRECTD22*
21,1,4.7000,0.0000,0,0,45.0*
21,1,0.7000,4.0000,0,0,45.0*
1,1,4.0000,0.2475,0.2475*
1,1,4.0000,-0.2475,-0.2475*
1,1,4.0000,-0.2475,-0.2475*
1,1,4.0000,0.2475,0.2475*
%
%ADD22ROUNDEDRECTD22*%
G04:AMPARAMS|DCode=23|XSize=4.7mm|YSize=4mm|CornerRadius=2mm|HoleSize=0mm|Usage=FLASHONLY|Rotation=-45.000|XOffset=0mm|YOffset=0mm|HoleType=Round|Shape=RoundedRectangle|*
%AMROUNDEDRECTD23*
21,1,4.7000,0.0000,0,0,-45.0*
21,1,0.7000,4.0000,0,0,-45.0*
1,1,4.0000,0.2475,-0.2475*
1,1,4.0000,-0.2475,0.2475*
1,1,4.0000,-0.2475,0.2475*
1,1,4.0000,0.2475,-0.2475*
%
%ADD23ROUNDEDRECTD23*%
%ADD24C,0.5000*%
%ADD25C,0.5000*%
%ADD26C,3.6000*%
%ADD27R,0.5000X0.6000*%
%ADD28R,0.6000X0.5000*%
%ADD29R,1.1000X0.5000*%
%ADD30R,2.1844X2.4130*%
%ADD31R,0.3000X1.1000*%
%ADD32R,1.2700X0.5080*%
%ADD33R,2.4000X1.2500*%
%ADD34R,1.2000X1.2500*%
%ADD35R,0.5000X1.1000*%
%ADD36R,0.8890X1.0160*%
%ADD37C,0.8000*%
%ADD38R,0.8128X0.8128*%
%ADD39R,1.2000X1.4000*%
%ADD40R,1.2000X1.6000*%
%ADD41R,1.2954X1.6002*%
%ADD42R,1.3970X1.3970*%
%ADD43R,0.8128X0.8128*%
%ADD44O,0.3000X1.5000*%
%ADD45R,2.1800X1.7200*%
%ADD46C,4.4000*%
%ADD47C,0.1270*%
%ADD48C,1.4000*%
%ADD49C,0.1200*%
%ADD50C,0.1000*%
%ADD51R,3.2000X3.2000*%
%ADD52R,1.0750X0.6000*%
%ADD53R,1.4000X2.5500*%
%ADD54R,0.6040X1.2040*%
%ADD55R,1.2040X0.6040*%
%ADD56R,0.9290X2.5540*%
%ADD57R,3.2040X2.3040*%
%ADD58R,1.8040X1.0040*%
%ADD59C,4.2040*%
G04:AMPARAMS|DCode=60|XSize=4.904mm|YSize=4.204mm|CornerRadius=2.102mm|HoleSize=0mm|Usage=FLASHONLY|Rotation=45.000|XOffset=0mm|YOffset=0mm|HoleType=Round|Shape=RoundedRectangle|*
%AMROUNDEDRECTD60*
21,1,4.9040,0.0000,0,0,45.0*
21,1,0.7000,4.2040,0,0,45.0*
1,1,4.2040,0.2475,0.2475*
1,1,4.2040,-0.2475,-0.2475*
1,1,4.2040,-0.2475,-0.2475*
1,1,4.2040,0.2475,0.2475*
%
%ADD60ROUNDEDRECTD60*%
G04:AMPARAMS|DCode=61|XSize=4.904mm|YSize=4.204mm|CornerRadius=2.102mm|HoleSize=0mm|Usage=FLASHONLY|Rotation=-45.000|XOffset=0mm|YOffset=0mm|HoleType=Round|Shape=RoundedRectangle|*
%AMROUNDEDRECTD61*
21,1,4.9040,0.0000,0,0,-45.0*
21,1,0.7000,4.2040,0,0,-45.0*
1,1,4.2040,0.2475,-0.2475*
1,1,4.2040,-0.2475,0.2475*
1,1,4.2040,-0.2475,0.2475*
1,1,4.2040,0.2475,-0.2475*
%
%ADD61ROUNDEDRECTD61*%
%ADD62C,0.7040*%
%ADD63R,0.7040X0.8040*%
%ADD64R,0.8040X0.7040*%
%ADD65R,1.3040X0.7040*%
%ADD66R,2.3884X2.6170*%
%ADD67R,0.5040X1.3040*%
%ADD68R,1.4740X0.7120*%
%ADD69R,2.6040X1.4540*%
%ADD70R,1.4040X1.4540*%
%ADD71R,0.7040X1.3040*%
%ADD72R,1.0930X1.2200*%
%ADD73C,1.0040*%
%ADD74R,1.0168X1.0168*%
%ADD75R,1.4040X1.6040*%
%ADD76R,1.4040X1.8040*%
%ADD77R,1.4994X1.8042*%
%ADD78R,1.6010X1.6010*%
%ADD79R,1.0168X1.0168*%
%ADD80O,0.5040X1.7040*%
%ADD81R,2.3840X1.9240*%
%ADD82C,4.6040*%
%ADD83C,0.1250*%
%ADD84C,0.1524*%
%ADD85C,0.1693*%
D47*
X-105080Y-5080D02*
Y5080D01*
X-94920D01*
Y-5080D01*
X-105080D01*
X94920D02*
Y5080D01*
X105080D01*
Y-5080D01*
X94920D01*
X106500Y97920D02*
X101420Y108080D01*
X111580D01*
X106500Y97920D01*
X67000Y-65080D02*
X61920Y-54920D01*
X72080D01*
X67000Y-65080D01*
X-47497Y-79080D02*
X-52577Y-68920D01*
X-42417D01*
X-47497Y-79080D01*
X67000Y-53080D02*
X61920Y-42920D01*
X72080D01*
X67000Y-53080D01*
X-42497Y-74080D02*
X-47577Y-63920D01*
X-37417D01*
X-42497Y-74080D01*
X44000Y-65080D02*
X38920Y-54920D01*
X49080D01*
X44000Y-65080D01*
Y-53080D02*
X38920Y-42920D01*
X49080D01*
X44000Y-53080D01*
X21701Y-51310D02*
X16621Y-41150D01*
X26781D01*
X21701Y-51310D01*
X10000Y-56080D02*
X4920Y-45920D01*
X15080D01*
X10000Y-56080D01*
X1000Y-15080D02*
X-4080Y-4920D01*
X6080D01*
X1000Y-15080D01*
X48500Y-8580D02*
X43420Y1580D01*
X53580D01*
X48500Y-8580D01*
X-23000Y12420D02*
X-28080Y22580D01*
X-17920D01*
X-23000Y12420D01*
X-65500Y-29580D02*
X-70580Y-19420D01*
X-60420D01*
X-65500Y-29580D01*
X-58895Y-1580D02*
X-63975Y8580D01*
X-53815D01*
X-58895Y-1580D01*
X-74000Y78920D02*
X-79080Y89080D01*
X-68920D01*
X-74000Y78920D01*
X-72795Y144125D02*
X-77875Y154285D01*
X-67715D01*
X-72795Y144125D01*
X37500Y-104580D02*
X32420Y-94420D01*
X42580D01*
X37500Y-104580D01*
X42503Y-99577D02*
X37423Y-89417D01*
X47583D01*
X42503Y-99577D01*
X32503Y-99583D02*
X27423Y-89423D01*
X37583D01*
X32503Y-99583D01*
X86000Y154920D02*
X80920Y165080D01*
X91080D01*
X86000Y154920D01*
X-14500Y134420D02*
X-19580Y144580D01*
X-9420D01*
X-14500Y134420D01*
X14000Y124920D02*
X8920Y135080D01*
X19080D01*
X14000Y124920D01*
X27000Y108920D02*
X21920Y119080D01*
X32080D01*
X27000Y108920D01*
X2619Y99920D02*
X-2461Y110080D01*
X7699D01*
X2619Y99920D01*
X-51500Y93420D02*
X-56580Y103580D01*
X-46420D01*
X-51500Y93420D01*
X25000Y154920D02*
X19920Y165080D01*
X30080D01*
X25000Y154920D01*
X-167750Y123670D02*
X-172830Y133830D01*
X-162670D01*
X-167750Y123670D01*
X130000Y-83080D02*
X124920Y-72920D01*
X135080D01*
X130000Y-83080D01*
X149000Y-22080D02*
X143920Y-11920D01*
X154080D01*
X149000Y-22080D01*
X43500Y19420D02*
X38420Y29580D01*
X48580D01*
X43500Y19420D01*
X149000Y26420D02*
X143920Y36580D01*
X154080D01*
X149000Y26420D01*
X-95000Y111920D02*
X-100080Y122080D01*
X-89920D01*
X-95000Y111920D01*
X-117497Y-103583D02*
X-122577Y-93423D01*
X-112417D01*
X-117497Y-103583D01*
X-61000Y115420D02*
X-66080Y125580D01*
X-55920D01*
X-61000Y115420D01*
X-150750Y69670D02*
X-155830Y79830D01*
X-145670D01*
X-150750Y69670D01*
Y81920D02*
X-155830Y92080D01*
X-145670D01*
X-150750Y81920D01*
X-146000Y-7080D02*
X-151080Y3080D01*
X-140920D01*
X-146000Y-7080D01*
X-128498Y-33580D02*
X-133578Y-23420D01*
X-123418D01*
X-128498Y-33580D01*
X1700Y88620D02*
X-3380Y98780D01*
X6780D01*
X1700Y88620D01*
X-27000Y84920D02*
X-32080Y95080D01*
X-21920D01*
X-27000Y84920D01*
X-22000Y46920D02*
X-27080Y57080D01*
X-16920D01*
X-22000Y46920D01*
X-65500Y-15580D02*
X-70580Y-5420D01*
X-60420D01*
X-65500Y-15580D01*
X47069Y12420D02*
X41989Y22580D01*
X52149D01*
X47069Y12420D01*
X43500Y5420D02*
X38420Y15580D01*
X48580D01*
X43500Y5420D01*
X42000Y88920D02*
X36920Y99080D01*
X47080D01*
X42000Y88920D01*
X-158938Y-115018D02*
X-164018Y-104858D01*
X-153858D01*
X-158938Y-115018D01*
X78938Y-115018D02*
X73858Y-104858D01*
X84018D01*
X78938Y-115018D01*
X139500Y-21080D02*
X134420Y-10920D01*
X144580D01*
X139500Y-21080D01*
X88500Y79420D02*
X83420Y89580D01*
X93580D01*
X88500Y79420D01*
X120500Y-129580D02*
X115420Y-119420D01*
X125580D01*
X120500Y-129580D01*
X-15000Y-28080D02*
X-20080Y-17920D01*
X-9920D01*
X-15000Y-28080D01*
X-11000Y-15080D02*
X-16080Y-4920D01*
X-5920D01*
X-11000Y-15080D01*
X-112497Y-98577D02*
X-117577Y-88417D01*
X-107417D01*
X-112497Y-98577D01*
X-97497D02*
X-102577Y-88417D01*
X-92417D01*
X-97497Y-98577D01*
X-82497D02*
X-87577Y-88417D01*
X-77417D01*
X-82497Y-98577D01*
X-67497D02*
X-72577Y-88417D01*
X-62417D01*
X-67497Y-98577D01*
X-52497D02*
X-57577Y-88417D01*
X-47417D01*
X-52497Y-98577D01*
X-37497D02*
X-42577Y-88417D01*
X-32417D01*
X-37497Y-98577D01*
X-22497D02*
X-27577Y-88417D01*
X-17417D01*
X-22497Y-98577D01*
X3500Y-25580D02*
X-1580Y-15420D01*
X8580D01*
X3500Y-25580D01*
X-3500Y-30580D02*
X-8580Y-20420D01*
X1580D01*
X-3500Y-30580D01*
X-7497Y-98577D02*
X-12577Y-88417D01*
X-2417D01*
X-7497Y-98577D01*
X-2497Y-74080D02*
X-7577Y-63920D01*
X2583D01*
X-2497Y-74080D01*
Y-67080D02*
X-7577Y-56920D01*
X2583D01*
X-2497Y-67080D01*
X7503Y-98577D02*
X2423Y-88417D01*
X12583D01*
X7503Y-98577D01*
X22503D02*
X17423Y-88417D01*
X27583D01*
X22503Y-98577D01*
X22000Y12420D02*
X16920Y22580D01*
X27080D01*
X22000Y12420D01*
X17500Y18420D02*
X12420Y28580D01*
X22580D01*
X17500Y18420D01*
X-137620Y35540D02*
X-142700Y45700D01*
X-132540D01*
X-137620Y35540D01*
X15500Y88920D02*
X10420Y99080D01*
X20580D01*
X15500Y88920D01*
Y69920D02*
X10420Y80080D01*
X20580D01*
X15500Y69920D01*
X154500Y-112580D02*
X149420Y-102420D01*
X159580D01*
X154500Y-112580D01*
X130000Y50420D02*
X124920Y60580D01*
X135080D01*
X130000Y50420D01*
X149000D02*
X143920Y60580D01*
X154080D01*
X149000Y50420D01*
X130000Y-59080D02*
X124920Y-48920D01*
X135080D01*
X130000Y-59080D01*
X140420Y-40580D02*
X135340Y-30420D01*
X145500D01*
X140420Y-40580D01*
X84500Y-102080D02*
X79420Y-91920D01*
X89580D01*
X84500Y-102080D01*
X-25500Y-22580D02*
X-30580Y-12420D01*
X-20420D01*
X-25500Y-22580D01*
X-42500Y-29580D02*
X-47580Y-19420D01*
X-37420D01*
X-42500Y-29580D01*
X10500Y-30580D02*
X5420Y-20420D01*
X15580D01*
X10500Y-30580D01*
X43500Y-15580D02*
X38420Y-5420D01*
X48580D01*
X43500Y-15580D01*
X12500Y54420D02*
X7420Y64580D01*
X17580D01*
X12500Y54420D01*
X-67000Y52920D02*
X-72080Y63080D01*
X-61920D01*
X-67000Y52920D01*
X-44500Y5420D02*
X-49580Y15580D01*
X-39420D01*
X-44500Y5420D01*
X-28858Y43438D02*
X-33938Y53597D01*
X-23778D01*
X-28858Y43438D01*
X3500Y39920D02*
X-1580Y50080D01*
X8580D01*
X3500Y39920D01*
X-3500Y20420D02*
X-8580Y30580D01*
X1580D01*
X-3500Y20420D01*
X-10500Y39920D02*
X-15580Y50080D01*
X-5420D01*
X-10500Y39920D01*
X1000Y12420D02*
X-4080Y22580D01*
X6080D01*
X1000Y12420D01*
X-11000D02*
X-16080Y22580D01*
X-5920D01*
X-11000Y12420D01*
X-42888Y-15580D02*
X-47968Y-5420D01*
X-37808D01*
X-42888Y-15580D01*
X139000Y-120080D02*
X133920Y-109920D01*
X144080D01*
X139000Y-120080D01*
X88500Y88920D02*
X83420Y99080D01*
X93580D01*
X88500Y88920D01*
D85*
X170080Y165000D02*
G03*
X170080Y165000I-5080J0D01*
G01*
Y-165000D02*
G03*
X170080Y-165000I-5080J0D01*
G01*
X-159920D02*
G03*
X-159920Y-165000I-5080J0D01*
G01*
Y165000D02*
G03*
X-159920Y165000I-5080J0D01*
G01*
M02*
