%FSLAX44Y44*%
%MOMM*%
G71*
G01*
G75*
G04 Layer_Color=255*
%ADD10R,0.4000X1.0000*%
%ADD11R,1.0000X0.4000*%
%ADD12R,0.7250X2.3500*%
%ADD13R,3.0000X2.1000*%
%ADD14R,1.6000X0.8000*%
%ADD15C,0.2000*%
%ADD16C,0.2540*%
%ADD17C,0.4000*%
%ADD18C,0.3000*%
%ADD19R,1.1000X0.4000*%
%ADD20R,1.9250X2.3500*%
%ADD21C,4.0000*%
G04:AMPARAMS|DCode=22|XSize=4.7mm|YSize=4mm|CornerRadius=2mm|HoleSize=0mm|Usage=FLASHONLY|Rotation=45.000|XOffset=0mm|YOffset=0mm|HoleType=Round|Shape=RoundedRectangle|*
%AMROUNDEDRECTD22*
21,1,4.7000,0.0000,0,0,45.0*
21,1,0.7000,4.0000,0,0,45.0*
1,1,4.0000,0.2475,0.2475*
1,1,4.0000,-0.2475,-0.2475*
1,1,4.0000,-0.2475,-0.2475*
1,1,4.0000,0.2475,0.2475*
%
%ADD22ROUNDEDRECTD22*%
G04:AMPARAMS|DCode=23|XSize=4.7mm|YSize=4mm|CornerRadius=2mm|HoleSize=0mm|Usage=FLASHONLY|Rotation=-45.000|XOffset=0mm|YOffset=0mm|HoleType=Round|Shape=RoundedRectangle|*
%AMROUNDEDRECTD23*
21,1,4.7000,0.0000,0,0,-45.0*
21,1,0.7000,4.0000,0,0,-45.0*
1,1,4.0000,0.2475,-0.2475*
1,1,4.0000,-0.2475,0.2475*
1,1,4.0000,-0.2475,0.2475*
1,1,4.0000,0.2475,-0.2475*
%
%ADD23ROUNDEDRECTD23*%
%ADD24C,0.5000*%
%ADD25C,0.5000*%
%ADD26C,3.6000*%
%ADD27R,0.5000X0.6000*%
%ADD28R,0.6000X0.5000*%
%ADD29R,1.1000X0.5000*%
%ADD30R,2.1844X2.4130*%
%ADD31R,0.3000X1.1000*%
%ADD32R,1.2700X0.5080*%
%ADD33R,2.4000X1.2500*%
%ADD34R,1.2000X1.2500*%
%ADD35R,0.5000X1.1000*%
%ADD36R,0.8890X1.0160*%
%ADD37C,0.8000*%
%ADD38R,0.8128X0.8128*%
%ADD39R,1.2000X1.4000*%
%ADD40R,1.2000X1.6000*%
%ADD41R,1.2954X1.6002*%
%ADD42R,1.3970X1.3970*%
%ADD43R,0.8128X0.8128*%
%ADD44O,0.3000X1.5000*%
%ADD45R,2.1800X1.7200*%
%ADD46C,4.4000*%
D22*
X165000Y165000D02*
D03*
X-165000Y-165000D02*
D03*
D23*
X165000D02*
D03*
X-165000Y165000D02*
D03*
D27*
X60500Y-60000D02*
D03*
X51500D02*
D03*
Y-48000D02*
D03*
X60500D02*
D03*
X-67500Y84000D02*
D03*
X-58500D02*
D03*
X154500Y-115000D02*
D03*
X145500D02*
D03*
X84500Y-88000D02*
D03*
X93500D02*
D03*
X106500Y94000D02*
D03*
X97500D02*
D03*
X25500Y75000D02*
D03*
X34500D02*
D03*
X25500Y94000D02*
D03*
X34500D02*
D03*
X-77500Y117000D02*
D03*
X-86500D02*
D03*
X-77500Y130000D02*
D03*
X-86500D02*
D03*
X-58500Y-24500D02*
D03*
X-49500D02*
D03*
X-58500Y-10500D02*
D03*
X-49500D02*
D03*
X-1500Y130000D02*
D03*
X7500D02*
D03*
X3500Y52500D02*
D03*
X12500D02*
D03*
D28*
X-58895Y11500D02*
D03*
Y20500D02*
D03*
X-10500Y29750D02*
D03*
Y38750D02*
D03*
X130000Y-61500D02*
D03*
Y-70500D02*
D03*
X149000Y48000D02*
D03*
Y39000D02*
D03*
X130000Y48000D02*
D03*
Y39000D02*
D03*
X148920Y-35500D02*
D03*
Y-26500D02*
D03*
X-135000Y-37500D02*
D03*
Y-28500D02*
D03*
Y-60500D02*
D03*
Y-51500D02*
D03*
X26000Y-3500D02*
D03*
Y5500D02*
D03*
X14000D02*
D03*
Y-3500D02*
D03*
X-40000Y74500D02*
D03*
Y83500D02*
D03*
X-11000Y-3500D02*
D03*
Y5500D02*
D03*
X-23000Y-3500D02*
D03*
Y5500D02*
D03*
X-27000Y83500D02*
D03*
Y74500D02*
D03*
X-61000Y107500D02*
D03*
Y98500D02*
D03*
X1000Y-3500D02*
D03*
Y5500D02*
D03*
D29*
X52000Y94000D02*
D03*
Y75000D02*
D03*
X79000D02*
D03*
Y84500D02*
D03*
Y94000D02*
D03*
D30*
X-142440Y-109938D02*
D03*
X62440Y-109938D02*
D03*
D31*
X-122497Y-83502D02*
D03*
X-117497D02*
D03*
X-112497D02*
D03*
X-107497D02*
D03*
X-102497D02*
D03*
X-97497D02*
D03*
X-92497D02*
D03*
X-87497D02*
D03*
X-82497D02*
D03*
X-77497D02*
D03*
X-72497D02*
D03*
X-67497D02*
D03*
X-62497D02*
D03*
X-57497D02*
D03*
X-52497D02*
D03*
X-47497D02*
D03*
X-42497D02*
D03*
X-37497D02*
D03*
X-32497D02*
D03*
X-27497D02*
D03*
X-22497D02*
D03*
X-17497D02*
D03*
X-12497D02*
D03*
X-7497D02*
D03*
X-2497D02*
D03*
X2503D02*
D03*
X7503D02*
D03*
X12503D02*
D03*
X17503D02*
D03*
X22503D02*
D03*
X27503D02*
D03*
X32503D02*
D03*
X37503D02*
D03*
X42503D02*
D03*
D32*
X-25000Y120500D02*
D03*
Y130000D02*
D03*
Y139500D02*
D03*
X-51000D02*
D03*
Y130000D02*
D03*
Y120500D02*
D03*
D33*
X8250Y160000D02*
D03*
D34*
X-22500D02*
D03*
D35*
X130000Y-88000D02*
D03*
X111000D02*
D03*
Y-115000D02*
D03*
X120500D02*
D03*
X130000D02*
D03*
X149000Y20500D02*
D03*
X130000D02*
D03*
Y-6500D02*
D03*
X139500D02*
D03*
X149000D02*
D03*
D36*
X2619Y114000D02*
D03*
X18621D02*
D03*
D37*
X-92497Y-58497D02*
D03*
X-62497D02*
D03*
X-55000Y-46000D02*
D03*
X-85000D02*
D03*
X-77763Y-58497D02*
D03*
X-70265Y-46000D02*
D03*
D38*
X-146000Y40620D02*
D03*
Y25380D02*
D03*
X-176000Y40620D02*
D03*
Y25380D02*
D03*
X-161000Y40620D02*
D03*
Y25380D02*
D03*
D39*
X-41500Y58000D02*
D03*
Y36000D02*
D03*
X-56500D02*
D03*
Y58000D02*
D03*
D40*
X44000Y160000D02*
D03*
X76000D02*
D03*
D41*
X-10000Y93700D02*
D03*
Y68300D02*
D03*
D42*
X-51205Y160000D02*
D03*
X-72795D02*
D03*
D43*
X28380Y53000D02*
D03*
X43620D02*
D03*
D44*
X-171000Y-2000D02*
D03*
X-166000D02*
D03*
X-161000D02*
D03*
X-156000D02*
D03*
X-151000D02*
D03*
Y-48000D02*
D03*
X-156000D02*
D03*
X-161000D02*
D03*
X-166000D02*
D03*
X-171000D02*
D03*
D45*
X-161000Y-25000D02*
D03*
D46*
X-100000Y0D02*
D03*
X100000D02*
D03*
M02*
