%FSLAX44Y44*%
%MOMM*%
G71*
G01*
G75*
G04 Layer_Color=8388736*
%ADD10R,0.4000X1.0000*%
%ADD11R,1.0000X0.4000*%
%ADD12R,0.7250X2.3500*%
%ADD13R,3.0000X2.1000*%
%ADD14R,1.6000X0.8000*%
%ADD15C,0.2000*%
%ADD16C,0.2540*%
%ADD17C,0.4000*%
%ADD18C,0.3000*%
%ADD19R,1.1000X0.4000*%
%ADD20R,1.9250X2.3500*%
%ADD21C,4.0000*%
G04:AMPARAMS|DCode=22|XSize=4.7mm|YSize=4mm|CornerRadius=2mm|HoleSize=0mm|Usage=FLASHONLY|Rotation=45.000|XOffset=0mm|YOffset=0mm|HoleType=Round|Shape=RoundedRectangle|*
%AMROUNDEDRECTD22*
21,1,4.7000,0.0000,0,0,45.0*
21,1,0.7000,4.0000,0,0,45.0*
1,1,4.0000,0.2475,0.2475*
1,1,4.0000,-0.2475,-0.2475*
1,1,4.0000,-0.2475,-0.2475*
1,1,4.0000,0.2475,0.2475*
%
%ADD22ROUNDEDRECTD22*%
G04:AMPARAMS|DCode=23|XSize=4.7mm|YSize=4mm|CornerRadius=2mm|HoleSize=0mm|Usage=FLASHONLY|Rotation=-45.000|XOffset=0mm|YOffset=0mm|HoleType=Round|Shape=RoundedRectangle|*
%AMROUNDEDRECTD23*
21,1,4.7000,0.0000,0,0,-45.0*
21,1,0.7000,4.0000,0,0,-45.0*
1,1,4.0000,0.2475,-0.2475*
1,1,4.0000,-0.2475,0.2475*
1,1,4.0000,-0.2475,0.2475*
1,1,4.0000,0.2475,-0.2475*
%
%ADD23ROUNDEDRECTD23*%
%ADD24C,0.5000*%
%ADD25C,0.5000*%
%ADD26C,3.6000*%
%ADD27R,0.5000X0.6000*%
%ADD28R,0.6000X0.5000*%
%ADD29R,1.1000X0.5000*%
%ADD30R,2.1844X2.4130*%
%ADD31R,0.3000X1.1000*%
%ADD32R,1.2700X0.5080*%
%ADD33R,2.4000X1.2500*%
%ADD34R,1.2000X1.2500*%
%ADD35R,0.5000X1.1000*%
%ADD36R,0.8890X1.0160*%
%ADD37C,0.8000*%
%ADD38R,0.8128X0.8128*%
%ADD39R,1.2000X1.4000*%
%ADD40R,1.2000X1.6000*%
%ADD41R,1.2954X1.6002*%
%ADD42R,1.3970X1.3970*%
%ADD43R,0.8128X0.8128*%
%ADD44O,0.3000X1.5000*%
%ADD45R,2.1800X1.7200*%
%ADD46C,4.4000*%
%ADD47C,0.1270*%
%ADD48C,1.4000*%
%ADD49C,0.1200*%
%ADD50C,0.1000*%
%ADD51R,3.2000X3.2000*%
%ADD52R,1.0750X0.6000*%
%ADD53R,1.4000X2.5500*%
%ADD54R,0.6040X1.2040*%
%ADD55R,1.2040X0.6040*%
%ADD56R,0.9290X2.5540*%
%ADD57R,3.2040X2.3040*%
%ADD58R,1.8040X1.0040*%
%ADD59C,4.2040*%
G04:AMPARAMS|DCode=60|XSize=4.904mm|YSize=4.204mm|CornerRadius=2.102mm|HoleSize=0mm|Usage=FLASHONLY|Rotation=45.000|XOffset=0mm|YOffset=0mm|HoleType=Round|Shape=RoundedRectangle|*
%AMROUNDEDRECTD60*
21,1,4.9040,0.0000,0,0,45.0*
21,1,0.7000,4.2040,0,0,45.0*
1,1,4.2040,0.2475,0.2475*
1,1,4.2040,-0.2475,-0.2475*
1,1,4.2040,-0.2475,-0.2475*
1,1,4.2040,0.2475,0.2475*
%
%ADD60ROUNDEDRECTD60*%
G04:AMPARAMS|DCode=61|XSize=4.904mm|YSize=4.204mm|CornerRadius=2.102mm|HoleSize=0mm|Usage=FLASHONLY|Rotation=-45.000|XOffset=0mm|YOffset=0mm|HoleType=Round|Shape=RoundedRectangle|*
%AMROUNDEDRECTD61*
21,1,4.9040,0.0000,0,0,-45.0*
21,1,0.7000,4.2040,0,0,-45.0*
1,1,4.2040,0.2475,-0.2475*
1,1,4.2040,-0.2475,0.2475*
1,1,4.2040,-0.2475,0.2475*
1,1,4.2040,0.2475,-0.2475*
%
%ADD61ROUNDEDRECTD61*%
%ADD62C,0.7040*%
D52*
X-22875Y-3500D02*
D03*
D53*
X-103750Y60000D02*
D03*
X103750Y60000D02*
D03*
X103750Y-60000D02*
D03*
X-103750D02*
D03*
D54*
X24500Y34250D02*
D03*
X17500D02*
D03*
X10500D02*
D03*
X-17500D02*
D03*
X-10500D02*
D03*
X-3500D02*
D03*
X3500D02*
D03*
X24500Y-34250D02*
D03*
X17500D02*
D03*
X10500D02*
D03*
X-17500D02*
D03*
X-10500D02*
D03*
X-3500D02*
D03*
X3500D02*
D03*
X-24500D02*
D03*
Y34250D02*
D03*
D55*
X34250Y-3500D02*
D03*
Y3500D02*
D03*
Y10500D02*
D03*
Y17500D02*
D03*
Y24500D02*
D03*
Y-10500D02*
D03*
Y-17500D02*
D03*
Y-24500D02*
D03*
X-34250D02*
D03*
Y-17500D02*
D03*
Y-10500D02*
D03*
Y24500D02*
D03*
Y17500D02*
D03*
Y10500D02*
D03*
Y3500D02*
D03*
Y-3500D02*
D03*
D56*
X-93000Y60000D02*
D03*
X-119000D02*
D03*
X93000D02*
D03*
X119000D02*
D03*
X93000Y-60000D02*
D03*
X119000D02*
D03*
X-93000D02*
D03*
X-119000D02*
D03*
D57*
X-167750Y112750D02*
D03*
Y49250D02*
D03*
D58*
X-138750Y74750D02*
D03*
Y87250D02*
D03*
D59*
X-100000Y0D02*
D03*
X100000D02*
D03*
D60*
X165000Y165000D02*
D03*
X-165000Y-165000D02*
D03*
D61*
X165000D02*
D03*
X-165000Y165000D02*
D03*
D62*
X106500Y103000D02*
D03*
X67000Y-60000D02*
D03*
X-47497Y-74000D02*
D03*
X67000Y-48000D02*
D03*
X-42497Y-69000D02*
D03*
X44000Y-60000D02*
D03*
Y-48000D02*
D03*
X21701Y-46230D02*
D03*
X10000Y-51000D02*
D03*
X1000Y-10000D02*
D03*
X48500Y-3500D02*
D03*
X-23000Y17500D02*
D03*
X-65500Y-24500D02*
D03*
X-58895Y3500D02*
D03*
X-74000Y84000D02*
D03*
X-72795Y149205D02*
D03*
X37500Y-99500D02*
D03*
X42503Y-94497D02*
D03*
X32503Y-94503D02*
D03*
X86000Y160000D02*
D03*
X-14500Y139500D02*
D03*
X14000Y130000D02*
D03*
X27000Y114000D02*
D03*
X2619Y105000D02*
D03*
X-51500Y98500D02*
D03*
X25000Y160000D02*
D03*
X-167750Y128750D02*
D03*
X130000Y-78000D02*
D03*
X149000Y-17000D02*
D03*
X43500Y24500D02*
D03*
X149000Y31500D02*
D03*
X-95000Y117000D02*
D03*
X-117497Y-98503D02*
D03*
X-61000Y120500D02*
D03*
X-150750Y74750D02*
D03*
Y87000D02*
D03*
X-146000Y-2000D02*
D03*
X-128498Y-28500D02*
D03*
X1700Y93700D02*
D03*
X-27000Y90000D02*
D03*
X-22000Y52000D02*
D03*
X-65500Y-10500D02*
D03*
X47069Y17500D02*
D03*
X43500Y10500D02*
D03*
X42000Y94000D02*
D03*
X-158938Y-109938D02*
D03*
X78938Y-109938D02*
D03*
X139500Y-16000D02*
D03*
X88500Y84500D02*
D03*
X120500Y-124500D02*
D03*
X-15000Y-23000D02*
D03*
X-11000Y-10000D02*
D03*
X-112497Y-93497D02*
D03*
X-97497D02*
D03*
X-82497D02*
D03*
X-67497D02*
D03*
X-52497D02*
D03*
X-37497D02*
D03*
X-22497D02*
D03*
X3500Y-20500D02*
D03*
X-3500Y-25500D02*
D03*
X-7497Y-93497D02*
D03*
X-2497Y-69000D02*
D03*
Y-62000D02*
D03*
X7503Y-93497D02*
D03*
X22503D02*
D03*
X22000Y17500D02*
D03*
X17500Y23500D02*
D03*
X-137620Y40620D02*
D03*
X15500Y94000D02*
D03*
Y75000D02*
D03*
X154500Y-107500D02*
D03*
X130000Y55500D02*
D03*
X149000D02*
D03*
X130000Y-54000D02*
D03*
X140420Y-35500D02*
D03*
X84500Y-97000D02*
D03*
X-25500Y-17500D02*
D03*
X-42500Y-24500D02*
D03*
X10500Y-25500D02*
D03*
X43500Y-10500D02*
D03*
X12500Y59500D02*
D03*
X-67000Y58000D02*
D03*
X-44500Y10500D02*
D03*
X-28858Y48517D02*
D03*
X3500Y45000D02*
D03*
X-3500Y25500D02*
D03*
X-10500Y45000D02*
D03*
X1000Y17500D02*
D03*
X-11000D02*
D03*
X-42888Y-10500D02*
D03*
X139000Y-115000D02*
D03*
X88500Y94000D02*
D03*
M02*
