%FSLAX44Y44*%
%MOMM*%
G71*
G01*
G75*
G04 Layer_Physical_Order=3*
G04 Layer_Color=16440176*
%ADD10R,0.4000X1.0000*%
%ADD11R,1.0000X0.4000*%
%ADD12R,0.7250X2.3500*%
%ADD13R,3.0000X2.1000*%
%ADD14R,1.6000X0.8000*%
%ADD15C,0.2000*%
%ADD16C,0.2540*%
%ADD17C,0.4000*%
%ADD18C,0.3000*%
%ADD19R,1.1000X0.4000*%
%ADD20R,1.9250X2.3500*%
%ADD21C,4.0000*%
G04:AMPARAMS|DCode=22|XSize=4.7mm|YSize=4mm|CornerRadius=2mm|HoleSize=0mm|Usage=FLASHONLY|Rotation=45.000|XOffset=0mm|YOffset=0mm|HoleType=Round|Shape=RoundedRectangle|*
%AMROUNDEDRECTD22*
21,1,4.7000,0.0000,0,0,45.0*
21,1,0.7000,4.0000,0,0,45.0*
1,1,4.0000,0.2475,0.2475*
1,1,4.0000,-0.2475,-0.2475*
1,1,4.0000,-0.2475,-0.2475*
1,1,4.0000,0.2475,0.2475*
%
%ADD22ROUNDEDRECTD22*%
G04:AMPARAMS|DCode=23|XSize=4.7mm|YSize=4mm|CornerRadius=2mm|HoleSize=0mm|Usage=FLASHONLY|Rotation=-45.000|XOffset=0mm|YOffset=0mm|HoleType=Round|Shape=RoundedRectangle|*
%AMROUNDEDRECTD23*
21,1,4.7000,0.0000,0,0,-45.0*
21,1,0.7000,4.0000,0,0,-45.0*
1,1,4.0000,0.2475,-0.2475*
1,1,4.0000,-0.2475,0.2475*
1,1,4.0000,-0.2475,0.2475*
1,1,4.0000,0.2475,-0.2475*
%
%ADD23ROUNDEDRECTD23*%
%ADD24C,0.5000*%
%ADD25C,0.5000*%
%ADD26C,3.6000*%
G36*
X158692Y186855D02*
X159000Y185623D01*
X156310Y184185D01*
X153264Y181685D01*
X151687Y180109D01*
X165898Y165898D01*
X180109Y151687D01*
X181685Y153264D01*
X184185Y156310D01*
X185709Y159162D01*
X186941Y158853D01*
Y-158853D01*
X185709Y-159162D01*
X184185Y-156310D01*
X181685Y-153264D01*
X180109Y-151687D01*
X165898Y-165898D01*
X151687Y-180109D01*
X153264Y-181685D01*
X156310Y-184185D01*
X159000Y-185623D01*
X158692Y-186855D01*
X-158692Y-186855D01*
X-159000Y-185623D01*
X-156310Y-184185D01*
X-153264Y-181685D01*
X-151687Y-180109D01*
X-165898Y-165898D01*
X-180109Y-151687D01*
X-181685Y-153264D01*
X-184185Y-156310D01*
X-185709Y-159162D01*
X-186941Y-158853D01*
Y158853D01*
X-185709Y159162D01*
X-184185Y156310D01*
X-181685Y153264D01*
X-180109Y151687D01*
X-165898Y165898D01*
X-151687Y180109D01*
X-153264Y181685D01*
X-156310Y184185D01*
X-159000Y185623D01*
X-158692Y186855D01*
X158692Y186855D01*
D02*
G37*
%LPC*%
G36*
X139150Y-33342D02*
X138618Y-33698D01*
X138262Y-34230D01*
X139150D01*
Y-33342D01*
D02*
G37*
G36*
X-129768Y-29770D02*
X-130656D01*
X-130301Y-30302D01*
X-129768Y-30658D01*
Y-29770D01*
D02*
G37*
G36*
X141690Y-33342D02*
Y-34230D01*
X142578D01*
X142222Y-33698D01*
X141690Y-33342D01*
D02*
G37*
G36*
X21701Y-42661D02*
X20336Y-42933D01*
X19178Y-43707D01*
X18404Y-44864D01*
X18133Y-46230D01*
X18404Y-47596D01*
X19178Y-48753D01*
X20336Y-49527D01*
X21701Y-49799D01*
X23067Y-49527D01*
X24225Y-48753D01*
X24998Y-47596D01*
X25270Y-46230D01*
X24998Y-44864D01*
X24225Y-43707D01*
X23067Y-42933D01*
X21701Y-42661D01*
D02*
G37*
G36*
X67000Y-44431D02*
X65634Y-44703D01*
X64477Y-45477D01*
X63703Y-46634D01*
X63431Y-48000D01*
X63703Y-49366D01*
X64477Y-50523D01*
X65634Y-51297D01*
X67000Y-51569D01*
X68366Y-51297D01*
X69523Y-50523D01*
X70297Y-49366D01*
X70569Y-48000D01*
X70297Y-46634D01*
X69523Y-45477D01*
X68366Y-44703D01*
X67000Y-44431D01*
D02*
G37*
G36*
X142578Y-36770D02*
X141690D01*
Y-37658D01*
X142222Y-37302D01*
X142578Y-36770D01*
D02*
G37*
G36*
X139150D02*
X138262D01*
X138618Y-37302D01*
X139150Y-37658D01*
Y-36770D01*
D02*
G37*
G36*
X-126340Y-29770D02*
X-127228D01*
Y-30658D01*
X-126696Y-30302D01*
X-126340Y-29770D01*
D02*
G37*
G36*
X-129768Y-26342D02*
X-130301Y-26698D01*
X-130656Y-27230D01*
X-129768D01*
Y-26342D01*
D02*
G37*
G36*
X-127228D02*
Y-27230D01*
X-126340D01*
X-126696Y-26698D01*
X-127228Y-26342D01*
D02*
G37*
G36*
X-66770Y-25770D02*
X-67658D01*
X-67302Y-26302D01*
X-66770Y-26658D01*
Y-25770D01*
D02*
G37*
G36*
X12658Y-26770D02*
X11770D01*
Y-27658D01*
X12302Y-27302D01*
X12658Y-26770D01*
D02*
G37*
G36*
X-3500Y-21931D02*
X-4866Y-22203D01*
X-6023Y-22977D01*
X-6797Y-24134D01*
X-7068Y-25500D01*
X-6797Y-26866D01*
X-6023Y-28023D01*
X-4866Y-28797D01*
X-3500Y-29069D01*
X-2134Y-28797D01*
X-977Y-28023D01*
X-203Y-26866D01*
X69Y-25500D01*
X-203Y-24134D01*
X-977Y-22977D01*
X-2134Y-22203D01*
X-3500Y-21931D01*
D02*
G37*
G36*
X-42500Y-20931D02*
X-43866Y-21203D01*
X-45023Y-21977D01*
X-45797Y-23134D01*
X-46069Y-24500D01*
X-45797Y-25866D01*
X-45023Y-27023D01*
X-43866Y-27797D01*
X-42500Y-28069D01*
X-41134Y-27797D01*
X-39977Y-27023D01*
X-39203Y-25866D01*
X-38931Y-24500D01*
X-39203Y-23134D01*
X-39977Y-21977D01*
X-41134Y-21203D01*
X-42500Y-20931D01*
D02*
G37*
G36*
X9230Y-26770D02*
X8342D01*
X8698Y-27302D01*
X9230Y-27658D01*
Y-26770D01*
D02*
G37*
G36*
X130000Y-74431D02*
X128634Y-74703D01*
X127477Y-75477D01*
X126703Y-76634D01*
X126431Y-78000D01*
X126703Y-79366D01*
X127477Y-80523D01*
X128634Y-81297D01*
X130000Y-81568D01*
X131366Y-81297D01*
X132523Y-80523D01*
X133297Y-79366D01*
X133569Y-78000D01*
X133297Y-76634D01*
X132523Y-75477D01*
X131366Y-74703D01*
X130000Y-74431D01*
D02*
G37*
G36*
X-2497Y-58431D02*
X-3863Y-58703D01*
X-5020Y-59477D01*
X-5794Y-60634D01*
X-6066Y-62000D01*
X-5794Y-63366D01*
X-5020Y-64523D01*
X-4509Y-64865D01*
Y-66135D01*
X-5020Y-66477D01*
X-5794Y-67634D01*
X-6066Y-69000D01*
X-5794Y-70366D01*
X-5020Y-71523D01*
X-3863Y-72297D01*
X-2497Y-72569D01*
X-1132Y-72297D01*
X26Y-71523D01*
X800Y-70366D01*
X1071Y-69000D01*
X800Y-67634D01*
X26Y-66477D01*
X-485Y-66135D01*
Y-64865D01*
X26Y-64523D01*
X800Y-63366D01*
X1071Y-62000D01*
X800Y-60634D01*
X26Y-59477D01*
X-1132Y-58703D01*
X-2497Y-58431D01*
D02*
G37*
G36*
X-42497Y-65431D02*
X-43863Y-65703D01*
X-45020Y-66477D01*
X-45794Y-67634D01*
X-46066Y-69000D01*
X-45933Y-69666D01*
X-46831Y-70564D01*
X-47497Y-70431D01*
X-48863Y-70703D01*
X-50020Y-71477D01*
X-50794Y-72634D01*
X-51066Y-74000D01*
X-50794Y-75366D01*
X-50020Y-76523D01*
X-48863Y-77297D01*
X-47497Y-77569D01*
X-46132Y-77297D01*
X-44974Y-76523D01*
X-44200Y-75366D01*
X-43929Y-74000D01*
X-44061Y-73334D01*
X-43163Y-72436D01*
X-42497Y-72569D01*
X-41132Y-72297D01*
X-39974Y-71523D01*
X-39200Y-70366D01*
X-38929Y-69000D01*
X-39200Y-67634D01*
X-39974Y-66477D01*
X-41132Y-65703D01*
X-42497Y-65431D01*
D02*
G37*
G36*
X23773Y-91339D02*
Y-92227D01*
X24661D01*
X24305Y-91695D01*
X23773Y-91339D01*
D02*
G37*
G36*
X6233D02*
X5700Y-91695D01*
X5345Y-92227D01*
X6233D01*
Y-91339D01*
D02*
G37*
G36*
X8773D02*
Y-92227D01*
X9661D01*
X9305Y-91695D01*
X8773Y-91339D01*
D02*
G37*
G36*
X21233D02*
X20700Y-91695D01*
X20345Y-92227D01*
X21233D01*
Y-91339D01*
D02*
G37*
G36*
X44000Y-56431D02*
X42634Y-56703D01*
X41477Y-57477D01*
X40703Y-58634D01*
X40431Y-60000D01*
X40703Y-61366D01*
X41477Y-62523D01*
X42634Y-63297D01*
X44000Y-63569D01*
X45366Y-63297D01*
X46523Y-62523D01*
X47297Y-61366D01*
X47569Y-60000D01*
X47297Y-58634D01*
X46523Y-57477D01*
X45366Y-56703D01*
X44000Y-56431D01*
D02*
G37*
G36*
X128730Y-51842D02*
X128198Y-52198D01*
X127842Y-52730D01*
X128730D01*
Y-51842D01*
D02*
G37*
G36*
X131270D02*
Y-52730D01*
X132158D01*
X131802Y-52198D01*
X131270Y-51842D01*
D02*
G37*
G36*
X44000Y-44431D02*
X42634Y-44703D01*
X41477Y-45477D01*
X40703Y-46634D01*
X40431Y-48000D01*
X40703Y-49366D01*
X41477Y-50523D01*
X42634Y-51297D01*
X44000Y-51569D01*
X45366Y-51297D01*
X46523Y-50523D01*
X47297Y-49366D01*
X47569Y-48000D01*
X47297Y-46634D01*
X46523Y-45477D01*
X45366Y-44703D01*
X44000Y-44431D01*
D02*
G37*
G36*
X10000Y-47431D02*
X8634Y-47703D01*
X7477Y-48477D01*
X6703Y-49634D01*
X6431Y-51000D01*
X6703Y-52366D01*
X7477Y-53523D01*
X8634Y-54297D01*
X10000Y-54569D01*
X11366Y-54297D01*
X12523Y-53523D01*
X13297Y-52366D01*
X13569Y-51000D01*
X13297Y-49634D01*
X12523Y-48477D01*
X11366Y-47703D01*
X10000Y-47431D01*
D02*
G37*
G36*
X67000Y-56431D02*
X65634Y-56703D01*
X64477Y-57477D01*
X63703Y-58634D01*
X63431Y-60000D01*
X63703Y-61366D01*
X64477Y-62523D01*
X65634Y-63297D01*
X67000Y-63569D01*
X68366Y-63297D01*
X69523Y-62523D01*
X70297Y-61366D01*
X70569Y-60000D01*
X70297Y-58634D01*
X69523Y-57477D01*
X68366Y-56703D01*
X67000Y-56431D01*
D02*
G37*
G36*
X128730Y-55270D02*
X127842D01*
X128198Y-55802D01*
X128730Y-56158D01*
Y-55270D01*
D02*
G37*
G36*
X132158D02*
X131270D01*
Y-56158D01*
X131802Y-55802D01*
X132158Y-55270D01*
D02*
G37*
G36*
X-63342Y-25770D02*
X-64230D01*
Y-26658D01*
X-63698Y-26302D01*
X-63342Y-25770D01*
D02*
G37*
G36*
X-24230Y-15342D02*
Y-16230D01*
X-23342D01*
X-23698Y-15698D01*
X-24230Y-15342D01*
D02*
G37*
G36*
X138230Y-13842D02*
X137698Y-14198D01*
X137342Y-14730D01*
X138230D01*
Y-13842D01*
D02*
G37*
G36*
X140770D02*
Y-14730D01*
X141658D01*
X141302Y-14198D01*
X140770Y-13842D01*
D02*
G37*
G36*
X-26770Y-15342D02*
X-27302Y-15698D01*
X-27658Y-16230D01*
X-26770D01*
Y-15342D01*
D02*
G37*
G36*
X-82038Y-1270D02*
X-98730D01*
Y-17962D01*
X-96471Y-17739D01*
X-93078Y-16710D01*
X-89951Y-15039D01*
X-87211Y-12789D01*
X-84961Y-10049D01*
X-83290Y-6922D01*
X-82261Y-3529D01*
X-82038Y-1270D01*
D02*
G37*
G36*
X98730D02*
X82038D01*
X82260Y-3529D01*
X83290Y-6922D01*
X84961Y-10049D01*
X87210Y-12789D01*
X89951Y-15039D01*
X93078Y-16710D01*
X96471Y-17739D01*
X98730Y-17962D01*
Y-1270D01*
D02*
G37*
G36*
X117962D02*
X101270D01*
Y-17962D01*
X103529Y-17739D01*
X106922Y-16710D01*
X110049Y-15039D01*
X112789Y-12789D01*
X115039Y-10049D01*
X116710Y-6922D01*
X117739Y-3529D01*
X117962Y-1270D01*
D02*
G37*
G36*
X-42888Y-6931D02*
X-44254Y-7203D01*
X-45412Y-7977D01*
X-46185Y-9134D01*
X-46457Y-10500D01*
X-46185Y-11866D01*
X-45412Y-13023D01*
X-44254Y-13797D01*
X-42888Y-14069D01*
X-41522Y-13797D01*
X-40365Y-13023D01*
X-39591Y-11866D01*
X-39320Y-10500D01*
X-39591Y-9134D01*
X-40365Y-7977D01*
X-41522Y-7203D01*
X-42888Y-6931D01*
D02*
G37*
G36*
X-12270Y-11270D02*
X-13158D01*
X-12802Y-11802D01*
X-12270Y-12158D01*
Y-11270D01*
D02*
G37*
G36*
X-8842D02*
X-9730D01*
Y-12158D01*
X-9198Y-11802D01*
X-8842Y-11270D01*
D02*
G37*
G36*
X-270D02*
X-1158D01*
X-802Y-11802D01*
X-270Y-12158D01*
Y-11270D01*
D02*
G37*
G36*
X45658Y-11770D02*
X44770D01*
Y-12658D01*
X45302Y-12302D01*
X45658Y-11770D01*
D02*
G37*
G36*
X-66770D02*
X-67658D01*
X-67302Y-12302D01*
X-66770Y-12658D01*
Y-11770D01*
D02*
G37*
G36*
X-63342D02*
X-64230D01*
Y-12658D01*
X-63698Y-12302D01*
X-63342Y-11770D01*
D02*
G37*
G36*
X42230D02*
X41342D01*
X41698Y-12302D01*
X42230Y-12658D01*
Y-11770D01*
D02*
G37*
G36*
X3500Y-16931D02*
X2134Y-17203D01*
X977Y-17977D01*
X203Y-19134D01*
X-69Y-20500D01*
X203Y-21866D01*
X977Y-23023D01*
X2134Y-23797D01*
X3500Y-24069D01*
X4866Y-23797D01*
X6023Y-23023D01*
X6797Y-21866D01*
X7069Y-20500D01*
X6797Y-19134D01*
X6023Y-17977D01*
X4866Y-17203D01*
X3500Y-16931D01*
D02*
G37*
G36*
X-66770Y-22342D02*
X-67302Y-22698D01*
X-67658Y-23230D01*
X-66770D01*
Y-22342D01*
D02*
G37*
G36*
X-64230D02*
Y-23230D01*
X-63342D01*
X-63698Y-22698D01*
X-64230Y-22342D01*
D02*
G37*
G36*
X11770Y-23342D02*
Y-24230D01*
X12658D01*
X12302Y-23698D01*
X11770Y-23342D01*
D02*
G37*
G36*
X-16270Y-24270D02*
X-17158D01*
X-16802Y-24802D01*
X-16270Y-25158D01*
Y-24270D01*
D02*
G37*
G36*
X-12842D02*
X-13730D01*
Y-25158D01*
X-13198Y-24802D01*
X-12842Y-24270D01*
D02*
G37*
G36*
X9230Y-23342D02*
X8698Y-23698D01*
X8342Y-24230D01*
X9230D01*
Y-23342D01*
D02*
G37*
G36*
X-16270Y-20842D02*
X-16802Y-21198D01*
X-17158Y-21730D01*
X-16270D01*
Y-20842D01*
D02*
G37*
G36*
X138230Y-17270D02*
X137342D01*
X137698Y-17802D01*
X138230Y-18158D01*
Y-17270D01*
D02*
G37*
G36*
X141658D02*
X140770D01*
Y-18158D01*
X141302Y-17802D01*
X141658Y-17270D01*
D02*
G37*
G36*
X-101270Y-1270D02*
X-117962D01*
X-117740Y-3529D01*
X-116710Y-6922D01*
X-115039Y-10049D01*
X-112790Y-12789D01*
X-110049Y-15039D01*
X-106922Y-16710D01*
X-103529Y-17739D01*
X-101270Y-17962D01*
Y-1270D01*
D02*
G37*
G36*
X-23342Y-18770D02*
X-24230D01*
Y-19658D01*
X-23698Y-19302D01*
X-23342Y-18770D01*
D02*
G37*
G36*
X-13730Y-20842D02*
Y-21730D01*
X-12842D01*
X-13198Y-21198D01*
X-13730Y-20842D01*
D02*
G37*
G36*
X149000Y-13431D02*
X147634Y-13703D01*
X146477Y-14477D01*
X145703Y-15634D01*
X145431Y-17000D01*
X145703Y-18366D01*
X146477Y-19523D01*
X147634Y-20297D01*
X149000Y-20568D01*
X150366Y-20297D01*
X151523Y-19523D01*
X152297Y-18366D01*
X152569Y-17000D01*
X152297Y-15634D01*
X151523Y-14477D01*
X150366Y-13703D01*
X149000Y-13431D01*
D02*
G37*
G36*
X-26770Y-18770D02*
X-27658D01*
X-27302Y-19302D01*
X-26770Y-19658D01*
Y-18770D01*
D02*
G37*
G36*
X-6227Y-91339D02*
Y-92227D01*
X-5339D01*
X-5695Y-91695D01*
X-6227Y-91339D01*
D02*
G37*
G36*
X153230Y-105342D02*
X152698Y-105698D01*
X152342Y-106230D01*
X153230D01*
Y-105342D01*
D02*
G37*
G36*
X155770D02*
Y-106230D01*
X156658D01*
X156302Y-105698D01*
X155770Y-105342D01*
D02*
G37*
G36*
X45001Y-90000D02*
X30171D01*
X28424Y-91747D01*
Y-99424D01*
X32578Y-103578D01*
X42422D01*
X46581Y-99419D01*
Y-91581D01*
X45001Y-90000D01*
D02*
G37*
G36*
X80208Y-107780D02*
Y-108668D01*
X81096D01*
X80740Y-108135D01*
X80208Y-107780D01*
D02*
G37*
G36*
X-160208Y-107780D02*
X-160740Y-108135D01*
X-161096Y-108668D01*
X-160208D01*
Y-107780D01*
D02*
G37*
G36*
X-157668D02*
Y-108668D01*
X-156780D01*
X-157135Y-108135D01*
X-157668Y-107780D01*
D02*
G37*
G36*
X77668Y-107780D02*
X77135Y-108135D01*
X76779Y-108668D01*
X77668D01*
Y-107780D01*
D02*
G37*
G36*
X83230Y-98270D02*
X82342D01*
X82698Y-98802D01*
X83230Y-99158D01*
Y-98270D01*
D02*
G37*
G36*
X-98767Y-94767D02*
X-99655D01*
X-99299Y-95300D01*
X-98767Y-95655D01*
Y-94767D01*
D02*
G37*
G36*
X-95339D02*
X-96227D01*
Y-95655D01*
X-95695Y-95300D01*
X-95339Y-94767D01*
D02*
G37*
G36*
X-83767D02*
X-84655D01*
X-84300Y-95300D01*
X-83767Y-95655D01*
Y-94767D01*
D02*
G37*
G36*
X-110339D02*
X-111227D01*
Y-95655D01*
X-110695Y-95300D01*
X-110339Y-94767D01*
D02*
G37*
G36*
X86658Y-98270D02*
X85770D01*
Y-99158D01*
X86302Y-98802D01*
X86658Y-98270D01*
D02*
G37*
G36*
X83230Y-94842D02*
X82698Y-95198D01*
X82342Y-95730D01*
X83230D01*
Y-94842D01*
D02*
G37*
G36*
X85770D02*
Y-95730D01*
X86658D01*
X86302Y-95198D01*
X85770Y-94842D01*
D02*
G37*
G36*
X119230Y-125770D02*
X118342D01*
X118698Y-126302D01*
X119230Y-126658D01*
Y-125770D01*
D02*
G37*
G36*
X122658D02*
X121770D01*
Y-126658D01*
X122302Y-126302D01*
X122658Y-125770D01*
D02*
G37*
G36*
X119230Y-122342D02*
X118698Y-122698D01*
X118342Y-123230D01*
X119230D01*
Y-122342D01*
D02*
G37*
G36*
X162525Y-142428D02*
X158604Y-142815D01*
X154834Y-143958D01*
X151360Y-145815D01*
X149301Y-147505D01*
X165000Y-163204D01*
X178312Y-149891D01*
X176736Y-148315D01*
X173690Y-145815D01*
X170216Y-143958D01*
X166446Y-142815D01*
X162525Y-142428D01*
D02*
G37*
G36*
X-147505Y-149301D02*
X-163204Y-165000D01*
X-149891Y-178312D01*
X-148315Y-176736D01*
X-145815Y-173690D01*
X-143958Y-170216D01*
X-142815Y-166446D01*
X-142428Y-162525D01*
X-142815Y-158604D01*
X-143958Y-154834D01*
X-145815Y-151360D01*
X-147505Y-149301D01*
D02*
G37*
G36*
X147505D02*
X145815Y-151360D01*
X143958Y-154834D01*
X142815Y-158604D01*
X142428Y-162525D01*
X142815Y-166446D01*
X143958Y-170216D01*
X145815Y-173690D01*
X148315Y-176736D01*
X149891Y-178312D01*
X163204Y-165000D01*
X147505Y-149301D01*
D02*
G37*
G36*
X-162525Y-142428D02*
X-166446Y-142815D01*
X-170216Y-143958D01*
X-173690Y-145815D01*
X-176736Y-148315D01*
X-178312Y-149891D01*
X-165000Y-163204D01*
X-149301Y-147505D01*
X-151360Y-145815D01*
X-154834Y-143958D01*
X-158604Y-142815D01*
X-162525Y-142428D01*
D02*
G37*
G36*
X121770Y-122342D02*
Y-123230D01*
X122658D01*
X122302Y-122698D01*
X121770Y-122342D01*
D02*
G37*
G36*
X81096Y-111208D02*
X80208D01*
Y-112096D01*
X80740Y-111740D01*
X81096Y-111208D01*
D02*
G37*
G36*
X153230Y-108770D02*
X152342D01*
X152698Y-109302D01*
X153230Y-109658D01*
Y-108770D01*
D02*
G37*
G36*
X156658D02*
X155770D01*
Y-109658D01*
X156302Y-109302D01*
X156658Y-108770D01*
D02*
G37*
G36*
X77668Y-111208D02*
X76779D01*
X77135Y-111740D01*
X77668Y-112096D01*
Y-111208D01*
D02*
G37*
G36*
X139000Y-111431D02*
X137634Y-111703D01*
X136477Y-112477D01*
X135703Y-113634D01*
X135431Y-115000D01*
X135703Y-116366D01*
X136477Y-117523D01*
X137634Y-118297D01*
X139000Y-118569D01*
X140366Y-118297D01*
X141523Y-117523D01*
X142297Y-116366D01*
X142569Y-115000D01*
X142297Y-113634D01*
X141523Y-112477D01*
X140366Y-111703D01*
X139000Y-111431D01*
D02*
G37*
G36*
X-160208Y-111208D02*
X-161096D01*
X-160740Y-111740D01*
X-160208Y-112096D01*
Y-111208D01*
D02*
G37*
G36*
X-156780D02*
X-157668D01*
Y-112096D01*
X-157135Y-111740D01*
X-156780Y-111208D01*
D02*
G37*
G36*
X-80339Y-94767D02*
X-81227D01*
Y-95655D01*
X-80695Y-95300D01*
X-80339Y-94767D01*
D02*
G37*
G36*
X-83767Y-91339D02*
X-84300Y-91695D01*
X-84655Y-92227D01*
X-83767D01*
Y-91339D01*
D02*
G37*
G36*
X-81227D02*
Y-92227D01*
X-80339D01*
X-80695Y-91695D01*
X-81227Y-91339D01*
D02*
G37*
G36*
X-68767D02*
X-69300Y-91695D01*
X-69655Y-92227D01*
X-68767D01*
Y-91339D01*
D02*
G37*
G36*
X-96227D02*
Y-92227D01*
X-95339D01*
X-95695Y-91695D01*
X-96227Y-91339D01*
D02*
G37*
G36*
X-113767D02*
X-114300Y-91695D01*
X-114655Y-92227D01*
X-113767D01*
Y-91339D01*
D02*
G37*
G36*
X-111227D02*
Y-92227D01*
X-110339D01*
X-110695Y-91695D01*
X-111227Y-91339D01*
D02*
G37*
G36*
X-98767D02*
X-99299Y-91695D01*
X-99655Y-92227D01*
X-98767D01*
Y-91339D01*
D02*
G37*
G36*
X-66227D02*
Y-92227D01*
X-65339D01*
X-65695Y-91695D01*
X-66227Y-91339D01*
D02*
G37*
G36*
X-23767D02*
X-24299Y-91695D01*
X-24655Y-92227D01*
X-23767D01*
Y-91339D01*
D02*
G37*
G36*
X-21227D02*
Y-92227D01*
X-20339D01*
X-20695Y-91695D01*
X-21227Y-91339D01*
D02*
G37*
G36*
X-8767D02*
X-9299Y-91695D01*
X-9655Y-92227D01*
X-8767D01*
Y-91339D01*
D02*
G37*
G36*
X-36227D02*
Y-92227D01*
X-35339D01*
X-35695Y-91695D01*
X-36227Y-91339D01*
D02*
G37*
G36*
X-53767D02*
X-54300Y-91695D01*
X-54655Y-92227D01*
X-53767D01*
Y-91339D01*
D02*
G37*
G36*
X-51227D02*
Y-92227D01*
X-50339D01*
X-50695Y-91695D01*
X-51227Y-91339D01*
D02*
G37*
G36*
X-38767D02*
X-39300Y-91695D01*
X-39655Y-92227D01*
X-38767D01*
Y-91339D01*
D02*
G37*
G36*
Y-94767D02*
X-39655D01*
X-39300Y-95300D01*
X-38767Y-95655D01*
Y-94767D01*
D02*
G37*
G36*
X-35339D02*
X-36227D01*
Y-95655D01*
X-35695Y-95300D01*
X-35339Y-94767D01*
D02*
G37*
G36*
X-23767D02*
X-24655D01*
X-24299Y-95300D01*
X-23767Y-95655D01*
Y-94767D01*
D02*
G37*
G36*
X-50339D02*
X-51227D01*
Y-95655D01*
X-50695Y-95300D01*
X-50339Y-94767D01*
D02*
G37*
G36*
X-68767D02*
X-69655D01*
X-69300Y-95300D01*
X-68767Y-95655D01*
Y-94767D01*
D02*
G37*
G36*
X-65339D02*
X-66227D01*
Y-95655D01*
X-65695Y-95300D01*
X-65339Y-94767D01*
D02*
G37*
G36*
X-53767D02*
X-54655D01*
X-54300Y-95300D01*
X-53767Y-95655D01*
Y-94767D01*
D02*
G37*
G36*
X-20339D02*
X-21227D01*
Y-95655D01*
X-20695Y-95300D01*
X-20339Y-94767D01*
D02*
G37*
G36*
X21233D02*
X20345D01*
X20700Y-95300D01*
X21233Y-95655D01*
Y-94767D01*
D02*
G37*
G36*
X24661D02*
X23773D01*
Y-95655D01*
X24305Y-95300D01*
X24661Y-94767D01*
D02*
G37*
G36*
X-113767D02*
X-114875D01*
X-115641Y-95533D01*
X-116131Y-95206D01*
X-117497Y-94934D01*
X-118863Y-95206D01*
X-120021Y-95979D01*
X-120794Y-97137D01*
X-121066Y-98503D01*
X-120794Y-99868D01*
X-120021Y-101026D01*
X-118863Y-101800D01*
X-117497Y-102071D01*
X-116131Y-101800D01*
X-114974Y-101026D01*
X-114200Y-99868D01*
X-113929Y-98503D01*
X-114200Y-97137D01*
X-114530Y-96644D01*
X-113767Y-95881D01*
Y-94767D01*
D02*
G37*
G36*
X9661D02*
X8773D01*
Y-95655D01*
X9305Y-95300D01*
X9661Y-94767D01*
D02*
G37*
G36*
X-8767D02*
X-9655D01*
X-9299Y-95300D01*
X-8767Y-95655D01*
Y-94767D01*
D02*
G37*
G36*
X-5339D02*
X-6227D01*
Y-95655D01*
X-5695Y-95300D01*
X-5339Y-94767D01*
D02*
G37*
G36*
X6233D02*
X5345D01*
X5700Y-95300D01*
X6233Y-95655D01*
Y-94767D01*
D02*
G37*
G36*
X3158Y-11270D02*
X2270D01*
Y-12158D01*
X2802Y-11802D01*
X3158Y-11270D01*
D02*
G37*
G36*
X17658Y92730D02*
X16770D01*
Y91842D01*
X17302Y92198D01*
X17658Y92730D01*
D02*
G37*
G36*
X430Y95858D02*
X-102Y95502D01*
X-458Y94970D01*
X430D01*
Y95858D01*
D02*
G37*
G36*
X2970D02*
Y94970D01*
X3858D01*
X3502Y95502D01*
X2970Y95858D01*
D02*
G37*
G36*
X14230Y92730D02*
X13342D01*
X13698Y92198D01*
X14230Y91842D01*
Y92730D01*
D02*
G37*
G36*
X-25730Y92158D02*
Y91270D01*
X-24842D01*
X-25198Y91802D01*
X-25730Y92158D01*
D02*
G37*
G36*
X430Y92430D02*
X-458D01*
X-102Y91898D01*
X430Y91542D01*
Y92430D01*
D02*
G37*
G36*
X3858D02*
X2970D01*
Y91542D01*
X3502Y91898D01*
X3858Y92430D01*
D02*
G37*
G36*
X14230Y96158D02*
X13698Y95802D01*
X13342Y95270D01*
X14230D01*
Y96158D01*
D02*
G37*
G36*
X-50230Y100658D02*
Y99770D01*
X-49342D01*
X-49698Y100302D01*
X-50230Y100658D01*
D02*
G37*
G36*
X105230Y101730D02*
X104342D01*
X104698Y101198D01*
X105230Y100842D01*
Y101730D01*
D02*
G37*
G36*
X108658D02*
X107770D01*
Y100842D01*
X108302Y101198D01*
X108658Y101730D01*
D02*
G37*
G36*
X-52770Y100658D02*
X-53302Y100302D01*
X-53658Y99770D01*
X-52770D01*
Y100658D01*
D02*
G37*
G36*
X16770Y96158D02*
Y95270D01*
X17658D01*
X17302Y95802D01*
X16770Y96158D01*
D02*
G37*
G36*
X-52770Y97230D02*
X-53658D01*
X-53302Y96698D01*
X-52770Y96342D01*
Y97230D01*
D02*
G37*
G36*
X-49342D02*
X-50230D01*
Y96342D01*
X-49698Y96698D01*
X-49342Y97230D01*
D02*
G37*
G36*
X90658Y83230D02*
X89770D01*
Y82342D01*
X90302Y82698D01*
X90658Y83230D01*
D02*
G37*
G36*
X-150750Y90569D02*
X-152116Y90297D01*
X-153273Y89523D01*
X-154047Y88366D01*
X-154319Y87000D01*
X-154047Y85634D01*
X-153273Y84477D01*
X-152116Y83703D01*
X-150750Y83431D01*
X-149384Y83703D01*
X-148227Y84477D01*
X-147453Y85634D01*
X-147181Y87000D01*
X-147453Y88366D01*
X-148227Y89523D01*
X-149384Y90297D01*
X-150750Y90569D01*
D02*
G37*
G36*
X-75270Y86158D02*
X-75802Y85802D01*
X-76158Y85270D01*
X-75270D01*
Y86158D01*
D02*
G37*
G36*
X87230Y83230D02*
X86342D01*
X86698Y82698D01*
X87230Y82342D01*
Y83230D01*
D02*
G37*
G36*
X16770Y77158D02*
Y76270D01*
X17658D01*
X17302Y76802D01*
X16770Y77158D01*
D02*
G37*
G36*
X-75270Y82730D02*
X-76158D01*
X-75802Y82198D01*
X-75270Y81842D01*
Y82730D01*
D02*
G37*
G36*
X-71842D02*
X-72730D01*
Y81842D01*
X-72198Y82198D01*
X-71842Y82730D01*
D02*
G37*
G36*
X-72730Y86158D02*
Y85270D01*
X-71842D01*
X-72198Y85802D01*
X-72730Y86158D01*
D02*
G37*
G36*
X42000Y97569D02*
X40634Y97297D01*
X39477Y96523D01*
X38703Y95366D01*
X38431Y94000D01*
X38703Y92634D01*
X39477Y91477D01*
X40634Y90703D01*
X42000Y90431D01*
X43366Y90703D01*
X44523Y91477D01*
X45297Y92634D01*
X45569Y94000D01*
X45297Y95366D01*
X44523Y96523D01*
X43366Y97297D01*
X42000Y97569D01*
D02*
G37*
G36*
X88500D02*
X87134Y97297D01*
X85977Y96523D01*
X85203Y95366D01*
X84931Y94000D01*
X85203Y92634D01*
X85977Y91477D01*
X87134Y90703D01*
X88500Y90431D01*
X89866Y90703D01*
X91023Y91477D01*
X91797Y92634D01*
X92069Y94000D01*
X91797Y95366D01*
X91023Y96523D01*
X89866Y97297D01*
X88500Y97569D01*
D02*
G37*
G36*
X-28270Y92158D02*
X-28802Y91802D01*
X-29158Y91270D01*
X-28270D01*
Y92158D01*
D02*
G37*
G36*
X-24842Y88730D02*
X-25730D01*
Y87842D01*
X-25198Y88198D01*
X-24842Y88730D01*
D02*
G37*
G36*
X87230Y86658D02*
X86698Y86302D01*
X86342Y85770D01*
X87230D01*
Y86658D01*
D02*
G37*
G36*
X89770D02*
Y85770D01*
X90658D01*
X90302Y86302D01*
X89770Y86658D01*
D02*
G37*
G36*
X-28270Y88730D02*
X-29158D01*
X-28802Y88198D01*
X-28270Y87842D01*
Y88730D01*
D02*
G37*
G36*
X2619Y108569D02*
X1253Y108297D01*
X96Y107523D01*
X-678Y106366D01*
X-950Y105000D01*
X-678Y103634D01*
X96Y102477D01*
X1253Y101703D01*
X2619Y101431D01*
X3985Y101703D01*
X5142Y102477D01*
X5916Y103634D01*
X6188Y105000D01*
X5916Y106366D01*
X5142Y107523D01*
X3985Y108297D01*
X2619Y108569D01*
D02*
G37*
G36*
X-13230Y141658D02*
Y140770D01*
X-12342D01*
X-12698Y141302D01*
X-13230Y141658D01*
D02*
G37*
G36*
X-165000Y163204D02*
X-178312Y149891D01*
X-176736Y148315D01*
X-173690Y145815D01*
X-170216Y143958D01*
X-166446Y142815D01*
X-162525Y142428D01*
X-158604Y142815D01*
X-154834Y143958D01*
X-151360Y145815D01*
X-149301Y147505D01*
X-165000Y163204D01*
D02*
G37*
G36*
X165000D02*
X149301Y147505D01*
X151360Y145815D01*
X154834Y143958D01*
X158604Y142815D01*
X162525Y142428D01*
X166446Y142815D01*
X170216Y143958D01*
X173690Y145815D01*
X176736Y148315D01*
X178312Y149891D01*
X165000Y163204D01*
D02*
G37*
G36*
X-15770Y141658D02*
X-16302Y141302D01*
X-16658Y140770D01*
X-15770D01*
Y141658D01*
D02*
G37*
G36*
X15270Y132158D02*
Y131270D01*
X16158D01*
X15802Y131802D01*
X15270Y132158D01*
D02*
G37*
G36*
X-15770Y138230D02*
X-16658D01*
X-16302Y137698D01*
X-15770Y137342D01*
Y138230D01*
D02*
G37*
G36*
X-12342D02*
X-13230D01*
Y137342D01*
X-12698Y137698D01*
X-12342Y138230D01*
D02*
G37*
G36*
X-72795Y152774D02*
X-74161Y152502D01*
X-75318Y151728D01*
X-76092Y150571D01*
X-76364Y149205D01*
X-76092Y147839D01*
X-75318Y146682D01*
X-74161Y145908D01*
X-72795Y145636D01*
X-71429Y145908D01*
X-70272Y146682D01*
X-69498Y147839D01*
X-69226Y149205D01*
X-69498Y150571D01*
X-70272Y151728D01*
X-71429Y152502D01*
X-72795Y152774D01*
D02*
G37*
G36*
X88158Y158730D02*
X87270D01*
Y157842D01*
X87802Y158198D01*
X88158Y158730D01*
D02*
G37*
G36*
X84730Y162158D02*
X84198Y161802D01*
X83842Y161270D01*
X84730D01*
Y162158D01*
D02*
G37*
G36*
X87270D02*
Y161270D01*
X88158D01*
X87802Y161802D01*
X87270Y162158D01*
D02*
G37*
G36*
X84730Y158730D02*
X83842D01*
X84198Y158198D01*
X84730Y157842D01*
Y158730D01*
D02*
G37*
G36*
X-149891Y178312D02*
X-163204Y165000D01*
X-147505Y149301D01*
X-145815Y151360D01*
X-143958Y154834D01*
X-142815Y158604D01*
X-142428Y162525D01*
X-142815Y166446D01*
X-143958Y170216D01*
X-145815Y173690D01*
X-148315Y176736D01*
X-149891Y178312D01*
D02*
G37*
G36*
X149891D02*
X148315Y176736D01*
X145815Y173690D01*
X143958Y170216D01*
X142815Y166446D01*
X142428Y162525D01*
X142815Y158604D01*
X143958Y154834D01*
X145815Y151360D01*
X147505Y149301D01*
X163204Y165000D01*
X149891Y178312D01*
D02*
G37*
G36*
X25000Y163569D02*
X23634Y163297D01*
X22477Y162523D01*
X21703Y161366D01*
X21431Y160000D01*
X21703Y158634D01*
X22477Y157477D01*
X23634Y156703D01*
X25000Y156431D01*
X26366Y156703D01*
X27523Y157477D01*
X28297Y158634D01*
X28569Y160000D01*
X28297Y161366D01*
X27523Y162523D01*
X26366Y163297D01*
X25000Y163569D01*
D02*
G37*
G36*
X-95000Y120569D02*
X-96366Y120297D01*
X-97523Y119523D01*
X-98297Y118366D01*
X-98569Y117000D01*
X-98297Y115634D01*
X-97523Y114477D01*
X-96366Y113703D01*
X-95000Y113431D01*
X-93634Y113703D01*
X-92477Y114477D01*
X-91703Y115634D01*
X-91431Y117000D01*
X-91703Y118366D01*
X-92477Y119523D01*
X-93634Y120297D01*
X-95000Y120569D01*
D02*
G37*
G36*
X25730Y116158D02*
X25198Y115802D01*
X24842Y115270D01*
X25730D01*
Y116158D01*
D02*
G37*
G36*
X28270D02*
Y115270D01*
X29158D01*
X28802Y115802D01*
X28270Y116158D01*
D02*
G37*
G36*
X29158Y112730D02*
X28270D01*
Y111842D01*
X28802Y112198D01*
X29158Y112730D01*
D02*
G37*
G36*
X105230Y105158D02*
X104698Y104802D01*
X104342Y104270D01*
X105230D01*
Y105158D01*
D02*
G37*
G36*
X107770D02*
Y104270D01*
X108658D01*
X108302Y104802D01*
X107770Y105158D01*
D02*
G37*
G36*
X25730Y112730D02*
X24842D01*
X25198Y112198D01*
X25730Y111842D01*
Y112730D01*
D02*
G37*
G36*
X-61000Y124069D02*
X-62366Y123797D01*
X-63523Y123023D01*
X-64297Y121866D01*
X-64569Y120500D01*
X-64297Y119134D01*
X-63523Y117977D01*
X-62366Y117203D01*
X-61000Y116931D01*
X-59634Y117203D01*
X-58477Y117977D01*
X-57703Y119134D01*
X-57431Y120500D01*
X-57703Y121866D01*
X-58477Y123023D01*
X-59634Y123797D01*
X-61000Y124069D01*
D02*
G37*
G36*
X-169020Y130908D02*
X-169552Y130552D01*
X-169908Y130020D01*
X-169020D01*
Y130908D01*
D02*
G37*
G36*
X-166480D02*
Y130020D01*
X-165592D01*
X-165948Y130552D01*
X-166480Y130908D01*
D02*
G37*
G36*
X12730Y132158D02*
X12198Y131802D01*
X11842Y131270D01*
X12730D01*
Y132158D01*
D02*
G37*
G36*
X16158Y128730D02*
X15270D01*
Y127842D01*
X15802Y128198D01*
X16158Y128730D01*
D02*
G37*
G36*
X-169020Y127480D02*
X-169908D01*
X-169552Y126948D01*
X-169020Y126592D01*
Y127480D01*
D02*
G37*
G36*
X-165592D02*
X-166480D01*
Y126592D01*
X-165948Y126948D01*
X-165592Y127480D01*
D02*
G37*
G36*
X12730Y128730D02*
X11842D01*
X12198Y128198D01*
X12730Y127842D01*
Y128730D01*
D02*
G37*
G36*
X14230Y77158D02*
X13698Y76802D01*
X13342Y76270D01*
X14230D01*
Y77158D01*
D02*
G37*
G36*
X-42342Y9230D02*
X-43230D01*
Y8342D01*
X-42698Y8698D01*
X-42342Y9230D01*
D02*
G37*
G36*
X42230D02*
X41342D01*
X41698Y8698D01*
X42230Y8342D01*
Y9230D01*
D02*
G37*
G36*
X45658D02*
X44770D01*
Y8342D01*
X45302Y8698D01*
X45658Y9230D01*
D02*
G37*
G36*
X-45770D02*
X-46658D01*
X-46302Y8698D01*
X-45770Y8342D01*
Y9230D01*
D02*
G37*
G36*
X-98730Y17962D02*
Y1270D01*
X-82038D01*
X-82261Y3529D01*
X-83290Y6922D01*
X-84961Y10049D01*
X-87211Y12789D01*
X-89951Y15039D01*
X-93078Y16710D01*
X-96471Y17739D01*
X-98730Y17962D01*
D02*
G37*
G36*
X98730D02*
X96471Y17739D01*
X93078Y16710D01*
X89951Y15039D01*
X87210Y12789D01*
X84961Y10049D01*
X83290Y6922D01*
X82260Y3529D01*
X82038Y1270D01*
X98730D01*
Y17962D01*
D02*
G37*
G36*
X101270D02*
Y1270D01*
X117962D01*
X117739Y3529D01*
X116710Y6922D01*
X115039Y10049D01*
X112789Y12789D01*
X110049Y15039D01*
X106922Y16710D01*
X103529Y17739D01*
X101270Y17962D01*
D02*
G37*
G36*
X-45770Y12658D02*
X-46302Y12302D01*
X-46658Y11770D01*
X-45770D01*
Y12658D01*
D02*
G37*
G36*
X-11000Y21069D02*
X-12366Y20797D01*
X-13523Y20023D01*
X-14297Y18866D01*
X-14569Y17500D01*
X-14297Y16134D01*
X-13523Y14977D01*
X-12366Y14203D01*
X-11000Y13931D01*
X-9634Y14203D01*
X-8477Y14977D01*
X-7703Y16134D01*
X-7431Y17500D01*
X-7703Y18866D01*
X-8477Y20023D01*
X-9634Y20797D01*
X-11000Y21069D01*
D02*
G37*
G36*
X1000D02*
X-366Y20797D01*
X-1523Y20023D01*
X-2297Y18866D01*
X-2569Y17500D01*
X-2297Y16134D01*
X-1523Y14977D01*
X-366Y14203D01*
X1000Y13931D01*
X2366Y14203D01*
X3523Y14977D01*
X4297Y16134D01*
X4569Y17500D01*
X4297Y18866D01*
X3523Y20023D01*
X2366Y20797D01*
X1000Y21069D01*
D02*
G37*
G36*
X17500Y27069D02*
X16134Y26797D01*
X14977Y26023D01*
X14203Y24866D01*
X13931Y23500D01*
X14203Y22134D01*
X14977Y20977D01*
X16134Y20203D01*
X17500Y19931D01*
X18081Y20047D01*
X18787Y18991D01*
X18703Y18866D01*
X18431Y17500D01*
X18703Y16134D01*
X19477Y14977D01*
X20634Y14203D01*
X22000Y13931D01*
X23366Y14203D01*
X24523Y14977D01*
X25297Y16134D01*
X25569Y17500D01*
X25297Y18866D01*
X24523Y20023D01*
X23366Y20797D01*
X22000Y21069D01*
X21419Y20953D01*
X20713Y22009D01*
X20797Y22134D01*
X21069Y23500D01*
X20797Y24866D01*
X20023Y26023D01*
X18866Y26797D01*
X17500Y27069D01*
D02*
G37*
G36*
X-23000Y21069D02*
X-24366Y20797D01*
X-25523Y20023D01*
X-26297Y18866D01*
X-26569Y17500D01*
X-26297Y16134D01*
X-25523Y14977D01*
X-24366Y14203D01*
X-23000Y13931D01*
X-21634Y14203D01*
X-20477Y14977D01*
X-19703Y16134D01*
X-19431Y17500D01*
X-19703Y18866D01*
X-20477Y20023D01*
X-21634Y20797D01*
X-23000Y21069D01*
D02*
G37*
G36*
X-43230Y12658D02*
Y11770D01*
X-42342D01*
X-42698Y12302D01*
X-43230Y12658D01*
D02*
G37*
G36*
X42230D02*
X41698Y12302D01*
X41342Y11770D01*
X42230D01*
Y12658D01*
D02*
G37*
G36*
X44770D02*
Y11770D01*
X45658D01*
X45302Y12302D01*
X44770Y12658D01*
D02*
G37*
G36*
X-12270Y-7842D02*
X-12802Y-8198D01*
X-13158Y-8730D01*
X-12270D01*
Y-7842D01*
D02*
G37*
G36*
X-9730D02*
Y-8730D01*
X-8842D01*
X-9198Y-8198D01*
X-9730Y-7842D01*
D02*
G37*
G36*
X-270D02*
X-802Y-8198D01*
X-1158Y-8730D01*
X-270D01*
Y-7842D01*
D02*
G37*
G36*
X44770Y-8342D02*
Y-9230D01*
X45658D01*
X45302Y-8698D01*
X44770Y-8342D01*
D02*
G37*
G36*
X-66770D02*
X-67302Y-8698D01*
X-67658Y-9230D01*
X-66770D01*
Y-8342D01*
D02*
G37*
G36*
X-64230D02*
Y-9230D01*
X-63342D01*
X-63698Y-8698D01*
X-64230Y-8342D01*
D02*
G37*
G36*
X42230D02*
X41698Y-8698D01*
X41342Y-9230D01*
X42230D01*
Y-8342D01*
D02*
G37*
G36*
X2270Y-7842D02*
Y-8730D01*
X3158D01*
X2802Y-8198D01*
X2270Y-7842D01*
D02*
G37*
G36*
X-144730Y158D02*
Y-730D01*
X-143842D01*
X-144198Y-198D01*
X-144730Y158D01*
D02*
G37*
G36*
X-58895Y7069D02*
X-60261Y6797D01*
X-61418Y6023D01*
X-62192Y4866D01*
X-62464Y3500D01*
X-62192Y2134D01*
X-61418Y977D01*
X-60261Y203D01*
X-58895Y-69D01*
X-57529Y203D01*
X-56372Y977D01*
X-55598Y2134D01*
X-55326Y3500D01*
X-55598Y4866D01*
X-56372Y6023D01*
X-57529Y6797D01*
X-58895Y7069D01*
D02*
G37*
G36*
X-101270Y17962D02*
X-103529Y17739D01*
X-106922Y16710D01*
X-110049Y15039D01*
X-112790Y12789D01*
X-115039Y10049D01*
X-116710Y6922D01*
X-117740Y3529D01*
X-117962Y1270D01*
X-101270D01*
Y17962D01*
D02*
G37*
G36*
X-147270Y158D02*
X-147802Y-198D01*
X-148158Y-730D01*
X-147270D01*
Y158D01*
D02*
G37*
G36*
X48500Y69D02*
X47134Y-203D01*
X45977Y-977D01*
X45203Y-2134D01*
X44931Y-3500D01*
X45203Y-4866D01*
X45977Y-6023D01*
X47134Y-6797D01*
X48500Y-7069D01*
X49866Y-6797D01*
X51023Y-6023D01*
X51797Y-4866D01*
X52069Y-3500D01*
X51797Y-2134D01*
X51023Y-977D01*
X49866Y-203D01*
X48500Y69D01*
D02*
G37*
G36*
X-147270Y-3270D02*
X-148158D01*
X-147802Y-3802D01*
X-147270Y-4158D01*
Y-3270D01*
D02*
G37*
G36*
X-143842D02*
X-144730D01*
Y-4158D01*
X-144198Y-3802D01*
X-143842Y-3270D01*
D02*
G37*
G36*
X45799Y16230D02*
X44910D01*
X45266Y15698D01*
X45799Y15342D01*
Y16230D01*
D02*
G37*
G36*
X147730Y54230D02*
X146842D01*
X147198Y53698D01*
X147730Y53342D01*
Y54230D01*
D02*
G37*
G36*
X151158D02*
X150270D01*
Y53342D01*
X150802Y53698D01*
X151158Y54230D01*
D02*
G37*
G36*
X-67000Y61569D02*
X-68366Y61297D01*
X-69523Y60523D01*
X-70297Y59366D01*
X-70569Y58000D01*
X-70297Y56634D01*
X-69523Y55477D01*
X-68366Y54703D01*
X-67000Y54431D01*
X-65634Y54703D01*
X-64477Y55477D01*
X-63703Y56634D01*
X-63431Y58000D01*
X-63703Y59366D01*
X-64477Y60523D01*
X-65634Y61297D01*
X-67000Y61569D01*
D02*
G37*
G36*
X132158Y54230D02*
X131270D01*
Y53342D01*
X131802Y53698D01*
X132158Y54230D01*
D02*
G37*
G36*
X-23270Y54158D02*
X-23802Y53802D01*
X-24158Y53270D01*
X-23270D01*
Y54158D01*
D02*
G37*
G36*
X-20730D02*
Y53270D01*
X-19842D01*
X-20198Y53802D01*
X-20730Y54158D01*
D02*
G37*
G36*
X128730Y54230D02*
X127842D01*
X128198Y53698D01*
X128730Y53342D01*
Y54230D01*
D02*
G37*
G36*
X12500Y63069D02*
X11134Y62797D01*
X9977Y62023D01*
X9203Y60866D01*
X8931Y59500D01*
X9203Y58134D01*
X9977Y56977D01*
X11134Y56203D01*
X12500Y55931D01*
X13866Y56203D01*
X15023Y56977D01*
X15797Y58134D01*
X16069Y59500D01*
X15797Y60866D01*
X15023Y62023D01*
X13866Y62797D01*
X12500Y63069D01*
D02*
G37*
G36*
X-150750Y78319D02*
X-152116Y78047D01*
X-153273Y77273D01*
X-154047Y76116D01*
X-154319Y74750D01*
X-154047Y73384D01*
X-153273Y72227D01*
X-152116Y71453D01*
X-150750Y71181D01*
X-149384Y71453D01*
X-148227Y72227D01*
X-147453Y73384D01*
X-147181Y74750D01*
X-147453Y76116D01*
X-148227Y77273D01*
X-149384Y78047D01*
X-150750Y78319D01*
D02*
G37*
G36*
X14230Y73730D02*
X13342D01*
X13698Y73198D01*
X14230Y72842D01*
Y73730D01*
D02*
G37*
G36*
X17658D02*
X16770D01*
Y72842D01*
X17302Y73198D01*
X17658Y73730D01*
D02*
G37*
G36*
X150270Y57658D02*
Y56770D01*
X151158D01*
X150802Y57302D01*
X150270Y57658D01*
D02*
G37*
G36*
X128730D02*
X128198Y57302D01*
X127842Y56770D01*
X128730D01*
Y57658D01*
D02*
G37*
G36*
X131270D02*
Y56770D01*
X132158D01*
X131802Y57302D01*
X131270Y57658D01*
D02*
G37*
G36*
X147730D02*
X147198Y57302D01*
X146842Y56770D01*
X147730D01*
Y57658D01*
D02*
G37*
G36*
X-4770Y24230D02*
X-5658D01*
X-5302Y23698D01*
X-4770Y23342D01*
Y24230D01*
D02*
G37*
G36*
X-1342D02*
X-2230D01*
Y23342D01*
X-1698Y23698D01*
X-1342Y24230D01*
D02*
G37*
G36*
X-4770Y27658D02*
X-5302Y27302D01*
X-5658Y26770D01*
X-4770D01*
Y27658D01*
D02*
G37*
G36*
X43500Y28069D02*
X42134Y27797D01*
X40977Y27023D01*
X40203Y25866D01*
X39931Y24500D01*
X40203Y23134D01*
X40977Y21977D01*
X42134Y21203D01*
X43500Y20931D01*
X44866Y21203D01*
X46023Y21977D01*
X46797Y23134D01*
X47069Y24500D01*
X46797Y25866D01*
X46023Y27023D01*
X44866Y27797D01*
X43500Y28069D01*
D02*
G37*
G36*
X49227Y16230D02*
X48339D01*
Y15342D01*
X48871Y15698D01*
X49227Y16230D01*
D02*
G37*
G36*
X45799Y19658D02*
X45266Y19302D01*
X44910Y18770D01*
X45799D01*
Y19658D01*
D02*
G37*
G36*
X48339D02*
Y18770D01*
X49227D01*
X48871Y19302D01*
X48339Y19658D01*
D02*
G37*
G36*
X-2230Y27658D02*
Y26770D01*
X-1342D01*
X-1698Y27302D01*
X-2230Y27658D01*
D02*
G37*
G36*
X-28858Y52086D02*
X-30224Y51814D01*
X-31381Y51041D01*
X-32155Y49883D01*
X-32427Y48517D01*
X-32155Y47152D01*
X-31381Y45994D01*
X-30224Y45220D01*
X-28858Y44949D01*
X-27492Y45220D01*
X-26335Y45994D01*
X-25561Y47152D01*
X-25290Y48517D01*
X-25561Y49883D01*
X-26335Y51041D01*
X-27492Y51814D01*
X-28858Y52086D01*
D02*
G37*
G36*
X-23270Y50730D02*
X-24158D01*
X-23802Y50198D01*
X-23270Y49842D01*
Y50730D01*
D02*
G37*
G36*
X-19842D02*
X-20730D01*
Y49842D01*
X-20198Y50198D01*
X-19842Y50730D01*
D02*
G37*
G36*
X3500Y48569D02*
X2134Y48297D01*
X977Y47523D01*
X203Y46366D01*
X-69Y45000D01*
X203Y43634D01*
X977Y42477D01*
X2134Y41703D01*
X3500Y41431D01*
X4866Y41703D01*
X6023Y42477D01*
X6797Y43634D01*
X7069Y45000D01*
X6797Y46366D01*
X6023Y47523D01*
X4866Y48297D01*
X3500Y48569D01*
D02*
G37*
G36*
X149000Y35069D02*
X147634Y34797D01*
X146477Y34023D01*
X145703Y32866D01*
X145431Y31500D01*
X145703Y30134D01*
X146477Y28977D01*
X147634Y28203D01*
X149000Y27931D01*
X150366Y28203D01*
X151523Y28977D01*
X152297Y30134D01*
X152569Y31500D01*
X152297Y32866D01*
X151523Y34023D01*
X150366Y34797D01*
X149000Y35069D01*
D02*
G37*
G36*
X-137620Y44189D02*
X-138986Y43917D01*
X-140143Y43143D01*
X-140917Y41986D01*
X-141189Y40620D01*
X-140917Y39254D01*
X-140143Y38097D01*
X-138986Y37323D01*
X-137620Y37051D01*
X-136254Y37323D01*
X-135097Y38097D01*
X-134323Y39254D01*
X-134051Y40620D01*
X-134323Y41986D01*
X-135097Y43143D01*
X-136254Y43917D01*
X-137620Y44189D01*
D02*
G37*
G36*
X-10500Y48569D02*
X-11866Y48297D01*
X-13023Y47523D01*
X-13797Y46366D01*
X-14069Y45000D01*
X-13797Y43634D01*
X-13023Y42477D01*
X-11866Y41703D01*
X-10500Y41431D01*
X-9134Y41703D01*
X-7977Y42477D01*
X-7203Y43634D01*
X-6931Y45000D01*
X-7203Y46366D01*
X-7977Y47523D01*
X-9134Y48297D01*
X-10500Y48569D01*
D02*
G37*
%LPD*%
D15*
X-189914Y-180000D02*
G03*
X-179914Y-190000I10000J0D01*
G01*
X-179914Y190000D02*
G03*
X-189914Y180000I0J-10000D01*
G01*
X179914Y-190000D02*
G03*
X189914Y-180000I0J10000D01*
G01*
X190000Y180000D02*
G03*
X180000Y190000I-10000J0D01*
G01*
X-179914Y189914D02*
X180000Y189914D01*
X-179914Y-189914D02*
X179914Y-189914D01*
X-190000Y-180000D02*
Y180000D01*
X190000Y-180000D02*
Y180000D01*
D22*
X165000Y165000D02*
D03*
X-165000Y-165000D02*
D03*
D23*
X165000D02*
D03*
X-165000Y165000D02*
D03*
D24*
X106500Y103000D02*
D03*
X1000Y-10000D02*
D03*
X-65500Y-24500D02*
D03*
X-74000Y84000D02*
D03*
X86000Y160000D02*
D03*
X-14500Y139500D02*
D03*
X14000Y130000D02*
D03*
X27000Y114000D02*
D03*
X-51500Y98500D02*
D03*
X-167750Y128750D02*
D03*
X-146000Y-2000D02*
D03*
X-128498Y-28500D02*
D03*
X1700Y93700D02*
D03*
X-27000Y90000D02*
D03*
X-22000Y52000D02*
D03*
X-65500Y-10500D02*
D03*
X47069Y17500D02*
D03*
X43500Y10500D02*
D03*
X-158938Y-109938D02*
D03*
X78938Y-109938D02*
D03*
X139500Y-16000D02*
D03*
X88500Y84500D02*
D03*
X120500Y-124500D02*
D03*
X-15000Y-23000D02*
D03*
X-11000Y-10000D02*
D03*
X-112497Y-93497D02*
D03*
X-97497D02*
D03*
X-82497D02*
D03*
X-67497D02*
D03*
X-52497D02*
D03*
X-37497D02*
D03*
X-22497D02*
D03*
X-7497D02*
D03*
X7503D02*
D03*
X22503D02*
D03*
X15500Y94000D02*
D03*
Y75000D02*
D03*
X154500Y-107500D02*
D03*
X130000Y55500D02*
D03*
X149000D02*
D03*
X130000Y-54000D02*
D03*
X140420Y-35500D02*
D03*
X84500Y-97000D02*
D03*
X-25500Y-17500D02*
D03*
X10500Y-25500D02*
D03*
X43500Y-10500D02*
D03*
X-44500Y10500D02*
D03*
X-3500Y25500D02*
D03*
D26*
X-100000Y0D02*
D03*
X100000D02*
D03*
M02*
