%FSLAX44Y44*%
%MOMM*%
G71*
G01*
G75*
G04 Layer_Color=16711935*
%ADD10R,0.4000X1.0000*%
%ADD11R,1.0000X0.4000*%
%ADD12R,0.7250X2.3500*%
%ADD13R,3.0000X2.1000*%
%ADD14R,1.6000X0.8000*%
%ADD15C,0.2000*%
%ADD16C,0.2540*%
%ADD17C,0.4000*%
%ADD18C,0.3000*%
%ADD19R,1.1000X0.4000*%
%ADD20R,1.9250X2.3500*%
%ADD21C,4.0000*%
G04:AMPARAMS|DCode=22|XSize=4.7mm|YSize=4mm|CornerRadius=2mm|HoleSize=0mm|Usage=FLASHONLY|Rotation=45.000|XOffset=0mm|YOffset=0mm|HoleType=Round|Shape=RoundedRectangle|*
%AMROUNDEDRECTD22*
21,1,4.7000,0.0000,0,0,45.0*
21,1,0.7000,4.0000,0,0,45.0*
1,1,4.0000,0.2475,0.2475*
1,1,4.0000,-0.2475,-0.2475*
1,1,4.0000,-0.2475,-0.2475*
1,1,4.0000,0.2475,0.2475*
%
%ADD22ROUNDEDRECTD22*%
G04:AMPARAMS|DCode=23|XSize=4.7mm|YSize=4mm|CornerRadius=2mm|HoleSize=0mm|Usage=FLASHONLY|Rotation=-45.000|XOffset=0mm|YOffset=0mm|HoleType=Round|Shape=RoundedRectangle|*
%AMROUNDEDRECTD23*
21,1,4.7000,0.0000,0,0,-45.0*
21,1,0.7000,4.0000,0,0,-45.0*
1,1,4.0000,0.2475,-0.2475*
1,1,4.0000,-0.2475,0.2475*
1,1,4.0000,-0.2475,0.2475*
1,1,4.0000,0.2475,-0.2475*
%
%ADD23ROUNDEDRECTD23*%
%ADD24C,0.5000*%
%ADD25C,0.5000*%
%ADD26C,3.6000*%
%ADD27R,0.5000X0.6000*%
%ADD28R,0.6000X0.5000*%
%ADD29R,1.1000X0.5000*%
%ADD30R,2.1844X2.4130*%
%ADD31R,0.3000X1.1000*%
%ADD32R,1.2700X0.5080*%
%ADD33R,2.4000X1.2500*%
%ADD34R,1.2000X1.2500*%
%ADD35R,0.5000X1.1000*%
%ADD36R,0.8890X1.0160*%
%ADD37C,0.8000*%
%ADD38R,0.8128X0.8128*%
%ADD39R,1.2000X1.4000*%
%ADD40R,1.2000X1.6000*%
%ADD41R,1.2954X1.6002*%
%ADD42R,1.3970X1.3970*%
%ADD43R,0.8128X0.8128*%
%ADD44O,0.3000X1.5000*%
%ADD45R,2.1800X1.7200*%
%ADD46C,4.4000*%
%ADD47C,0.1270*%
%ADD48C,1.4000*%
%ADD49C,0.1200*%
%ADD50C,0.1000*%
%ADD51R,3.2000X3.2000*%
%ADD52R,1.0750X0.6000*%
%ADD53R,1.4000X2.5500*%
%ADD54R,0.6040X1.2040*%
%ADD55R,1.2040X0.6040*%
%ADD56R,0.9290X2.5540*%
%ADD57R,3.2040X2.3040*%
%ADD58R,1.8040X1.0040*%
%ADD59C,4.2040*%
G04:AMPARAMS|DCode=60|XSize=4.904mm|YSize=4.204mm|CornerRadius=2.102mm|HoleSize=0mm|Usage=FLASHONLY|Rotation=45.000|XOffset=0mm|YOffset=0mm|HoleType=Round|Shape=RoundedRectangle|*
%AMROUNDEDRECTD60*
21,1,4.9040,0.0000,0,0,45.0*
21,1,0.7000,4.2040,0,0,45.0*
1,1,4.2040,0.2475,0.2475*
1,1,4.2040,-0.2475,-0.2475*
1,1,4.2040,-0.2475,-0.2475*
1,1,4.2040,0.2475,0.2475*
%
%ADD60ROUNDEDRECTD60*%
G04:AMPARAMS|DCode=61|XSize=4.904mm|YSize=4.204mm|CornerRadius=2.102mm|HoleSize=0mm|Usage=FLASHONLY|Rotation=-45.000|XOffset=0mm|YOffset=0mm|HoleType=Round|Shape=RoundedRectangle|*
%AMROUNDEDRECTD61*
21,1,4.9040,0.0000,0,0,-45.0*
21,1,0.7000,4.2040,0,0,-45.0*
1,1,4.2040,0.2475,-0.2475*
1,1,4.2040,-0.2475,0.2475*
1,1,4.2040,-0.2475,0.2475*
1,1,4.2040,0.2475,-0.2475*
%
%ADD61ROUNDEDRECTD61*%
%ADD62C,0.7040*%
%ADD63R,0.7040X0.8040*%
%ADD64R,0.8040X0.7040*%
%ADD65R,1.3040X0.7040*%
%ADD66R,2.3884X2.6170*%
%ADD67R,0.5040X1.3040*%
%ADD68R,1.4740X0.7120*%
%ADD69R,2.6040X1.4540*%
%ADD70R,1.4040X1.4540*%
%ADD71R,0.7040X1.3040*%
%ADD72R,1.0930X1.2200*%
%ADD73C,1.0040*%
%ADD74R,1.0168X1.0168*%
%ADD75R,1.4040X1.6040*%
%ADD76R,1.4040X1.8040*%
%ADD77R,1.4994X1.8042*%
%ADD78R,1.6010X1.6010*%
%ADD79R,1.0168X1.0168*%
%ADD80O,0.5040X1.7040*%
%ADD81R,2.3840X1.9240*%
%ADD82C,4.6040*%
D60*
X165000Y165000D02*
D03*
X-165000Y-165000D02*
D03*
D61*
X165000D02*
D03*
X-165000Y165000D02*
D03*
D62*
X106500Y103000D02*
D03*
X67000Y-60000D02*
D03*
X-47497Y-74000D02*
D03*
X67000Y-48000D02*
D03*
X-42497Y-69000D02*
D03*
X44000Y-60000D02*
D03*
Y-48000D02*
D03*
X21701Y-46230D02*
D03*
X10000Y-51000D02*
D03*
X1000Y-10000D02*
D03*
X48500Y-3500D02*
D03*
X-23000Y17500D02*
D03*
X-65500Y-24500D02*
D03*
X-58895Y3500D02*
D03*
X-74000Y84000D02*
D03*
X-72795Y149205D02*
D03*
X37500Y-99500D02*
D03*
X42503Y-94497D02*
D03*
X32503Y-94503D02*
D03*
X86000Y160000D02*
D03*
X-14500Y139500D02*
D03*
X14000Y130000D02*
D03*
X27000Y114000D02*
D03*
X2619Y105000D02*
D03*
X-51500Y98500D02*
D03*
X25000Y160000D02*
D03*
X-167750Y128750D02*
D03*
X130000Y-78000D02*
D03*
X149000Y-17000D02*
D03*
X43500Y24500D02*
D03*
X149000Y31500D02*
D03*
X-95000Y117000D02*
D03*
X-117497Y-98503D02*
D03*
X-61000Y120500D02*
D03*
X-150750Y74750D02*
D03*
Y87000D02*
D03*
X-146000Y-2000D02*
D03*
X-128498Y-28500D02*
D03*
X1700Y93700D02*
D03*
X-27000Y90000D02*
D03*
X-22000Y52000D02*
D03*
X-65500Y-10500D02*
D03*
X47069Y17500D02*
D03*
X43500Y10500D02*
D03*
X42000Y94000D02*
D03*
X-158938Y-109938D02*
D03*
X78938Y-109938D02*
D03*
X139500Y-16000D02*
D03*
X88500Y84500D02*
D03*
X120500Y-124500D02*
D03*
X-15000Y-23000D02*
D03*
X-11000Y-10000D02*
D03*
X-112497Y-93497D02*
D03*
X-97497D02*
D03*
X-82497D02*
D03*
X-67497D02*
D03*
X-52497D02*
D03*
X-37497D02*
D03*
X-22497D02*
D03*
X3500Y-20500D02*
D03*
X-3500Y-25500D02*
D03*
X-7497Y-93497D02*
D03*
X-2497Y-69000D02*
D03*
Y-62000D02*
D03*
X7503Y-93497D02*
D03*
X22503D02*
D03*
X22000Y17500D02*
D03*
X17500Y23500D02*
D03*
X-137620Y40620D02*
D03*
X15500Y94000D02*
D03*
Y75000D02*
D03*
X154500Y-107500D02*
D03*
X130000Y55500D02*
D03*
X149000D02*
D03*
X130000Y-54000D02*
D03*
X140420Y-35500D02*
D03*
X84500Y-97000D02*
D03*
X-25500Y-17500D02*
D03*
X-42500Y-24500D02*
D03*
X10500Y-25500D02*
D03*
X43500Y-10500D02*
D03*
X12500Y59500D02*
D03*
X-67000Y58000D02*
D03*
X-44500Y10500D02*
D03*
X-28858Y48517D02*
D03*
X3500Y45000D02*
D03*
X-3500Y25500D02*
D03*
X-10500Y45000D02*
D03*
X1000Y17500D02*
D03*
X-11000D02*
D03*
X-42888Y-10500D02*
D03*
X139000Y-115000D02*
D03*
X88500Y94000D02*
D03*
D63*
X60500Y-60000D02*
D03*
X51500D02*
D03*
Y-48000D02*
D03*
X60500D02*
D03*
X-67500Y84000D02*
D03*
X-58500D02*
D03*
X154500Y-115000D02*
D03*
X145500D02*
D03*
X84500Y-88000D02*
D03*
X93500D02*
D03*
X106500Y94000D02*
D03*
X97500D02*
D03*
X25500Y75000D02*
D03*
X34500D02*
D03*
X25500Y94000D02*
D03*
X34500D02*
D03*
X-77500Y117000D02*
D03*
X-86500D02*
D03*
X-77500Y130000D02*
D03*
X-86500D02*
D03*
X-58500Y-24500D02*
D03*
X-49500D02*
D03*
X-58500Y-10500D02*
D03*
X-49500D02*
D03*
X-1500Y130000D02*
D03*
X7500D02*
D03*
X3500Y52500D02*
D03*
X12500D02*
D03*
D64*
X-58895Y11500D02*
D03*
Y20500D02*
D03*
X-10500Y29750D02*
D03*
Y38750D02*
D03*
X130000Y-61500D02*
D03*
Y-70500D02*
D03*
X149000Y48000D02*
D03*
Y39000D02*
D03*
X130000Y48000D02*
D03*
Y39000D02*
D03*
X148920Y-35500D02*
D03*
Y-26500D02*
D03*
X-135000Y-37500D02*
D03*
Y-28500D02*
D03*
Y-60500D02*
D03*
Y-51500D02*
D03*
X26000Y-3500D02*
D03*
Y5500D02*
D03*
X14000D02*
D03*
Y-3500D02*
D03*
X-40000Y74500D02*
D03*
Y83500D02*
D03*
X-11000Y-3500D02*
D03*
Y5500D02*
D03*
X-23000Y-3500D02*
D03*
Y5500D02*
D03*
X-27000Y83500D02*
D03*
Y74500D02*
D03*
X-61000Y107500D02*
D03*
Y98500D02*
D03*
X1000Y-3500D02*
D03*
Y5500D02*
D03*
D65*
X52000Y94000D02*
D03*
Y75000D02*
D03*
X79000D02*
D03*
Y84500D02*
D03*
Y94000D02*
D03*
D66*
X-142440Y-109938D02*
D03*
X62440Y-109938D02*
D03*
D67*
X-122497Y-83502D02*
D03*
X-117497D02*
D03*
X-112497D02*
D03*
X-107497D02*
D03*
X-102497D02*
D03*
X-97497D02*
D03*
X-92497D02*
D03*
X-87497D02*
D03*
X-82497D02*
D03*
X-77497D02*
D03*
X-72497D02*
D03*
X-67497D02*
D03*
X-62497D02*
D03*
X-57497D02*
D03*
X-52497D02*
D03*
X-47497D02*
D03*
X-42497D02*
D03*
X-37497D02*
D03*
X-32497D02*
D03*
X-27497D02*
D03*
X-22497D02*
D03*
X-17497D02*
D03*
X-12497D02*
D03*
X-7497D02*
D03*
X-2497D02*
D03*
X2503D02*
D03*
X7503D02*
D03*
X12503D02*
D03*
X17503D02*
D03*
X22503D02*
D03*
X27503D02*
D03*
X32503D02*
D03*
X37503D02*
D03*
X42503D02*
D03*
D68*
X-25000Y120500D02*
D03*
Y130000D02*
D03*
Y139500D02*
D03*
X-51000D02*
D03*
Y130000D02*
D03*
Y120500D02*
D03*
D69*
X8250Y160000D02*
D03*
D70*
X-22500D02*
D03*
D71*
X130000Y-88000D02*
D03*
X111000D02*
D03*
Y-115000D02*
D03*
X120500D02*
D03*
X130000D02*
D03*
X149000Y20500D02*
D03*
X130000D02*
D03*
Y-6500D02*
D03*
X139500D02*
D03*
X149000D02*
D03*
D72*
X2619Y114000D02*
D03*
X18621D02*
D03*
D73*
X-92497Y-58497D02*
D03*
X-62497D02*
D03*
X-55000Y-46000D02*
D03*
X-85000D02*
D03*
X-77763Y-58497D02*
D03*
X-70265Y-46000D02*
D03*
D74*
X-146000Y40620D02*
D03*
Y25380D02*
D03*
X-176000Y40620D02*
D03*
Y25380D02*
D03*
X-161000Y40620D02*
D03*
Y25380D02*
D03*
D75*
X-41500Y58000D02*
D03*
Y36000D02*
D03*
X-56500D02*
D03*
Y58000D02*
D03*
D76*
X44000Y160000D02*
D03*
X76000D02*
D03*
D77*
X-10000Y93700D02*
D03*
Y68300D02*
D03*
D78*
X-51205Y160000D02*
D03*
X-72795D02*
D03*
D79*
X28380Y53000D02*
D03*
X43620D02*
D03*
D80*
X-171000Y-2000D02*
D03*
X-166000D02*
D03*
X-161000D02*
D03*
X-156000D02*
D03*
X-151000D02*
D03*
Y-48000D02*
D03*
X-156000D02*
D03*
X-161000D02*
D03*
X-166000D02*
D03*
X-171000D02*
D03*
D81*
X-161000Y-25000D02*
D03*
D82*
X-100000Y0D02*
D03*
X100000D02*
D03*
M02*
