%FSLAX44Y44*%
%MOMM*%
G71*
G01*
G75*
G04 Layer_Color=32896*
%ADD10R,0.4000X1.0000*%
%ADD11R,1.0000X0.4000*%
%ADD12R,0.7250X2.3500*%
%ADD13R,3.0000X2.1000*%
%ADD14R,1.6000X0.8000*%
%ADD15C,0.2000*%
%ADD16C,0.2540*%
%ADD17C,0.4000*%
%ADD18C,0.3000*%
%ADD19R,1.1000X0.4000*%
%ADD20R,1.9250X2.3500*%
%ADD21C,4.0000*%
G04:AMPARAMS|DCode=22|XSize=4.7mm|YSize=4mm|CornerRadius=2mm|HoleSize=0mm|Usage=FLASHONLY|Rotation=45.000|XOffset=0mm|YOffset=0mm|HoleType=Round|Shape=RoundedRectangle|*
%AMROUNDEDRECTD22*
21,1,4.7000,0.0000,0,0,45.0*
21,1,0.7000,4.0000,0,0,45.0*
1,1,4.0000,0.2475,0.2475*
1,1,4.0000,-0.2475,-0.2475*
1,1,4.0000,-0.2475,-0.2475*
1,1,4.0000,0.2475,0.2475*
%
%ADD22ROUNDEDRECTD22*%
G04:AMPARAMS|DCode=23|XSize=4.7mm|YSize=4mm|CornerRadius=2mm|HoleSize=0mm|Usage=FLASHONLY|Rotation=-45.000|XOffset=0mm|YOffset=0mm|HoleType=Round|Shape=RoundedRectangle|*
%AMROUNDEDRECTD23*
21,1,4.7000,0.0000,0,0,-45.0*
21,1,0.7000,4.0000,0,0,-45.0*
1,1,4.0000,0.2475,-0.2475*
1,1,4.0000,-0.2475,0.2475*
1,1,4.0000,-0.2475,0.2475*
1,1,4.0000,0.2475,-0.2475*
%
%ADD23ROUNDEDRECTD23*%
%ADD24C,0.5000*%
%ADD25C,0.5000*%
%ADD26C,3.6000*%
%ADD27R,0.5000X0.6000*%
%ADD28R,0.6000X0.5000*%
%ADD29R,1.1000X0.5000*%
%ADD30R,2.1844X2.4130*%
%ADD31R,0.3000X1.1000*%
%ADD32R,1.2700X0.5080*%
%ADD33R,2.4000X1.2500*%
%ADD34R,1.2000X1.2500*%
%ADD35R,0.5000X1.1000*%
%ADD36R,0.8890X1.0160*%
%ADD37C,0.8000*%
%ADD38R,0.8128X0.8128*%
%ADD39R,1.2000X1.4000*%
%ADD40R,1.2000X1.6000*%
%ADD41R,1.2954X1.6002*%
%ADD42R,1.3970X1.3970*%
%ADD43R,0.8128X0.8128*%
%ADD44O,0.3000X1.5000*%
%ADD45R,2.1800X1.7200*%
%ADD46C,4.4000*%
%ADD47C,0.1270*%
%ADD48C,1.4000*%
%ADD49C,0.1200*%
%ADD50C,0.1000*%
%ADD51R,3.2000X3.2000*%
%ADD52R,1.0750X0.6000*%
%ADD53R,1.4000X2.5500*%
%ADD54R,0.6040X1.2040*%
%ADD55R,1.2040X0.6040*%
%ADD56R,0.9290X2.5540*%
%ADD57R,3.2040X2.3040*%
%ADD58R,1.8040X1.0040*%
%ADD59C,4.2040*%
G04:AMPARAMS|DCode=60|XSize=4.904mm|YSize=4.204mm|CornerRadius=2.102mm|HoleSize=0mm|Usage=FLASHONLY|Rotation=45.000|XOffset=0mm|YOffset=0mm|HoleType=Round|Shape=RoundedRectangle|*
%AMROUNDEDRECTD60*
21,1,4.9040,0.0000,0,0,45.0*
21,1,0.7000,4.2040,0,0,45.0*
1,1,4.2040,0.2475,0.2475*
1,1,4.2040,-0.2475,-0.2475*
1,1,4.2040,-0.2475,-0.2475*
1,1,4.2040,0.2475,0.2475*
%
%ADD60ROUNDEDRECTD60*%
G04:AMPARAMS|DCode=61|XSize=4.904mm|YSize=4.204mm|CornerRadius=2.102mm|HoleSize=0mm|Usage=FLASHONLY|Rotation=-45.000|XOffset=0mm|YOffset=0mm|HoleType=Round|Shape=RoundedRectangle|*
%AMROUNDEDRECTD61*
21,1,4.9040,0.0000,0,0,-45.0*
21,1,0.7000,4.2040,0,0,-45.0*
1,1,4.2040,0.2475,-0.2475*
1,1,4.2040,-0.2475,0.2475*
1,1,4.2040,-0.2475,0.2475*
1,1,4.2040,0.2475,-0.2475*
%
%ADD61ROUNDEDRECTD61*%
%ADD62C,0.7040*%
%ADD63R,0.7040X0.8040*%
%ADD64R,0.8040X0.7040*%
%ADD65R,1.3040X0.7040*%
%ADD66R,2.3884X2.6170*%
%ADD67R,0.5040X1.3040*%
%ADD68R,1.4740X0.7120*%
%ADD69R,2.6040X1.4540*%
%ADD70R,1.4040X1.4540*%
%ADD71R,0.7040X1.3040*%
%ADD72R,1.0930X1.2200*%
%ADD73C,1.0040*%
%ADD74R,1.0168X1.0168*%
%ADD75R,1.4040X1.6040*%
%ADD76R,1.4040X1.8040*%
%ADD77R,1.4994X1.8042*%
%ADD78R,1.6010X1.6010*%
%ADD79R,1.0168X1.0168*%
%ADD80O,0.5040X1.7040*%
%ADD81R,2.3840X1.9240*%
%ADD82C,4.6040*%
%ADD83C,0.1250*%
%ADD84C,0.1524*%
G36*
X-6313Y160000D02*
X-13250Y153062D01*
Y166938D01*
X-6313Y160000D01*
D02*
G37*
D49*
X-86907Y-58497D02*
G03*
X-86907Y-58497I-5590J0D01*
G01*
X-56907D02*
G03*
X-56907Y-58497I-5590J0D01*
G01*
X-49410Y-46000D02*
G03*
X-49410Y-46000I-5590J0D01*
G01*
X-79410D02*
G03*
X-79410Y-46000I-5590J0D01*
G01*
X-72172Y-58497D02*
G03*
X-72172Y-58497I-5590J0D01*
G01*
X-64675Y-46000D02*
G03*
X-64675Y-46000I-5590J0D01*
G01*
X35000Y152000D02*
G03*
X38000Y149000I3000J0D01*
G01*
X82000D02*
G03*
X85000Y152000I0J3000D01*
G01*
Y168000D02*
G03*
X82000Y171000I-3000J0D01*
G01*
X38000D02*
G03*
X35000Y168000I0J-3000D01*
G01*
X-152497Y-137002D02*
X72503D01*
X-152497D02*
Y-127002D01*
X-146997D01*
X-152497Y-137002D02*
Y-127002D01*
X-146997D01*
Y-123002D01*
Y-97002D02*
Y-87002D01*
X-124997D01*
X67003Y-97002D02*
Y-87002D01*
X45003D02*
X67003D01*
X72503Y-137002D02*
Y-127002D01*
X67003D02*
X72503D01*
X67003D02*
Y-123002D01*
X72503Y-137002D02*
Y-127002D01*
X67003D02*
X72503D01*
X42503Y-74102D02*
X48503Y-68102D01*
X36503D02*
X48503D01*
X36503D02*
X42503Y-74102D01*
Y-72602D02*
X46003Y-69102D01*
X39003D02*
X46003D01*
X39003D02*
X42503Y-72602D01*
Y-71102D02*
X43503Y-70102D01*
X41503D02*
X43503D01*
X41503D02*
X42503Y-71102D01*
X-43997Y-110002D02*
X-35997D01*
X-39997Y-114002D02*
Y-106002D01*
X-64000Y27000D02*
Y67000D01*
Y27000D02*
X-34000D01*
Y67000D01*
X-64000D02*
X-34000D01*
X-46000Y45000D02*
Y49000D01*
X-48000Y45000D02*
Y49000D01*
X-50000Y45000D02*
X-48000D01*
X-50000D02*
Y49000D01*
X-48000D01*
X-52000Y45000D02*
Y49000D01*
X-33000Y58000D02*
X-29000Y62000D01*
Y54000D02*
Y62000D01*
X-33000Y58000D02*
X-29000Y54000D01*
X-46000Y47000D02*
X-41000D01*
Y49000D01*
X-57000Y47000D02*
X-52000D01*
X-57000Y45000D02*
Y47000D01*
X-64000Y27000D02*
Y67000D01*
Y27000D02*
X-34000D01*
Y67000D01*
X-64000D02*
X-34000D01*
X38000Y149000D02*
X82000D01*
X85000Y152000D02*
Y168000D01*
X38000Y171000D02*
X82000D01*
X35000Y152000D02*
Y168000D01*
X58000Y156000D02*
Y164000D01*
X62000Y156000D02*
Y164000D01*
Y160000D02*
X66000D01*
X54000D02*
X58000D01*
D50*
X43384Y-63297D02*
Y-58299D01*
X40885D01*
X40052Y-59132D01*
Y-60798D01*
X40885Y-61631D01*
X43384D01*
X41718D02*
X40052Y-63297D01*
X38386Y-59132D02*
X37553Y-58299D01*
X35887D01*
X35054Y-59132D01*
Y-59965D01*
X35887Y-60798D01*
X35054Y-61631D01*
Y-62464D01*
X35887Y-63297D01*
X37553D01*
X38386Y-62464D01*
Y-61631D01*
X37553Y-60798D01*
X38386Y-59965D01*
Y-59132D01*
X37553Y-60798D02*
X35887D01*
X43000Y-49000D02*
Y-44002D01*
X40501D01*
X39668Y-44835D01*
Y-46501D01*
X40501Y-47334D01*
X43000D01*
X41334D02*
X39668Y-49000D01*
X34669Y-44002D02*
X36335Y-44835D01*
X38002Y-46501D01*
Y-48167D01*
X37169Y-49000D01*
X35502D01*
X34669Y-48167D01*
Y-47334D01*
X35502Y-46501D01*
X38002D01*
X-72000Y10000D02*
X-67002D01*
Y12499D01*
X-67835Y13332D01*
X-69501D01*
X-70334Y12499D01*
Y10000D01*
Y11666D02*
X-72000Y13332D01*
Y14998D02*
Y16665D01*
Y15831D01*
X-67002D01*
X-67835Y14998D01*
Y19164D02*
X-67002Y19997D01*
Y21663D01*
X-67835Y22496D01*
X-71167D01*
X-72000Y21663D01*
Y19997D01*
X-71167Y19164D01*
X-67835D01*
X1165Y33332D02*
X1998Y32499D01*
Y30833D01*
X1165Y30000D01*
X-2167D01*
X-3000Y30833D01*
Y32499D01*
X-2167Y33332D01*
X1998Y34998D02*
Y38331D01*
X1165D01*
X-2167Y34998D01*
X-3000D01*
X-78000Y85567D02*
Y80569D01*
X-80499D01*
X-81332Y81402D01*
Y82235D01*
X-80499Y83068D01*
X-78000D01*
X-80499D01*
X-81332Y83901D01*
Y84734D01*
X-80499Y85567D01*
X-78000D01*
X-86331Y84734D02*
X-85498Y85567D01*
X-83831D01*
X-82998Y84734D01*
Y81402D01*
X-83831Y80569D01*
X-85498D01*
X-86331Y81402D01*
X-87997Y85567D02*
X-91329D01*
Y84734D01*
X-87997Y81402D01*
Y80569D01*
X78000Y107998D02*
Y103833D01*
X77167Y103000D01*
X75501D01*
X74668Y103833D01*
Y107998D01*
X73002Y107165D02*
X72169Y107998D01*
X70502D01*
X69669Y107165D01*
Y106332D01*
X70502Y105499D01*
X71336D01*
X70502D01*
X69669Y104666D01*
Y103833D01*
X70502Y103000D01*
X72169D01*
X73002Y103833D01*
X-142332Y-77002D02*
X-140666D01*
X-141499D01*
Y-81167D01*
X-140666Y-82000D01*
X-139833D01*
X-139000Y-81167D01*
X-147331Y-82000D02*
X-143998D01*
X-147331Y-78668D01*
Y-77835D01*
X-146497Y-77002D01*
X-144831D01*
X-143998Y-77835D01*
X-13000Y111998D02*
Y107833D01*
X-13833Y107000D01*
X-15499D01*
X-16332Y107833D01*
Y111998D01*
X-21331Y107000D02*
X-17998D01*
X-21331Y110332D01*
Y111165D01*
X-20498Y111998D01*
X-18831D01*
X-17998Y111165D01*
X-2000Y180998D02*
Y176000D01*
X-4499D01*
X-5332Y176833D01*
Y180165D01*
X-4499Y180998D01*
X-2000D01*
X-6998Y176000D02*
X-8665D01*
X-7831D01*
Y180998D01*
X-6998Y180165D01*
X156658Y-101232D02*
Y-106230D01*
X154159D01*
X153326Y-105397D01*
Y-104564D01*
X154159Y-103731D01*
X156658D01*
X154159D01*
X153326Y-102898D01*
Y-102065D01*
X154159Y-101232D01*
X156658D01*
X148328Y-102065D02*
X149160Y-101232D01*
X150827D01*
X151660Y-102065D01*
Y-105397D01*
X150827Y-106230D01*
X149160D01*
X148328Y-105397D01*
X144162Y-106230D02*
Y-101232D01*
X146661Y-103731D01*
X143329D01*
X121998Y-74000D02*
X117000D01*
Y-71501D01*
X117833Y-70668D01*
X118666D01*
X119499Y-71501D01*
Y-74000D01*
Y-71501D01*
X120332Y-70668D01*
X121165D01*
X121998Y-71501D01*
Y-74000D01*
X121165Y-65669D02*
X121998Y-66502D01*
Y-68169D01*
X121165Y-69002D01*
X117833D01*
X117000Y-68169D01*
Y-66502D01*
X117833Y-65669D01*
X121998Y-60671D02*
Y-64003D01*
X119499D01*
X120332Y-62337D01*
Y-61504D01*
X119499Y-60671D01*
X117833D01*
X117000Y-61504D01*
Y-63170D01*
X117833Y-64003D01*
X89668Y-97835D02*
X90501Y-97002D01*
X92167D01*
X93000Y-97835D01*
Y-101167D01*
X92167Y-102000D01*
X90501D01*
X89668Y-101167D01*
X84669Y-97002D02*
X86335Y-97835D01*
X88002Y-99501D01*
Y-101167D01*
X87169Y-102000D01*
X85502D01*
X84669Y-101167D01*
Y-100334D01*
X85502Y-99501D01*
X88002D01*
X146000Y-86002D02*
Y-90167D01*
X145167Y-91000D01*
X143501D01*
X142668Y-90167D01*
Y-86002D01*
X137669D02*
X141002D01*
Y-88501D01*
X139335Y-87668D01*
X138502D01*
X137669Y-88501D01*
Y-90167D01*
X138502Y-91000D01*
X140169D01*
X141002Y-90167D01*
X161998Y37000D02*
X157000D01*
Y39499D01*
X157833Y40332D01*
X158666D01*
X159499Y39499D01*
Y37000D01*
Y39499D01*
X160332Y40332D01*
X161165D01*
X161998Y39499D01*
Y37000D01*
X161165Y45331D02*
X161998Y44497D01*
Y42831D01*
X161165Y41998D01*
X157833D01*
X157000Y42831D01*
Y44497D01*
X157833Y45331D01*
X161165Y46997D02*
X161998Y47830D01*
Y49496D01*
X161165Y50329D01*
X160332D01*
X159499Y49496D01*
X158666Y50329D01*
X157833D01*
X157000Y49496D01*
Y47830D01*
X157833Y46997D01*
X158666D01*
X159499Y47830D01*
X160332Y46997D01*
X161165D01*
X159499Y47830D02*
Y49496D01*
X121165Y42332D02*
X121998Y41499D01*
Y39833D01*
X121165Y39000D01*
X117833D01*
X117000Y39833D01*
Y41499D01*
X117833Y42332D01*
X121998Y47331D02*
Y43998D01*
X119499D01*
X120332Y45665D01*
Y46498D01*
X119499Y47331D01*
X117833D01*
X117000Y46498D01*
Y44831D01*
X117833Y43998D01*
X163688Y-37658D02*
X158690D01*
Y-35159D01*
X159523Y-34326D01*
X160356D01*
X161189Y-35159D01*
Y-37658D01*
Y-35159D01*
X162022Y-34326D01*
X162855D01*
X163688Y-35159D01*
Y-37658D01*
X162855Y-29327D02*
X163688Y-30161D01*
Y-31827D01*
X162855Y-32660D01*
X159523D01*
X158690Y-31827D01*
Y-30161D01*
X159523Y-29327D01*
X163688Y-24329D02*
X162855Y-25995D01*
X161189Y-27661D01*
X159523D01*
X158690Y-26828D01*
Y-25162D01*
X159523Y-24329D01*
X160356D01*
X161189Y-25162D01*
Y-27661D01*
X166000Y18998D02*
Y14833D01*
X165167Y14000D01*
X163501D01*
X162668Y14833D01*
Y18998D01*
X158503Y14000D02*
Y18998D01*
X161002Y16499D01*
X157669D01*
X108500Y106998D02*
Y102000D01*
X106001D01*
X105168Y102833D01*
Y103666D01*
X106001Y104499D01*
X108500D01*
X106001D01*
X105168Y105332D01*
Y106165D01*
X106001Y106998D01*
X108500D01*
X100169Y106165D02*
X101002Y106998D01*
X102669D01*
X103502Y106165D01*
Y102833D01*
X102669Y102000D01*
X101002D01*
X100169Y102833D01*
X98503Y106165D02*
X97670Y106998D01*
X96004D01*
X95171Y106165D01*
Y105332D01*
X96004Y104499D01*
X96837D01*
X96004D01*
X95171Y103666D01*
Y102833D01*
X96004Y102000D01*
X97670D01*
X98503Y102833D01*
X31668Y66165D02*
X32501Y66998D01*
X34167D01*
X35000Y66165D01*
Y62833D01*
X34167Y62000D01*
X32501D01*
X31668Y62833D01*
X27503Y62000D02*
Y66998D01*
X30002Y64499D01*
X26669D01*
X42000Y106998D02*
Y102000D01*
X39501D01*
X38668Y102833D01*
Y103666D01*
X39501Y104499D01*
X42000D01*
X39501D01*
X38668Y105332D01*
Y106165D01*
X39501Y106998D01*
X42000D01*
X33669Y106165D02*
X34502Y106998D01*
X36169D01*
X37002Y106165D01*
Y102833D01*
X36169Y102000D01*
X34502D01*
X33669Y102833D01*
X28671Y102000D02*
X32003D01*
X28671Y105332D01*
Y106165D01*
X29504Y106998D01*
X31170D01*
X32003Y106165D01*
X15000Y98000D02*
Y102998D01*
X12501D01*
X11668Y102165D01*
Y100499D01*
X12501Y99666D01*
X15000D01*
X13334D02*
X11668Y98000D01*
X6669Y102998D02*
X10002D01*
Y100499D01*
X8335Y101332D01*
X7502D01*
X6669Y100499D01*
Y98833D01*
X7502Y98000D01*
X9169D01*
X10002Y98833D01*
X-94563Y114253D02*
Y119251D01*
X-97062D01*
X-97895Y118418D01*
Y116752D01*
X-97062Y115919D01*
X-94563D01*
X-96229D02*
X-97895Y114253D01*
X-99561Y118418D02*
X-100394Y119251D01*
X-102060D01*
X-102894Y118418D01*
Y117585D01*
X-102060Y116752D01*
X-101228D01*
X-102060D01*
X-102894Y115919D01*
Y115086D01*
X-102060Y114253D01*
X-100394D01*
X-99561Y115086D01*
X-95000Y128000D02*
Y132998D01*
X-97499D01*
X-98332Y132165D01*
Y130499D01*
X-97499Y129666D01*
X-95000D01*
X-96666D02*
X-98332Y128000D01*
X-102498D02*
Y132998D01*
X-99998Y130499D01*
X-103331D01*
X-126000Y-36000D02*
X-121002D01*
Y-33501D01*
X-121835Y-32668D01*
X-123501D01*
X-124334Y-33501D01*
Y-36000D01*
Y-34334D02*
X-126000Y-32668D01*
Y-27669D02*
Y-31002D01*
X-122668Y-27669D01*
X-121835D01*
X-121002Y-28503D01*
Y-30169D01*
X-121835Y-31002D01*
X-126000Y-59000D02*
X-121002D01*
Y-56501D01*
X-121835Y-55668D01*
X-123501D01*
X-124334Y-56501D01*
Y-59000D01*
Y-57334D02*
X-126000Y-55668D01*
Y-54002D02*
Y-52336D01*
Y-53169D01*
X-121002D01*
X-121835Y-54002D01*
X-102000Y-55002D02*
X-105332D01*
X-103666D01*
Y-60000D01*
X-106998D02*
Y-55002D01*
X-109497D01*
X-110331Y-55835D01*
Y-57501D01*
X-109497Y-58334D01*
X-106998D01*
X-115329Y-55002D02*
X-113663Y-55835D01*
X-111997Y-57501D01*
Y-59167D01*
X-112830Y-60000D01*
X-114496D01*
X-115329Y-59167D01*
Y-58334D01*
X-114496Y-57501D01*
X-111997D01*
X-52000Y-66002D02*
X-55332D01*
X-53666D01*
Y-71000D01*
X-56998D02*
Y-66002D01*
X-59497D01*
X-60331Y-66835D01*
Y-68501D01*
X-59497Y-69334D01*
X-56998D01*
X-64496Y-71000D02*
Y-66002D01*
X-61997Y-68501D01*
X-65329D01*
X-32497Y-40499D02*
X-35829D01*
X-34163D01*
Y-45497D01*
X-37496D02*
Y-40499D01*
X-39995D01*
X-40828Y-41332D01*
Y-42998D01*
X-39995Y-43831D01*
X-37496D01*
X-42494Y-41332D02*
X-43327Y-40499D01*
X-44993D01*
X-45826Y-41332D01*
Y-42165D01*
X-44993Y-42998D01*
X-44160D01*
X-44993D01*
X-45826Y-43831D01*
Y-44664D01*
X-44993Y-45497D01*
X-43327D01*
X-42494Y-44664D01*
X23000Y15000D02*
X27998D01*
Y17499D01*
X27165Y18332D01*
X25499D01*
X24666Y17499D01*
Y15000D01*
Y16666D02*
X23000Y18332D01*
X27998Y19998D02*
Y23331D01*
X27165D01*
X23833Y19998D01*
X23000D01*
X12000Y15000D02*
X16998D01*
Y17499D01*
X16165Y18332D01*
X14499D01*
X13666Y17499D01*
Y15000D01*
Y16666D02*
X12000Y18332D01*
X12833Y19998D02*
X12000Y20831D01*
Y22497D01*
X12833Y23331D01*
X16165D01*
X16998Y22497D01*
Y20831D01*
X16165Y19998D01*
X15332D01*
X14499Y20831D01*
Y23331D01*
X-43000Y93000D02*
X-38002D01*
Y95499D01*
X-38835Y96332D01*
X-40501D01*
X-41334Y95499D01*
Y93000D01*
Y94666D02*
X-43000Y96332D01*
Y97998D02*
Y99664D01*
Y98831D01*
X-38002D01*
X-38835Y97998D01*
X-43000Y104663D02*
X-38002D01*
X-40501Y102164D01*
Y105496D01*
X-93000Y-41002D02*
X-96332D01*
X-94666D01*
Y-46000D01*
X-97998D02*
Y-41002D01*
X-100498D01*
X-101331Y-41835D01*
Y-43501D01*
X-100498Y-44334D01*
X-97998D01*
X-106329Y-41002D02*
X-102997D01*
Y-43501D01*
X-104663Y-42668D01*
X-105496D01*
X-106329Y-43501D01*
Y-45167D01*
X-105496Y-46000D01*
X-103830D01*
X-102997Y-45167D01*
X-142002Y54332D02*
Y51000D01*
X-144501D01*
Y52666D01*
Y51000D01*
X-147000D01*
X-142002Y55998D02*
X-147000D01*
Y58498D01*
X-146167Y59331D01*
X-145334D01*
X-144501Y58498D01*
Y55998D01*
Y58498D01*
X-143668Y59331D01*
X-142835D01*
X-142002Y58498D01*
Y55998D01*
X-147000Y60997D02*
Y62663D01*
Y61830D01*
X-142002D01*
X-142835Y60997D01*
X-74000Y-66002D02*
X-77332D01*
X-75666D01*
Y-71000D01*
X-78998D02*
Y-66002D01*
X-81498D01*
X-82331Y-66835D01*
Y-68501D01*
X-81498Y-69334D01*
X-78998D01*
X-87329Y-71000D02*
X-83997D01*
X-87329Y-67668D01*
Y-66835D01*
X-86496Y-66002D01*
X-84830D01*
X-83997Y-66835D01*
X-64000Y-32002D02*
X-67332D01*
X-65666D01*
Y-37000D01*
X-68998D02*
Y-32002D01*
X-71498D01*
X-72331Y-32835D01*
Y-34501D01*
X-71498Y-35334D01*
X-68998D01*
X-73997Y-37000D02*
X-75663D01*
X-74830D01*
Y-32002D01*
X-73997Y-32835D01*
X-13730Y-25158D02*
X-8732D01*
Y-22659D01*
X-9565Y-21826D01*
X-11231D01*
X-12064Y-22659D01*
Y-25158D01*
Y-23492D02*
X-13730Y-21826D01*
Y-20160D02*
Y-18494D01*
Y-19327D01*
X-8732D01*
X-9565Y-20160D01*
X-13730Y-12662D02*
Y-15994D01*
X-10398Y-12662D01*
X-9565D01*
X-8732Y-13495D01*
Y-15161D01*
X-9565Y-15994D01*
X-26000Y-24000D02*
X-21002D01*
Y-21501D01*
X-21835Y-20668D01*
X-23501D01*
X-24334Y-21501D01*
Y-24000D01*
Y-22334D02*
X-26000Y-20668D01*
Y-19002D02*
Y-17335D01*
Y-18169D01*
X-21002D01*
X-21835Y-19002D01*
X-26000Y-14836D02*
Y-13170D01*
Y-14003D01*
X-21002D01*
X-21835Y-14836D01*
X-65843Y74998D02*
X-64177D01*
X-63343Y74165D01*
Y70833D01*
X-64177Y70000D01*
X-65843D01*
X-66676Y70833D01*
Y74165D01*
X-65843Y74998D01*
X-71674Y74165D02*
X-70841Y74998D01*
X-69175D01*
X-68342Y74165D01*
Y73332D01*
X-69175Y72499D01*
X-70841D01*
X-71674Y71666D01*
Y70833D01*
X-70841Y70000D01*
X-69175D01*
X-68342Y70833D01*
X-76672Y74165D02*
X-75839Y74998D01*
X-74173D01*
X-73340Y74165D01*
Y70833D01*
X-74173Y70000D01*
X-75839D01*
X-76672Y70833D01*
X-78338Y70000D02*
X-80005D01*
X-79172D01*
Y74998D01*
X-78338Y74165D01*
X-173002Y55332D02*
Y52000D01*
X-175501D01*
Y53666D01*
Y52000D01*
X-178000D01*
X-173002Y56998D02*
X-178000D01*
Y59497D01*
X-177167Y60331D01*
X-176334D01*
X-175501Y59497D01*
Y56998D01*
Y59497D01*
X-174668Y60331D01*
X-173835D01*
X-173002Y59497D01*
Y56998D01*
X-173835Y61997D02*
X-173002Y62830D01*
Y64496D01*
X-173835Y65329D01*
X-174668D01*
X-175501Y64496D01*
Y63663D01*
Y64496D01*
X-176334Y65329D01*
X-177167D01*
X-178000Y64496D01*
Y62830D01*
X-177167Y61997D01*
X-158002Y54332D02*
Y51000D01*
X-160501D01*
Y52666D01*
Y51000D01*
X-163000D01*
X-158002Y55998D02*
X-163000D01*
Y58498D01*
X-162167Y59331D01*
X-161334D01*
X-160501Y58498D01*
Y55998D01*
Y58498D01*
X-159668Y59331D01*
X-158835D01*
X-158002Y58498D01*
Y55998D01*
X-163000Y64329D02*
Y60997D01*
X-159668Y64329D01*
X-158835D01*
X-158002Y63496D01*
Y61830D01*
X-158835Y60997D01*
X-25835Y96332D02*
X-25002Y95499D01*
Y93833D01*
X-25835Y93000D01*
X-29167D01*
X-30000Y93833D01*
Y95499D01*
X-29167Y96332D01*
X-30000Y97998D02*
Y99664D01*
Y98831D01*
X-25002D01*
X-25835Y97998D01*
Y102164D02*
X-25002Y102997D01*
Y104663D01*
X-25835Y105496D01*
X-29167D01*
X-30000Y104663D01*
Y102997D01*
X-29167Y102164D01*
X-25835D01*
X-36332Y-22835D02*
X-35499Y-22002D01*
X-33833D01*
X-33000Y-22835D01*
Y-26167D01*
X-33833Y-27000D01*
X-35499D01*
X-36332Y-26167D01*
X-37998D02*
X-38831Y-27000D01*
X-40498D01*
X-41331Y-26167D01*
Y-22835D01*
X-40498Y-22002D01*
X-38831D01*
X-37998Y-22835D01*
Y-23668D01*
X-38831Y-24501D01*
X-41331D01*
X-53989Y1434D02*
X-53156Y2267D01*
X-51490D01*
X-50657Y1434D01*
Y-1898D01*
X-51490Y-2731D01*
X-53156D01*
X-53989Y-1898D01*
X-55655Y1434D02*
X-56488Y2267D01*
X-58154D01*
X-58987Y1434D01*
Y601D01*
X-58154Y-232D01*
X-58987Y-1065D01*
Y-1898D01*
X-58154Y-2731D01*
X-56488D01*
X-55655Y-1898D01*
Y-1065D01*
X-56488Y-232D01*
X-55655Y601D01*
Y1434D01*
X-56488Y-232D02*
X-58154D01*
X22668Y134165D02*
X23501Y134998D01*
X25167D01*
X26000Y134165D01*
Y130833D01*
X25167Y130000D01*
X23501D01*
X22668Y130833D01*
X21002Y134165D02*
X20169Y134998D01*
X18503D01*
X17669Y134165D01*
Y133332D01*
X18503Y132499D01*
X19336D01*
X18503D01*
X17669Y131666D01*
Y130833D01*
X18503Y130000D01*
X20169D01*
X21002Y130833D01*
X61668Y144165D02*
X62501Y144998D01*
X64167D01*
X65000Y144165D01*
Y140833D01*
X64167Y140000D01*
X62501D01*
X61668Y140833D01*
X56669Y140000D02*
X60002D01*
X56669Y143332D01*
Y144165D01*
X57502Y144998D01*
X59169D01*
X60002Y144165D01*
X-68835Y103332D02*
X-68002Y102499D01*
Y100833D01*
X-68835Y100000D01*
X-72167D01*
X-73000Y100833D01*
Y102499D01*
X-72167Y103332D01*
X-73000Y104998D02*
Y106664D01*
Y105831D01*
X-68002D01*
X-68835Y104998D01*
X8998Y77000D02*
X4000D01*
Y79499D01*
X4833Y80332D01*
X5666D01*
X6499Y79499D01*
Y77000D01*
Y79499D01*
X7332Y80332D01*
X8165D01*
X8998Y79499D01*
Y77000D01*
X8165Y85331D02*
X8998Y84497D01*
Y82831D01*
X8165Y81998D01*
X4833D01*
X4000Y82831D01*
Y84497D01*
X4833Y85331D01*
X4000Y86997D02*
Y88663D01*
Y87830D01*
X8998D01*
X8165Y86997D01*
X-57000Y180998D02*
Y176000D01*
X-60332D01*
X-61998D02*
X-63664D01*
X-62831D01*
Y180998D01*
X-61998Y180165D01*
X20000Y39000D02*
Y43998D01*
X17501D01*
X16668Y43165D01*
Y41499D01*
X17501Y40666D01*
X20000D01*
X18334D02*
X16668Y39000D01*
X15002D02*
X13335D01*
X14169D01*
Y43998D01*
X15002Y43165D01*
X7504Y43998D02*
X10836D01*
Y41499D01*
X9170Y42332D01*
X8337D01*
X7504Y41499D01*
Y39833D01*
X8337Y39000D01*
X10003D01*
X10836Y39833D01*
X63668Y55998D02*
X67000D01*
Y53499D01*
X65334D01*
X67000D01*
Y51000D01*
X62002Y55998D02*
Y51000D01*
X59502D01*
X58669Y51833D01*
Y52666D01*
X59502Y53499D01*
X62002D01*
X59502D01*
X58669Y54332D01*
Y55165D01*
X59502Y55998D01*
X62002D01*
X54504Y51000D02*
Y55998D01*
X57003Y53499D01*
X53671D01*
X69Y-25500D02*
X5067D01*
Y-23001D01*
X4234Y-22168D01*
X2568D01*
X1735Y-23001D01*
Y-25500D01*
Y-23834D02*
X69Y-22168D01*
Y-20502D02*
Y-18836D01*
Y-19669D01*
X5067D01*
X4234Y-20502D01*
Y-16336D02*
X5067Y-15503D01*
Y-13837D01*
X4234Y-13004D01*
X3401D01*
X2568Y-13837D01*
Y-14670D01*
Y-13837D01*
X1735Y-13004D01*
X902D01*
X69Y-13837D01*
Y-15503D01*
X902Y-16336D01*
X-136000Y-2D02*
Y-4167D01*
X-136833Y-5000D01*
X-138499D01*
X-139332Y-4167D01*
Y-2D01*
X-140998Y-5000D02*
X-142664D01*
X-141831D01*
Y-2D01*
X-140998Y-835D01*
D83*
X92000Y94000D02*
G03*
X92000Y94000I-2500J0D01*
G01*
X132500Y-125500D02*
G03*
X132500Y-125500I-2500J0D01*
G01*
X151500Y-17000D02*
G03*
X151500Y-17000I-2500J0D01*
G01*
X-142190Y31731D02*
G03*
X-145999Y31728I-1905J634D01*
G01*
X-146000Y31731D02*
G03*
X-149809Y31728I-1905J634D01*
G01*
X-172190Y31731D02*
G03*
X-175999Y31728I-1905J634D01*
G01*
X-176000Y31731D02*
G03*
X-179809Y31728I-1905J634D01*
G01*
X-157190Y31731D02*
G03*
X-160999Y31728I-1905J634D01*
G01*
X-161000Y31731D02*
G03*
X-164809Y31728I-1905J634D01*
G01*
X-60204Y156190D02*
G03*
X-60204Y156190I-1796J0D01*
G01*
Y160000D02*
G03*
X-60204Y160000I-1796J0D01*
G01*
Y163810D02*
G03*
X-60204Y163810I-1796J0D01*
G01*
X37269Y56810D02*
G03*
X37272Y53001I-634J-1905D01*
G01*
X37269Y53000D02*
G03*
X37272Y49191I-634J-1905D01*
G01*
X59810Y-54920D02*
X64890D01*
Y-65080D02*
Y-54920D01*
X59810Y-65080D02*
X64890D01*
X47110Y-54920D02*
X52190D01*
X47110Y-65080D02*
Y-54920D01*
Y-65080D02*
X52190D01*
X54730Y-56190D02*
X56000Y-54920D01*
X54730Y-56190D02*
X57270Y-58730D01*
X54730Y-61270D02*
X57270Y-58730D01*
X54730Y-61270D02*
X57270Y-63810D01*
X56000Y-65080D02*
X57270Y-63810D01*
X56000Y-53080D02*
X57270Y-51810D01*
X54730Y-49270D02*
X57270Y-51810D01*
X54730Y-49270D02*
X57270Y-46730D01*
X54730Y-44190D02*
X57270Y-46730D01*
X54730Y-44190D02*
X56000Y-42920D01*
X47110Y-53080D02*
X52190D01*
X47110D02*
Y-42920D01*
X52190D01*
X59810Y-53080D02*
X64890D01*
Y-42920D01*
X59810D02*
X64890D01*
X-53815Y7110D02*
Y12190D01*
X-63975Y7110D02*
X-53815D01*
X-63975D02*
Y12190D01*
X-53815Y19810D02*
Y24890D01*
X-63975D02*
X-53815D01*
X-63975Y19810D02*
Y24890D01*
X-55085Y17270D02*
X-53815Y16000D01*
X-57625Y14730D02*
X-55085Y17270D01*
X-60165D02*
X-57625Y14730D01*
X-62705D02*
X-60165Y17270D01*
X-63975Y16000D02*
X-62705Y14730D01*
X-5420Y26630D02*
Y34250D01*
X-15580D02*
X-5420D01*
X-15580Y26630D02*
Y34250D01*
X-5420D02*
Y41870D01*
X-15580Y34250D02*
X-5420D01*
X-15580D02*
Y41870D01*
X-70620Y78920D02*
X-63000D01*
Y89080D01*
X-70620D02*
X-63000D01*
Y78920D02*
X-55380D01*
X-63000D02*
Y89080D01*
X-55380D01*
X63000Y84500D02*
X68000D01*
X65500Y82000D02*
Y87000D01*
X71500Y70000D02*
Y99000D01*
X59500Y70000D02*
X71500D01*
X59500D02*
Y99000D01*
X64250D01*
Y97188D02*
Y99000D01*
Y97188D02*
X66750D01*
Y99000D01*
X71500D01*
X-62000Y117500D02*
X-59000Y120500D01*
X-62000Y117500D02*
Y123500D01*
X-59000Y120500D01*
X-29110Y143970D02*
Y145240D01*
X-46890D02*
X-29110D01*
X-46890Y143970D02*
Y145240D01*
X-29110Y114760D02*
Y116030D01*
X-46890Y114760D02*
X-29110D01*
X-46890D02*
Y116030D01*
X-19500Y167750D02*
Y169750D01*
Y150250D02*
Y152250D01*
X8250Y168000D02*
Y169500D01*
X8250Y152000D02*
X8250Y150250D01*
X10500Y168000D02*
Y169750D01*
Y150250D02*
Y152000D01*
X-19500Y150250D02*
X10500D01*
X-19500Y169750D02*
X10500D01*
X9500Y152000D02*
X9500Y150250D01*
Y168000D02*
Y169500D01*
X8250Y168000D02*
X10500D01*
X8250Y152000D02*
X10500D01*
X150000Y-109920D02*
X157620D01*
X150000Y-120080D02*
Y-109920D01*
Y-120080D02*
X157620D01*
X142380Y-109920D02*
X150000D01*
Y-120080D02*
Y-109920D01*
X142380Y-120080D02*
X150000D01*
X124920Y-66000D02*
Y-58380D01*
Y-66000D02*
X135080D01*
Y-58380D01*
X124920Y-73620D02*
Y-66000D01*
X135080D01*
Y-73620D02*
Y-66000D01*
X81380Y-93080D02*
X89000D01*
Y-82920D01*
X81380D02*
X89000D01*
Y-93080D02*
X96620D01*
X89000D02*
Y-82920D01*
X96620D01*
X120500Y-104000D02*
Y-99000D01*
X118000Y-101500D02*
X123000D01*
X106000Y-107500D02*
X135000D01*
X106000D02*
Y-95500D01*
X135000D01*
Y-100250D02*
Y-95500D01*
X133188Y-100250D02*
X135000D01*
X133188Y-102750D02*
Y-100250D01*
Y-102750D02*
X135000D01*
Y-107500D02*
Y-102750D01*
X143920Y43500D02*
Y51120D01*
Y43500D02*
X154080D01*
Y51120D01*
X143920Y35880D02*
Y43500D01*
X154080D01*
Y35880D02*
Y43500D01*
X124920D02*
Y51120D01*
Y43500D02*
X135080D01*
Y51120D01*
X124920Y35880D02*
Y43500D01*
X135080D01*
Y35880D02*
Y43500D01*
X154000Y-38620D02*
Y-31000D01*
X143840D02*
X154000D01*
X143840Y-38620D02*
Y-31000D01*
X154000D02*
Y-23380D01*
X143840Y-31000D02*
X154000D01*
X143840D02*
Y-23380D01*
X139500Y4500D02*
Y9500D01*
X137000Y7000D02*
X142000D01*
X125000Y1000D02*
X154000D01*
X125000D02*
Y13000D01*
X154000D01*
Y8250D02*
Y13000D01*
X152188Y8250D02*
X154000D01*
X152188Y5750D02*
Y8250D01*
Y5750D02*
X154000D01*
Y1000D02*
Y5750D01*
X102000Y99080D02*
X109620D01*
X102000Y88920D02*
Y99080D01*
Y88920D02*
X109620D01*
X94380Y99080D02*
X102000D01*
Y88920D02*
Y99080D01*
X94380Y88920D02*
X102000D01*
X22380Y69920D02*
X30000D01*
Y80080D01*
X22380D02*
X30000D01*
Y69920D02*
X37620D01*
X30000D02*
Y80080D01*
X37620D01*
X22380Y88920D02*
X30000D01*
Y99080D01*
X22380D02*
X30000D01*
Y88920D02*
X37620D01*
X30000D02*
Y99080D01*
X37620D01*
X10620Y106380D02*
Y108920D01*
X11890Y110190D01*
X9350Y112730D02*
X11890Y110190D01*
X9350Y112730D02*
X11890Y115270D01*
X9350Y117810D02*
X11890Y115270D01*
X9350Y117810D02*
X10620Y119080D01*
Y121620D01*
X-4620Y106380D02*
X6810D01*
X-4620D02*
Y121620D01*
X6810D01*
X14430Y106380D02*
X25860D01*
Y121620D01*
X14430D02*
X25860D01*
X-78190Y122080D02*
X-73110D01*
Y111920D02*
Y122080D01*
X-78190Y111920D02*
X-73110D01*
X-90890Y122080D02*
X-85810D01*
X-90890Y111920D02*
Y122080D01*
Y111920D02*
X-85810D01*
X-83270Y120810D02*
X-82000Y122080D01*
X-83270Y120810D02*
X-80730Y118270D01*
X-83270Y115730D02*
X-80730Y118270D01*
X-83270Y115730D02*
X-80730Y113190D01*
X-82000Y111920D02*
X-80730Y113190D01*
X-83270Y133810D02*
X-82000Y135080D01*
X-83270Y133810D02*
X-80730Y131270D01*
X-83270Y128730D02*
X-80730Y131270D01*
X-83270Y128730D02*
X-80730Y126190D01*
X-82000Y124920D02*
X-80730Y126190D01*
X-78190Y135080D02*
X-73110D01*
Y124920D02*
Y135080D01*
X-78190Y124920D02*
X-73110D01*
X-90890Y135080D02*
X-85810D01*
X-90890Y124920D02*
Y135080D01*
Y124920D02*
X-85810D01*
X-129920Y-41890D02*
Y-36810D01*
X-140080Y-41890D02*
X-129920D01*
X-140080D02*
Y-36810D01*
X-129920Y-29190D02*
Y-24110D01*
X-140080D02*
X-129920D01*
X-140080Y-29190D02*
Y-24110D01*
X-131190Y-31730D02*
X-129920Y-33000D01*
X-133730Y-34270D02*
X-131190Y-31730D01*
X-136270D02*
X-133730Y-34270D01*
X-138810D02*
X-136270Y-31730D01*
X-140080Y-33000D02*
X-138810Y-34270D01*
X-129920Y-64890D02*
Y-59810D01*
X-140080Y-64890D02*
X-129920D01*
X-140080D02*
Y-59810D01*
X-129920Y-52190D02*
Y-47110D01*
X-140080D02*
X-129920D01*
X-140080Y-52190D02*
Y-47110D01*
X-131190Y-54730D02*
X-129920Y-56000D01*
X-133730Y-57270D02*
X-131190Y-54730D01*
X-136270D02*
X-133730Y-57270D01*
X-138810D02*
X-136270Y-54730D01*
X-140080Y-56000D02*
X-138810Y-57270D01*
X29810Y2270D02*
X31080Y1000D01*
X27270Y-270D02*
X29810Y2270D01*
X24730D02*
X27270Y-270D01*
X22190D02*
X24730Y2270D01*
X20920Y1000D02*
X22190Y-270D01*
X31080Y-7890D02*
Y-2810D01*
X20920Y-7890D02*
X31080D01*
X20920D02*
Y-2810D01*
X31080Y4810D02*
Y9890D01*
X20920D02*
X31080D01*
X20920Y4810D02*
Y9890D01*
X8920Y4810D02*
Y9890D01*
X19080D01*
Y4810D02*
Y9890D01*
X8920Y-7890D02*
Y-2810D01*
Y-7890D02*
X19080D01*
Y-2810D01*
X8920Y1000D02*
X10190Y-270D01*
X12730Y2270D01*
X15270Y-270D01*
X17810Y2270D01*
X19080Y1000D01*
X-36190Y80270D02*
X-34920Y79000D01*
X-38730Y77730D02*
X-36190Y80270D01*
X-41270D02*
X-38730Y77730D01*
X-43810D02*
X-41270Y80270D01*
X-45080Y79000D02*
X-43810Y77730D01*
X-34920Y70110D02*
Y75190D01*
X-45080Y70110D02*
X-34920D01*
X-45080D02*
Y75190D01*
X-34920Y82810D02*
Y87890D01*
X-45080D02*
X-34920D01*
X-45080Y82810D02*
Y87890D01*
X-142190Y33000D02*
X-140000D01*
X-152000D02*
X-149810D01*
X-139650Y19030D02*
Y22840D01*
X-152350Y19030D02*
X-139650D01*
X-152350D02*
Y46970D01*
X-139650D01*
Y22840D02*
Y46970D01*
X-5920Y-7890D02*
Y-2810D01*
X-16080Y-7890D02*
X-5920D01*
X-16080D02*
Y-2810D01*
X-5920Y4810D02*
Y9890D01*
X-16080D02*
X-5920D01*
X-16080Y4810D02*
Y9890D01*
X-7190Y2270D02*
X-5920Y1000D01*
X-9730Y-270D02*
X-7190Y2270D01*
X-12270D02*
X-9730Y-270D01*
X-14810D02*
X-12270Y2270D01*
X-16080Y1000D02*
X-14810Y-270D01*
X-17920Y-7890D02*
Y-2810D01*
X-28080Y-7890D02*
X-17920D01*
X-28080D02*
Y-2810D01*
X-17920Y4810D02*
Y9890D01*
X-28080D02*
X-17920D01*
X-28080Y4810D02*
Y9890D01*
X-19190Y2270D02*
X-17920Y1000D01*
X-21730Y-270D02*
X-19190Y2270D01*
X-24270D02*
X-21730Y-270D01*
X-26810D02*
X-24270Y2270D01*
X-28080Y1000D02*
X-26810Y-270D01*
X-172190Y33000D02*
X-170000D01*
X-182000D02*
X-179810D01*
X-169650Y19030D02*
Y22840D01*
X-182350Y19030D02*
X-169650D01*
X-182350D02*
Y46970D01*
X-169650D01*
Y22840D02*
Y46970D01*
X-157190Y33000D02*
X-155000D01*
X-167000D02*
X-164810D01*
X-154650Y19030D02*
Y22840D01*
X-167350Y19030D02*
X-154650D01*
X-167350D02*
Y46970D01*
X-154650D01*
Y22840D02*
Y46970D01*
X-32080Y79000D02*
Y86620D01*
Y79000D02*
X-21920D01*
Y86620D01*
X-32080Y71380D02*
Y79000D01*
X-21920D01*
Y71380D02*
Y79000D01*
X-61620Y-29580D02*
X-54000D01*
Y-19420D01*
X-61620D02*
X-54000D01*
Y-29580D02*
X-46380D01*
X-54000D02*
Y-19420D01*
X-46380D01*
X-61620Y-15580D02*
X-54000D01*
Y-5420D01*
X-61620D02*
X-54000D01*
Y-15580D02*
X-46380D01*
X-54000D02*
Y-5420D01*
X-46380D01*
X-4620Y124920D02*
X3000D01*
Y135080D01*
X-4620D02*
X3000D01*
Y124920D02*
X10620D01*
X3000D02*
Y135080D01*
X10620D01*
X-66080Y103000D02*
Y110620D01*
Y103000D02*
X-55920D01*
Y110620D01*
X-66080Y95380D02*
Y103000D01*
X-55920D01*
Y95380D02*
Y103000D01*
X-1999Y65001D02*
X-0D01*
X-1999D02*
Y69999D01*
X-0D01*
Y65001D02*
Y69999D01*
X-20000Y65001D02*
X-18001D01*
X-20000D02*
Y69999D01*
X-18001D01*
Y65001D02*
Y69999D01*
X-1999Y65001D02*
X-0D01*
Y97000D01*
X-1999D02*
X-0D01*
X-20000D02*
X-18001D01*
X-20000Y65001D02*
Y97000D01*
Y65001D02*
X-18001D01*
X-58190Y149840D02*
X-41680D01*
Y170160D01*
X-58190D02*
X-41680D01*
X-82320D02*
X-65810D01*
X-82320Y149840D02*
Y170160D01*
Y149840D02*
X-65810D01*
X-62000Y166350D02*
Y170160D01*
Y149840D02*
Y153650D01*
X-890Y47420D02*
X4190D01*
X-890D02*
Y57580D01*
X4190D01*
X11810Y47420D02*
X16890D01*
Y57580D01*
X11810D02*
X16890D01*
X8000Y47420D02*
X9270Y48690D01*
X6730Y51230D02*
X9270Y48690D01*
X6730Y51230D02*
X9270Y53770D01*
X6730Y56310D02*
X9270Y53770D01*
X6730Y56310D02*
X8000Y57580D01*
X36000Y56810D02*
Y59000D01*
Y47000D02*
Y49190D01*
X46160Y59350D02*
X49970D01*
Y46650D02*
Y59350D01*
X22030Y46650D02*
X49970D01*
X22030D02*
Y59350D01*
X46160D01*
X6080Y-7890D02*
Y-2810D01*
X-4080Y-7890D02*
X6080D01*
X-4080D02*
Y-2810D01*
X6080Y4810D02*
Y9890D01*
X-4080D02*
X6080D01*
X-4080Y4810D02*
Y9890D01*
X4810Y2270D02*
X6080Y1000D01*
X2270Y-270D02*
X4810Y2270D01*
X-270D02*
X2270Y-270D01*
X-2810D02*
X-270Y2270D01*
X-4080Y1000D02*
X-2810Y-270D01*
X-171087Y11183D02*
X-169837Y12433D01*
X-172337D02*
X-171087Y7433D01*
X-172337Y12433D02*
X-171087Y11183D01*
Y7433D02*
X-169837Y12433D01*
X-176000Y-22500D02*
Y-11000D01*
Y-22500D02*
X-173500D01*
Y-27500D02*
Y-22500D01*
X-176000Y-27500D02*
X-173500D01*
X-176000Y-39000D02*
Y-27500D01*
Y-39000D02*
X-146000D01*
Y-11000D01*
X-176000D02*
X-146000D01*
D84*
X-16395Y83825D02*
G03*
X-3492Y83707I6495J4670D01*
G01*
X-16250Y78338D02*
X-3550D01*
X-9900Y81132D02*
Y83750D01*
M02*
