%FSLAX44Y44*%
%MOMM*%
G71*
G01*
G75*
G04 Layer_Physical_Order=1*
G04 Layer_Color=255*
%ADD10R,0.4000X1.0000*%
%ADD11R,1.0000X0.4000*%
%ADD12R,0.7250X2.3500*%
%ADD13R,3.0000X2.1000*%
%ADD14R,1.6000X0.8000*%
%ADD15C,0.2000*%
%ADD16C,0.2540*%
%ADD17C,0.4000*%
%ADD18C,0.3000*%
%ADD19R,1.1000X0.4000*%
%ADD20R,1.9250X2.3500*%
%ADD21C,4.0000*%
G04:AMPARAMS|DCode=22|XSize=4.7mm|YSize=4mm|CornerRadius=2mm|HoleSize=0mm|Usage=FLASHONLY|Rotation=45.000|XOffset=0mm|YOffset=0mm|HoleType=Round|Shape=RoundedRectangle|*
%AMROUNDEDRECTD22*
21,1,4.7000,0.0000,0,0,45.0*
21,1,0.7000,4.0000,0,0,45.0*
1,1,4.0000,0.2475,0.2475*
1,1,4.0000,-0.2475,-0.2475*
1,1,4.0000,-0.2475,-0.2475*
1,1,4.0000,0.2475,0.2475*
%
%ADD22ROUNDEDRECTD22*%
G04:AMPARAMS|DCode=23|XSize=4.7mm|YSize=4mm|CornerRadius=2mm|HoleSize=0mm|Usage=FLASHONLY|Rotation=-45.000|XOffset=0mm|YOffset=0mm|HoleType=Round|Shape=RoundedRectangle|*
%AMROUNDEDRECTD23*
21,1,4.7000,0.0000,0,0,-45.0*
21,1,0.7000,4.0000,0,0,-45.0*
1,1,4.0000,0.2475,-0.2475*
1,1,4.0000,-0.2475,0.2475*
1,1,4.0000,-0.2475,0.2475*
1,1,4.0000,0.2475,-0.2475*
%
%ADD23ROUNDEDRECTD23*%
%ADD24C,0.5000*%
D10*
X24500Y34250D02*
D03*
X17500D02*
D03*
X10500D02*
D03*
X-17500D02*
D03*
X-10500D02*
D03*
X-3500D02*
D03*
X3500D02*
D03*
X24500Y-34250D02*
D03*
X17500D02*
D03*
X10500D02*
D03*
X-17500D02*
D03*
X-10500D02*
D03*
X-3500D02*
D03*
X3500D02*
D03*
X-24500D02*
D03*
Y34250D02*
D03*
D11*
X34250Y-3500D02*
D03*
Y3500D02*
D03*
Y10500D02*
D03*
Y17500D02*
D03*
Y24500D02*
D03*
Y-10500D02*
D03*
Y-17500D02*
D03*
Y-24500D02*
D03*
X-34250D02*
D03*
Y-17500D02*
D03*
Y-10500D02*
D03*
Y24500D02*
D03*
Y17500D02*
D03*
Y10500D02*
D03*
Y3500D02*
D03*
Y-3500D02*
D03*
D12*
X-93000Y60000D02*
D03*
X-119000D02*
D03*
X93000D02*
D03*
X119000D02*
D03*
X93000Y-60000D02*
D03*
X119000D02*
D03*
X-93000D02*
D03*
X-119000D02*
D03*
D13*
X-167750Y112750D02*
D03*
Y49250D02*
D03*
D14*
X-138750Y74750D02*
D03*
Y87250D02*
D03*
D15*
X119000Y-77000D02*
Y-60000D01*
X108000Y-88000D02*
X119000Y-77000D01*
X-85000Y-88000D02*
X108000D01*
X2619Y105000D02*
X89000D01*
X93000Y60000D02*
Y78000D01*
X89000Y105000D02*
X96000Y98000D01*
Y81000D02*
Y98000D01*
X93000Y78000D02*
X96000Y81000D01*
X-34497Y-77000D02*
X38000D01*
X67000Y-48000D01*
X-40497Y-81000D02*
X46000D01*
X67000Y-60000D01*
X-42497Y-69000D02*
X-34497Y-77000D01*
X-47497Y-74000D02*
X-40497Y-81000D01*
X-93000Y-80000D02*
X-85000Y-88000D01*
X-93000Y-80000D02*
Y-60000D01*
X10500Y27000D02*
Y34250D01*
X1000Y17500D02*
X10500Y27000D01*
X-34250Y24500D02*
X-18000D01*
X-11000Y17500D01*
X-34250D02*
X-23000D01*
X119000Y28000D02*
Y60000D01*
Y28000D02*
X130000Y17000D01*
Y-18000D02*
Y17000D01*
X112000Y-36000D02*
X130000Y-18000D01*
X99000Y-36000D02*
X112000D01*
X93000Y-42000D02*
X99000Y-36000D01*
X93000Y-60000D02*
Y-42000D01*
X22000Y16500D02*
Y21000D01*
X24500Y23500D01*
X24000Y34250D02*
Y36000D01*
X24500Y23500D02*
Y34250D01*
X-100000Y35000D02*
X-93000Y42000D01*
X-116000Y35000D02*
X-100000D01*
X-129466Y21534D02*
X-116000Y35000D01*
X-58895Y3500D02*
X-34250D01*
X12000Y147000D02*
X25000Y160000D01*
X-49000Y147000D02*
X12000D01*
X-119000Y77000D02*
X-49000Y147000D01*
X-119000Y60000D02*
Y77000D01*
Y-60000D02*
Y-29000D01*
X-129466Y-18534D02*
X-119000Y-29000D01*
X-129466Y-18534D02*
Y21534D01*
X-93000Y42000D02*
Y60000D01*
X3500Y-34250D02*
Y-20500D01*
X-3500Y-34250D02*
Y-25500D01*
X17500Y23500D02*
Y34250D01*
X-28858Y48517D02*
X-24500Y44159D01*
Y34250D02*
Y44159D01*
X3500Y45000D02*
Y46530D01*
Y34250D02*
Y45000D01*
X-189914Y-180000D02*
G03*
X-179914Y-190000I10000J0D01*
G01*
X-179914Y190000D02*
G03*
X-189914Y180000I0J-10000D01*
G01*
X179914Y-190000D02*
G03*
X189914Y-180000I0J10000D01*
G01*
X190000Y180000D02*
G03*
X180000Y190000I-10000J0D01*
G01*
X-179914Y189914D02*
X180000Y189914D01*
X-179914Y-189914D02*
X179914Y-189914D01*
X-190000Y-180000D02*
Y180000D01*
X190000Y-180000D02*
Y180000D01*
D16*
X24500Y-43431D02*
Y-34250D01*
X21701Y-46230D02*
X24500Y-43431D01*
X17500Y-43500D02*
Y-34250D01*
X10000Y-51000D02*
X17500Y-43500D01*
X-17500Y-44486D02*
X-8526Y-53460D01*
X-2497Y-69000D02*
X2503Y-64000D01*
Y-59503D01*
X-3540Y-53460D02*
X2503Y-59503D01*
X-8526Y-53460D02*
X-3540D01*
X-24500Y-45547D02*
X-12047Y-58000D01*
X-6497D01*
X-2497Y-62000D01*
X-17500Y-44486D02*
Y-34250D01*
X-24500Y-45547D02*
Y-34250D01*
X-151750Y87250D02*
X-138750D01*
X34250Y24500D02*
X43500D01*
X-150750Y74750D02*
X-138750D01*
X-152000Y87000D02*
X-151750Y87250D01*
X34250Y17500D02*
X47069D01*
X34250Y10500D02*
X43500D01*
X10500Y-34250D02*
Y-25500D01*
X34250Y-10500D02*
X43500D01*
X-3500Y25500D02*
Y34250D01*
D17*
X-167750Y112750D02*
Y128750D01*
Y49250D02*
Y112750D01*
X-22000Y52000D02*
X-17500Y47500D01*
Y34250D02*
Y47500D01*
X-15000Y-23000D02*
X-10500Y-27500D01*
Y-34250D02*
Y-27500D01*
X-34250Y-3500D02*
X-17500D01*
X-11000Y-10000D01*
X-34250Y-17500D02*
X-25500D01*
X-42500Y-24500D02*
X-34250D01*
X-44500Y10500D02*
X-34250D01*
D18*
X-10500Y34250D02*
Y45000D01*
X-42888Y-10500D02*
X-34250D01*
D19*
X-23750Y-3500D02*
D03*
D20*
X-100126Y59999D02*
D03*
X100126Y59999D02*
D03*
X100126Y-60001D02*
D03*
X-100124Y-60000D02*
D03*
D21*
X-100000Y0D02*
D03*
X100000D02*
D03*
D22*
X165000Y165000D02*
D03*
X-165000Y-165000D02*
D03*
D23*
X165000D02*
D03*
X-165000Y165000D02*
D03*
D24*
X106500Y103000D02*
D03*
X67000Y-60000D02*
D03*
X-47497Y-74000D02*
D03*
X67000Y-48000D02*
D03*
X-42497Y-69000D02*
D03*
X44000Y-60000D02*
D03*
Y-48000D02*
D03*
X21701Y-46230D02*
D03*
X10000Y-51000D02*
D03*
X1000Y-10000D02*
D03*
X48500Y-3500D02*
D03*
X-23000Y17500D02*
D03*
X-65500Y-24500D02*
D03*
X-58895Y3500D02*
D03*
X-74000Y84000D02*
D03*
X-72795Y149205D02*
D03*
X37500Y-99500D02*
D03*
X42503Y-94497D02*
D03*
X32503Y-94503D02*
D03*
X86000Y160000D02*
D03*
X-14500Y139500D02*
D03*
X14000Y130000D02*
D03*
X27000Y114000D02*
D03*
X2619Y105000D02*
D03*
X-51500Y98500D02*
D03*
X25000Y160000D02*
D03*
X-167750Y128750D02*
D03*
X130000Y-78000D02*
D03*
X149000Y-17000D02*
D03*
X43500Y24500D02*
D03*
X149000Y31500D02*
D03*
X-95000Y117000D02*
D03*
X-117497Y-98503D02*
D03*
X-61000Y120500D02*
D03*
X-150750Y74750D02*
D03*
Y87000D02*
D03*
X-146000Y-2000D02*
D03*
X-128498Y-28500D02*
D03*
X1700Y93700D02*
D03*
X-27000Y90000D02*
D03*
X-22000Y52000D02*
D03*
X-65500Y-10500D02*
D03*
X47069Y17500D02*
D03*
X43500Y10500D02*
D03*
X42000Y94000D02*
D03*
X-158938Y-109938D02*
D03*
X78938Y-109938D02*
D03*
X139500Y-16000D02*
D03*
X88500Y84500D02*
D03*
X120500Y-124500D02*
D03*
X-15000Y-23000D02*
D03*
X-11000Y-10000D02*
D03*
X-112497Y-93497D02*
D03*
X-97497D02*
D03*
X-82497D02*
D03*
X-67497D02*
D03*
X-52497D02*
D03*
X-37497D02*
D03*
X-22497D02*
D03*
X3500Y-20500D02*
D03*
X-3500Y-25500D02*
D03*
X-7497Y-93497D02*
D03*
X-2497Y-69000D02*
D03*
Y-62000D02*
D03*
X7503Y-93497D02*
D03*
X22503D02*
D03*
X22000Y17500D02*
D03*
X17500Y23500D02*
D03*
X-137620Y40620D02*
D03*
X15500Y94000D02*
D03*
Y75000D02*
D03*
X154500Y-107500D02*
D03*
X130000Y55500D02*
D03*
X149000D02*
D03*
X130000Y-54000D02*
D03*
X140420Y-35500D02*
D03*
X84500Y-97000D02*
D03*
X-25500Y-17500D02*
D03*
X-42500Y-24500D02*
D03*
X10500Y-25500D02*
D03*
X43500Y-10500D02*
D03*
X12500Y59500D02*
D03*
X-67000Y58000D02*
D03*
X-44500Y10500D02*
D03*
X-28858Y48517D02*
D03*
X3500Y45000D02*
D03*
X-3500Y25500D02*
D03*
X-10500Y45000D02*
D03*
X1000Y17500D02*
D03*
X-11000D02*
D03*
X-42888Y-10500D02*
D03*
X139000Y-115000D02*
D03*
X88500Y94000D02*
D03*
M02*
