%FSLAX44Y44*%
%MOMM*%
G71*
G01*
G75*
G04 Layer_Physical_Order=2*
G04 Layer_Color=36540*
%ADD10R,0.4000X1.0000*%
%ADD11R,1.0000X0.4000*%
%ADD12R,0.7250X2.3500*%
%ADD13R,3.0000X2.1000*%
%ADD14R,1.6000X0.8000*%
%ADD15C,0.2000*%
%ADD16C,0.2540*%
%ADD17C,0.4000*%
%ADD18C,0.3000*%
%ADD19R,1.1000X0.4000*%
%ADD20R,1.9250X2.3500*%
%ADD21C,4.0000*%
G04:AMPARAMS|DCode=22|XSize=4.7mm|YSize=4mm|CornerRadius=2mm|HoleSize=0mm|Usage=FLASHONLY|Rotation=45.000|XOffset=0mm|YOffset=0mm|HoleType=Round|Shape=RoundedRectangle|*
%AMROUNDEDRECTD22*
21,1,4.7000,0.0000,0,0,45.0*
21,1,0.7000,4.0000,0,0,45.0*
1,1,4.0000,0.2475,0.2475*
1,1,4.0000,-0.2475,-0.2475*
1,1,4.0000,-0.2475,-0.2475*
1,1,4.0000,0.2475,0.2475*
%
%ADD22ROUNDEDRECTD22*%
G04:AMPARAMS|DCode=23|XSize=4.7mm|YSize=4mm|CornerRadius=2mm|HoleSize=0mm|Usage=FLASHONLY|Rotation=-45.000|XOffset=0mm|YOffset=0mm|HoleType=Round|Shape=RoundedRectangle|*
%AMROUNDEDRECTD23*
21,1,4.7000,0.0000,0,0,-45.0*
21,1,0.7000,4.0000,0,0,-45.0*
1,1,4.0000,0.2475,-0.2475*
1,1,4.0000,-0.2475,0.2475*
1,1,4.0000,-0.2475,0.2475*
1,1,4.0000,0.2475,-0.2475*
%
%ADD23ROUNDEDRECTD23*%
%ADD24C,0.5000*%
%ADD25C,0.5000*%
D15*
X27080Y-15737D02*
Y3730D01*
X44000Y-48000D02*
Y-32657D01*
X27080Y-15737D02*
X44000Y-32657D01*
X48500Y-55500D02*
Y-31500D01*
X31080Y-14080D02*
X48500Y-31500D01*
X31080Y-14080D02*
Y7420D01*
X17500Y13310D02*
X27080Y3730D01*
X22000Y16500D02*
X31080Y7420D01*
X44000Y-60000D02*
X48500Y-55500D01*
X-95000Y103000D02*
Y117000D01*
X-153000Y45000D02*
X-95000Y103000D01*
X-153000Y-28000D02*
Y45000D01*
Y-28000D02*
X-117497Y-63503D01*
X17500Y13310D02*
Y23500D01*
X-117497Y-98503D02*
Y-63503D01*
X-189914Y-180000D02*
G03*
X-179914Y-190000I10000J0D01*
G01*
X-179914Y190000D02*
G03*
X-189914Y180000I0J-10000D01*
G01*
X179914Y-190000D02*
G03*
X189914Y-180000I0J10000D01*
G01*
X190000Y180000D02*
G03*
X180000Y190000I-10000J0D01*
G01*
X-179914Y189914D02*
X180000Y189914D01*
X-179914Y-189914D02*
X179914Y-189914D01*
X-190000Y-180000D02*
Y180000D01*
X190000Y-180000D02*
Y180000D01*
D17*
X62000Y120500D02*
X88500Y94000D01*
X-61000Y120500D02*
X62000D01*
X139000Y-115000D02*
X149000Y-105000D01*
Y-17000D01*
X159000Y-7000D01*
Y36040D01*
X101040Y94000D02*
X159000Y36040D01*
X88500Y94000D02*
X101040D01*
X-50407Y34250D02*
X49000D01*
X51750Y31500D01*
X56000Y4000D02*
Y31500D01*
X51750D02*
X56000D01*
X149000D01*
X-42500Y-53500D02*
X-18000Y-78000D01*
X130000D01*
X37500Y-99500D02*
X42503Y-94497D01*
X137000Y-117000D02*
X139000Y-115000D01*
X55000Y-117000D02*
X137000D01*
X37500Y-99500D02*
X55000Y-117000D01*
X48500Y-3500D02*
X56000Y4000D01*
X-42500Y-53500D02*
Y-24500D01*
X-67000Y58000D02*
X-50657Y41657D01*
Y34000D02*
Y41657D01*
X-61000Y120500D02*
Y137410D01*
X-72795Y149205D02*
X-61000Y137410D01*
X32503Y-94503D02*
X37500Y-99500D01*
X32503Y-94503D02*
X42497D01*
X-137620Y40620D02*
Y43880D01*
X-61000Y120500D01*
X-50657Y-2731D02*
X-42888Y-10500D01*
X-50657Y-2731D02*
Y34000D01*
X-50407Y34250D01*
D24*
X44000Y-60000D02*
D03*
Y-48000D02*
D03*
X48500Y-3500D02*
D03*
X-72795Y149205D02*
D03*
X37500Y-99500D02*
D03*
X42503Y-94497D02*
D03*
X32503Y-94503D02*
D03*
X130000Y-78000D02*
D03*
X149000Y-17000D02*
D03*
Y31500D02*
D03*
X-95000Y117000D02*
D03*
X-117497Y-98503D02*
D03*
X-61000Y120500D02*
D03*
X42000Y94000D02*
D03*
X22000Y17500D02*
D03*
X17500Y23500D02*
D03*
X-137620Y40620D02*
D03*
X-42500Y-24500D02*
D03*
X12500Y59500D02*
D03*
X-67000Y58000D02*
D03*
X-10500Y45000D02*
D03*
X-42888Y-10500D02*
D03*
X139000Y-115000D02*
D03*
X88500Y94000D02*
D03*
D25*
X42000Y89000D02*
Y94000D01*
X12500Y59500D02*
X42000Y89000D01*
X4000Y59500D02*
X12500D01*
X-10500Y45000D02*
X4000Y59500D01*
M02*
