M48
;Layer_Color=9474304
;FILE_FORMAT=4:4
METRIC,LZ
;TYPE=PLATED
T1F00S00C0.2500
T2F00S00C2.2000
%
T01
X-00158938Y-00109938
X-00117497Y-00098503
X-00112497Y-00093497
X-00097497
X-00082497
X-00067497
X-00052497
X-00037497
X-00022497
X-00007497
X00007503
X00022503
X00032503Y-00094503
X000375Y-000995
X00042503Y-00094497
X00044Y-0006
Y-00048
X00067
Y-0006
X000845Y-00097
X00078938Y-00109938
X001205Y-001245
X00139Y-00115
X001545Y-001075
X0013Y-00078
Y-00054
X0014042Y-000355
X001395Y-00016
X00149Y-00017
X000435Y-000105
X000485Y-000035
X000435Y000105
X00047069Y000175
X000435Y000245
X000175Y000235
X00022Y000175
X00001
X-00011
X-00023
X-000035Y000255
X00001Y-0001
X-00011
X-00015Y-00023
X-000035Y-000255
X000035Y-000205
X000105Y-000255
X0001Y-00051
X00021701Y-0004623
X-00002497Y-00062
Y-00069
X-00042497
X-00047497Y-00074
X-000425Y-000245
X-00042888Y-000105
X-000655
Y-000245
X-00058895Y000035
X-000445Y000105
X-000255Y-000175
X-00128498Y-000285
X-00146Y-00002
X-0013762Y0004062
X-0015075Y0007475
Y00087
X-0016775Y0012875
X-00095Y00117
X-00061Y001205
X-000515Y000985
X-00027Y0009
X000017Y000937
X00002619Y00105
X000155Y00094
Y00075
X000125Y000595
X000035Y00045
X-000105
X-00022Y00052
X-00028858Y00048517
X-00067Y00058
X-00074Y00084
X-00072795Y00149205
X-000145Y001395
X00014Y0013
X00027Y00114
X00042Y00094
X000885
Y000845
X001065Y00103
X0013Y000555
X00149
Y000315
X00086Y0016
X00025
T02
X-001Y0
X001
M30
